<?xml version="1.0" encoding="UTF-8" standalone="no"?>
<!-- Created with Inkscape (http://www.inkscape.org/) -->

<svg
   xmlns:dc="http://purl.org/dc/elements/1.1/"
   xmlns:cc="http://creativecommons.org/ns#"
   xmlns:rdf="http://www.w3.org/1999/02/22-rdf-syntax-ns#"
   xmlns:svg="http://www.w3.org/2000/svg"
   xmlns="http://www.w3.org/2000/svg"
   xmlns:xlink="http://www.w3.org/1999/xlink"
   xmlns:sodipodi="http://sodipodi.sourceforge.net/DTD/sodipodi-0.dtd"
   xmlns:inkscape="http://www.inkscape.org/namespaces/inkscape"
   width="800mm"
   height="220mm"
   viewBox="0 0 800 220"
   version="1.1"
   id="svg8"
   sodipodi:docname="logo.svg"
   inkscape:version="0.92.3 (2405546, 2018-03-11)">
  <defs
     id="defs2">
    <linearGradient
       inkscape:collect="always"
       id="linearGradient4566">
      <stop
         style="stop-color:#003c63;stop-opacity:1"
         offset="0"
         id="stop4562" />
      <stop
         style="stop-color:#005084;stop-opacity:1"
         offset="1"
         id="stop4564" />
    </linearGradient>
    <linearGradient
       inkscape:collect="always"
       xlink:href="#linearGradient4566"
       id="linearGradient4568"
       x1="10.865616"
       y1="197"
       x2="189.13438"
       y2="197"
       gradientUnits="userSpaceOnUse"
       gradientTransform="translate(26.688888,-229.94117)" />
  </defs>
  <sodipodi:namedview
     id="base"
     pagecolor="#ffffff"
     bordercolor="#666666"
     borderopacity="1.0"
     inkscape:pageopacity="0.0"
     inkscape:pageshadow="2"
     inkscape:zoom="0.35355339"
     inkscape:cx="1800.9113"
     inkscape:cy="301.59991"
     inkscape:document-units="mm"
     inkscape:current-layer="g1029"
     showgrid="false"
     inkscape:window-width="2560"
     inkscape:window-height="1377"
     inkscape:window-x="2992"
     inkscape:window-y="725"
     inkscape:window-maximized="1"
     showguides="true"
     inkscape:guide-bbox="true" />
  <metadata
     id="metadata5">
    <rdf:RDF>
      <cc:Work
         rdf:about="">
        <dc:format>image/svg+xml</dc:format>
        <dc:type
           rdf:resource="http://purl.org/dc/dcmitype/StillImage" />
        <dc:title></dc:title>
      </cc:Work>
    </rdf:RDF>
  </metadata>
  <g
     inkscape:groupmode="layer"
     id="layer2"
     inkscape:label="Back"
     style="display:inline"
     transform="translate(0,20)">
    <circle
       style="opacity:1;fill:url(#linearGradient4568);fill-opacity:1;stroke:#181818;stroke-width:5.96500015;stroke-miterlimit:4;stroke-dasharray:none;stroke-opacity:1"
       id="path4518"
       cx="126.68889"
       cy="-32.941162"
       r="89.134384"
       transform="rotate(56.559587)" />
  </g>
  <g
     inkscape:label="Ebene 1"
     inkscape:groupmode="layer"
     id="layer1"
     transform="translate(0,-77)"
     style="display:inline">
    <path
       style="opacity:1;fill:#fffffb;fill-opacity:1;stroke:none;stroke-width:4.73537016;stroke-miterlimit:4;stroke-dasharray:none;stroke-opacity:1"
       d="m 53.272547,183.77724 a 17.194818,20.125702 64.157964 0 1 -24.181668,-7.33049 17.194818,20.125702 64.157964 0 1 9.2559,-23.51493 21.680911,21.401586 64.157964 0 0 -0.02493,19.04414 21.680911,21.401586 64.157964 0 0 14.950693,11.80128 z"
       id="path4655"
       inkscape:connector-curvature="0" />
    <path
       sodipodi:type="star"
       style="display:inline;opacity:1;fill:#ffffff;fill-opacity:1;stroke:none;stroke-width:9.86499977;stroke-miterlimit:4;stroke-dasharray:none;stroke-opacity:1"
       id="path4570"
       sodipodi:sides="7"
       sodipodi:cx="59.868374"
       sodipodi:cy="176.46144"
       sodipodi:r1="42.323208"
       sodipodi:r2="21.161604"
       sodipodi:arg1="0.48624263"
       sodipodi:arg2="0.93504158"
       inkscape:flatsided="false"
       inkscape:rounded="0"
       inkscape:randomized="0"
       d="m 97.286108,196.23939 -24.852292,-2.75082 -4.698887,24.55858 -13.344476,-21.14541 -22.130379,11.63829 8.212002,-23.61708 -22.897244,-10.04588 23.584675,-8.3046 -6.422018,-24.16529 21.197607,13.26141 14.889119,-20.08775 2.848309,24.84131 24.988445,-0.88372 -17.645824,17.71519 z"
       inkscape:transform-center-x="-9.2939689"
       inkscape:transform-center-y="4.7545161"
       transform="matrix(-0.08789948,0.0441924,-0.04219027,-0.0839172,27.833576,167.18421)" />
    <path
       sodipodi:type="star"
       style="display:inline;opacity:1;fill:#ffffff;fill-opacity:1;stroke:none;stroke-width:9.86499977;stroke-miterlimit:4;stroke-dasharray:none;stroke-opacity:1"
       id="path4570-1"
       sodipodi:sides="7"
       sodipodi:cx="59.868374"
       sodipodi:cy="176.46144"
       sodipodi:r1="42.323208"
       sodipodi:r2="21.161604"
       sodipodi:arg1="0.48624263"
       sodipodi:arg2="0.93504158"
       inkscape:flatsided="false"
       inkscape:rounded="0"
       inkscape:randomized="0"
       d="m 97.286108,196.23939 -24.852292,-2.75082 -4.698887,24.55858 -13.344476,-21.14541 -22.130379,11.63829 8.212002,-23.61708 -22.897244,-10.04588 23.584675,-8.3046 -6.422018,-24.16529 21.197607,13.26141 14.889119,-20.08775 2.848309,24.84131 24.988445,-0.88372 -17.645824,17.71519 z"
       inkscape:transform-center-x="-36.278629"
       inkscape:transform-center-y="-5.1428038"
       transform="matrix(-0.08789948,0.0441924,-0.04219027,-0.0839172,159.20434,144.22872)" />
    <path
       sodipodi:type="star"
       style="display:inline;opacity:1;fill:#ffffff;fill-opacity:1;stroke:none;stroke-width:9.86499977;stroke-miterlimit:4;stroke-dasharray:none;stroke-opacity:1"
       id="path4570-0"
       sodipodi:sides="7"
       sodipodi:cx="59.868374"
       sodipodi:cy="176.46144"
       sodipodi:r1="42.323208"
       sodipodi:r2="21.161604"
       sodipodi:arg1="0.48624263"
       sodipodi:arg2="0.93504158"
       inkscape:flatsided="false"
       inkscape:rounded="0"
       inkscape:randomized="0"
       d="m 97.286108,196.23939 -24.852292,-2.75082 -4.698887,24.55858 -13.344476,-21.14541 -22.130379,11.63829 8.212002,-23.61708 -22.897244,-10.04588 23.584675,-8.3046 -6.422018,-24.16529 21.197607,13.26141 14.889119,-20.08775 2.848309,24.84131 24.988445,-0.88372 -17.645824,17.71519 z"
       inkscape:transform-center-x="-0.17222182"
       inkscape:transform-center-y="-0.03311488"
       transform="matrix(-0.09838337,0,0,-0.09392611,102.25199,208.12838)" />
    <path
       sodipodi:type="star"
       style="display:inline;opacity:1;fill:#ffffff;fill-opacity:1;stroke:none;stroke-width:9.86499977;stroke-miterlimit:4;stroke-dasharray:none;stroke-opacity:1"
       id="path4570-4"
       sodipodi:sides="7"
       sodipodi:cx="59.868374"
       sodipodi:cy="176.46144"
       sodipodi:r1="42.323208"
       sodipodi:r2="21.161604"
       sodipodi:arg1="0.48624263"
       sodipodi:arg2="0.93504158"
       inkscape:flatsided="false"
       inkscape:rounded="0"
       inkscape:randomized="0"
       d="m 97.286108,196.23939 -24.852292,-2.75082 -4.698887,24.55858 -13.344476,-21.14541 -22.130379,11.63829 8.212002,-23.61708 -22.897244,-10.04588 23.584675,-8.3046 -6.422018,-24.16529 21.197607,13.26141 14.889119,-20.08775 2.848309,24.84131 24.988445,-0.88372 -17.645824,17.71519 z"
       inkscape:transform-center-x="-0.17222182"
       inkscape:transform-center-y="-0.03311488"
       transform="matrix(-0.09838337,0,0,-0.09392611,107.68225,160.58482)" />
    <path
       sodipodi:type="star"
       style="display:inline;opacity:1;fill:#ffffff;fill-opacity:1;stroke:none;stroke-width:9.86499977;stroke-miterlimit:4;stroke-dasharray:none;stroke-opacity:1"
       id="path4570-16"
       sodipodi:sides="7"
       sodipodi:cx="59.868374"
       sodipodi:cy="176.46144"
       sodipodi:r1="42.323208"
       sodipodi:r2="21.161604"
       sodipodi:arg1="0.48624263"
       sodipodi:arg2="0.93504158"
       inkscape:flatsided="false"
       inkscape:rounded="0"
       inkscape:randomized="0"
       d="m 97.286108,196.23939 -24.852292,-2.75082 -4.698887,24.55858 -13.344476,-21.14541 -22.130379,11.63829 8.212002,-23.61708 -22.897244,-10.04588 23.584675,-8.3046 -6.422018,-24.16529 21.197607,13.26141 14.889119,-20.08775 2.848309,24.84131 24.988445,-0.88372 -17.645824,17.71519 z"
       inkscape:transform-center-x="23.4991"
       inkscape:transform-center-y="37.464275"
       transform="matrix(-0.08789948,0.0441924,-0.04219027,-0.0839172,143.53168,255.91748)" />
    <path
       sodipodi:type="star"
       style="display:inline;opacity:1;fill:#ffffff;fill-opacity:1;stroke:none;stroke-width:9.86499977;stroke-miterlimit:4;stroke-dasharray:none;stroke-opacity:1"
       id="path4570-07"
       sodipodi:sides="7"
       sodipodi:cx="59.868374"
       sodipodi:cy="176.46144"
       sodipodi:r1="42.323208"
       sodipodi:r2="21.161604"
       sodipodi:arg1="0.48624263"
       sodipodi:arg2="0.93504158"
       inkscape:flatsided="false"
       inkscape:rounded="0"
       inkscape:randomized="0"
       d="m 97.286108,196.23939 -24.852292,-2.75082 -4.698887,24.55858 -13.344476,-21.14541 -22.130379,11.63829 8.212002,-23.61708 -22.897244,-10.04588 23.584675,-8.3046 -6.422018,-24.16529 21.197607,13.26141 14.889119,-20.08775 2.848309,24.84131 24.988445,-0.88372 -17.645824,17.71519 z"
       inkscape:transform-center-x="23.711923"
       inkscape:transform-center-y="20.985285"
       transform="matrix(-0.08789948,0.0441924,-0.04219027,-0.0839172,63.133334,148.8863)" />
    <path
       sodipodi:type="star"
       style="display:inline;opacity:1;fill:#ffffff;fill-opacity:1;stroke:none;stroke-width:9.86499977;stroke-miterlimit:4;stroke-dasharray:none;stroke-opacity:1"
       id="path4570-8"
       sodipodi:sides="7"
       sodipodi:cx="59.868374"
       sodipodi:cy="176.46144"
       sodipodi:r1="42.323208"
       sodipodi:r2="21.161604"
       sodipodi:arg1="0.48624263"
       sodipodi:arg2="0.93504158"
       inkscape:flatsided="false"
       inkscape:rounded="0"
       inkscape:randomized="0"
       d="m 97.286108,196.23939 -24.852292,-2.75082 -4.698887,24.55858 -13.344476,-21.14541 -22.130379,11.63829 8.212002,-23.61708 -22.897244,-10.04588 23.584675,-8.3046 -6.422018,-24.16529 21.197607,13.26141 14.889119,-20.08775 2.848309,24.84131 24.988445,-0.88372 -17.645824,17.71519 z"
       inkscape:transform-center-x="-0.17222182"
       inkscape:transform-center-y="-0.03311488"
       transform="matrix(-0.09838337,0,0,-0.09392611,127.20578,276.47922)" />
    <path
       sodipodi:type="star"
       style="display:inline;opacity:1;fill:#ffffff;fill-opacity:1;stroke:none;stroke-width:9.86499977;stroke-miterlimit:4;stroke-dasharray:none;stroke-opacity:1"
       id="path4570-2"
       sodipodi:sides="7"
       sodipodi:cx="59.868374"
       sodipodi:cy="176.46144"
       sodipodi:r1="42.323208"
       sodipodi:r2="21.161604"
       sodipodi:arg1="0.48624263"
       sodipodi:arg2="0.93504158"
       inkscape:flatsided="false"
       inkscape:rounded="0"
       inkscape:randomized="0"
       d="m 97.286108,196.23939 -24.852292,-2.75082 -4.698887,24.55858 -13.344476,-21.14541 -22.130379,11.63829 8.212002,-23.61708 -22.897244,-10.04588 23.584675,-8.3046 -6.422018,-24.16529 21.197607,13.26141 14.889119,-20.08775 2.848309,24.84131 24.988445,-0.88372 -17.645824,17.71519 z"
       inkscape:transform-center-x="24.376128"
       inkscape:transform-center-y="11.313646"
       transform="matrix(-0.08789948,0.0441924,-0.04219027,-0.0839172,162.64936,264.09211)" />
    <path
       sodipodi:type="star"
       style="display:inline;opacity:1;fill:#ffffff;fill-opacity:1;stroke:none;stroke-width:9.86499977;stroke-miterlimit:4;stroke-dasharray:none;stroke-opacity:1"
       id="path4570-01"
       sodipodi:sides="7"
       sodipodi:cx="59.868374"
       sodipodi:cy="176.46144"
       sodipodi:r1="42.323208"
       sodipodi:r2="21.161604"
       sodipodi:arg1="0.48624263"
       sodipodi:arg2="0.93504158"
       inkscape:flatsided="false"
       inkscape:rounded="0"
       inkscape:randomized="0"
       d="m 97.286108,196.23939 -24.852292,-2.75082 -4.698887,24.55858 -13.344476,-21.14541 -22.130379,11.63829 8.212002,-23.61708 -22.897244,-10.04588 23.584675,-8.3046 -6.422018,-24.16529 21.197607,13.26141 14.889119,-20.08775 2.848309,24.84131 24.988445,-0.88372 -17.645824,17.71519 z"
       inkscape:transform-center-x="-9.9382188"
       inkscape:transform-center-y="43.498436"
       transform="matrix(-0.08789948,0.0441924,-0.04219027,-0.0839172,137.20385,133.22952)" />
    <path
       sodipodi:type="star"
       style="display:inline;opacity:1;fill:#ffffff;fill-opacity:1;stroke:none;stroke-width:9.86499977;stroke-miterlimit:4;stroke-dasharray:none;stroke-opacity:1"
       id="path4570-9"
       sodipodi:sides="7"
       sodipodi:cx="59.868374"
       sodipodi:cy="176.46144"
       sodipodi:r1="42.323208"
       sodipodi:r2="21.161604"
       sodipodi:arg1="0.48624263"
       sodipodi:arg2="0.93504158"
       inkscape:flatsided="false"
       inkscape:rounded="0"
       inkscape:randomized="0"
       d="m 97.286108,196.23939 -24.852292,-2.75082 -4.698887,24.55858 -13.344476,-21.14541 -22.130379,11.63829 8.212002,-23.61708 -22.897244,-10.04588 23.584675,-8.3046 -6.422018,-24.16529 21.197607,13.26141 14.889119,-20.08775 2.848309,24.84131 24.988445,-0.88372 -17.645824,17.71519 z"
       inkscape:transform-center-x="-0.17222182"
       inkscape:transform-center-y="-0.03311488"
       transform="matrix(-0.09838337,0,0,-0.09392611,98.178823,272.44939)" />
    <path
       sodipodi:type="star"
       style="display:inline;opacity:1;fill:#ffffff;fill-opacity:1;stroke:none;stroke-width:9.86499977;stroke-miterlimit:4;stroke-dasharray:none;stroke-opacity:1"
       id="path4570-25"
       sodipodi:sides="7"
       sodipodi:cx="59.868374"
       sodipodi:cy="176.46144"
       sodipodi:r1="42.323208"
       sodipodi:r2="21.161604"
       sodipodi:arg1="0.48624263"
       sodipodi:arg2="0.93504158"
       inkscape:flatsided="false"
       inkscape:rounded="0"
       inkscape:randomized="0"
       d="m 97.286108,196.23939 -24.852292,-2.75082 -4.698887,24.55858 -13.344476,-21.14541 -22.130379,11.63829 8.212002,-23.61708 -22.897244,-10.04588 23.584675,-8.3046 -6.422018,-24.16529 21.197607,13.26141 14.889119,-20.08775 2.848309,24.84131 24.988445,-0.88372 -17.645824,17.71519 z"
       inkscape:transform-center-x="-1.3446818"
       inkscape:transform-center-y="35.003025"
       transform="matrix(-0.08789948,0.0441924,-0.04219027,-0.0839172,169.88188,210.08328)" />
    <path
       sodipodi:type="star"
       style="display:inline;opacity:1;fill:#ffffff;fill-opacity:1;stroke:none;stroke-width:9.86499977;stroke-miterlimit:4;stroke-dasharray:none;stroke-opacity:1"
       id="path4570-62"
       sodipodi:sides="7"
       sodipodi:cx="59.868374"
       sodipodi:cy="176.46144"
       sodipodi:r1="42.323208"
       sodipodi:r2="21.161604"
       sodipodi:arg1="0.48624263"
       sodipodi:arg2="0.93504158"
       inkscape:flatsided="false"
       inkscape:rounded="0"
       inkscape:randomized="0"
       d="m 97.286108,196.23939 -24.852292,-2.75082 -4.698887,24.55858 -13.344476,-21.14541 -22.130379,11.63829 8.212002,-23.61708 -22.897244,-10.04588 23.584675,-8.3046 -6.422018,-24.16529 21.197607,13.26141 14.889119,-20.08775 2.848309,24.84131 24.988445,-0.88372 -17.645824,17.71519 z"
       inkscape:transform-center-x="-0.17222182"
       inkscape:transform-center-y="-0.03311488"
       transform="matrix(-0.09838337,0,0,-0.09392611,90.460387,175.70539)" />
    <path
       sodipodi:type="star"
       style="display:inline;opacity:1;fill:#ffffff;fill-opacity:1;stroke:none;stroke-width:9.86499977;stroke-miterlimit:4;stroke-dasharray:none;stroke-opacity:1"
       id="path4570-32"
       sodipodi:sides="7"
       sodipodi:cx="59.868374"
       sodipodi:cy="176.46144"
       sodipodi:r1="42.323208"
       sodipodi:r2="21.161604"
       sodipodi:arg1="0.48624263"
       sodipodi:arg2="0.93504158"
       inkscape:flatsided="false"
       inkscape:rounded="0"
       inkscape:randomized="0"
       d="m 97.286108,196.23939 -24.852292,-2.75082 -4.698887,24.55858 -13.344476,-21.14541 -22.130379,11.63829 8.212002,-23.61708 -22.897244,-10.04588 23.584675,-8.3046 -6.422018,-24.16529 21.197607,13.26141 14.889119,-20.08775 2.848309,24.84131 24.988445,-0.88372 -17.645824,17.71519 z"
       inkscape:transform-center-x="-30.738029"
       inkscape:transform-center-y="18.933456"
       transform="matrix(-0.08789948,0.0441924,-0.04219027,-0.0839172,77.502749,135.64123)" />
    <path
       sodipodi:type="star"
       style="display:inline;opacity:1;fill:#ffffff;fill-opacity:1;stroke:none;stroke-width:9.86499977;stroke-miterlimit:4;stroke-dasharray:none;stroke-opacity:1"
       id="path4570-0-8"
       sodipodi:sides="7"
       sodipodi:cx="59.868374"
       sodipodi:cy="176.46144"
       sodipodi:r1="42.323208"
       sodipodi:r2="21.161604"
       sodipodi:arg1="0.48624263"
       sodipodi:arg2="0.93504158"
       inkscape:flatsided="false"
       inkscape:rounded="0"
       inkscape:randomized="0"
       d="m 97.286108,196.23939 -24.852292,-2.75082 -4.698887,24.55858 -13.344476,-21.14541 -22.130379,11.63829 8.212002,-23.61708 -22.897244,-10.04588 23.584675,-8.3046 -6.422018,-24.16529 21.197607,13.26141 14.889119,-20.08775 2.848309,24.84131 24.988445,-0.88372 -17.645824,17.71519 z"
       inkscape:transform-center-x="-0.17222182"
       inkscape:transform-center-y="-0.03311488"
       transform="matrix(-0.09838337,0,0,-0.09392611,145.85278,189.16327)" />
    <path
       sodipodi:type="star"
       style="display:inline;opacity:1;fill:#ffffff;fill-opacity:1;stroke:none;stroke-width:9.86499977;stroke-miterlimit:4;stroke-dasharray:none;stroke-opacity:1"
       id="path4570-0-3"
       sodipodi:sides="7"
       sodipodi:cx="59.868374"
       sodipodi:cy="176.46144"
       sodipodi:r1="42.323208"
       sodipodi:r2="21.161604"
       sodipodi:arg1="0.48624263"
       sodipodi:arg2="0.93504158"
       inkscape:flatsided="false"
       inkscape:rounded="0"
       inkscape:randomized="0"
       d="m 97.286108,196.23939 -24.852292,-2.75082 -4.698887,24.55858 -13.344476,-21.14541 -22.130379,11.63829 8.212002,-23.61708 -22.897244,-10.04588 23.584675,-8.3046 -6.422018,-24.16529 21.197607,13.26141 14.889119,-20.08775 2.848309,24.84131 24.988445,-0.88372 -17.645824,17.71519 z"
       inkscape:transform-center-x="-0.17222182"
       inkscape:transform-center-y="-0.03311488"
       transform="matrix(-0.09838337,0,0,-0.09392611,152.72332,241.37648)" />
    <path
       sodipodi:type="star"
       style="display:inline;opacity:1;fill:#ffffff;fill-opacity:1;stroke:none;stroke-width:9.86499977;stroke-miterlimit:4;stroke-dasharray:none;stroke-opacity:1"
       id="path4570-0-81"
       sodipodi:sides="7"
       sodipodi:cx="59.868374"
       sodipodi:cy="176.46144"
       sodipodi:r1="42.323208"
       sodipodi:r2="21.161604"
       sodipodi:arg1="0.48624263"
       sodipodi:arg2="0.93504158"
       inkscape:flatsided="false"
       inkscape:rounded="0"
       inkscape:randomized="0"
       d="m 97.286108,196.23939 -24.852292,-2.75082 -4.698887,24.55858 -13.344476,-21.14541 -22.130379,11.63829 8.212002,-23.61708 -22.897244,-10.04588 23.584675,-8.3046 -6.422018,-24.16529 21.197607,13.26141 14.889119,-20.08775 2.848309,24.84131 24.988445,-0.88372 -17.645824,17.71519 z"
       inkscape:transform-center-x="-0.17222182"
       inkscape:transform-center-y="-0.03311488"
       transform="matrix(-0.09838337,0,0,-0.09392611,170.59333,144.95188)" />
    <path
       sodipodi:type="star"
       style="display:inline;opacity:1;fill:#ffffff;fill-opacity:1;stroke:none;stroke-width:9.86499977;stroke-miterlimit:4;stroke-dasharray:none;stroke-opacity:1"
       id="path4570-0-2"
       sodipodi:sides="7"
       sodipodi:cx="59.868374"
       sodipodi:cy="176.46144"
       sodipodi:r1="42.323208"
       sodipodi:r2="21.161604"
       sodipodi:arg1="0.48624263"
       sodipodi:arg2="0.93504158"
       inkscape:flatsided="false"
       inkscape:rounded="0"
       inkscape:randomized="0"
       d="m 97.286108,196.23939 -24.852292,-2.75082 -4.698887,24.55858 -13.344476,-21.14541 -22.130379,11.63829 8.212002,-23.61708 -22.897244,-10.04588 23.584675,-8.3046 -6.422018,-24.16529 21.197607,13.26141 14.889119,-20.08775 2.848309,24.84131 24.988445,-0.88372 -17.645824,17.71519 z"
       inkscape:transform-center-x="-0.17222182"
       inkscape:transform-center-y="-0.03311488"
       transform="matrix(-0.09838337,0,0,-0.09392611,158.75814,161.42931)" />
    <path
       sodipodi:type="star"
       style="display:inline;opacity:1;fill:#ffffff;fill-opacity:1;stroke:none;stroke-width:9.86499977;stroke-miterlimit:4;stroke-dasharray:none;stroke-opacity:1"
       id="path4570-0-4"
       sodipodi:sides="7"
       sodipodi:cx="59.868374"
       sodipodi:cy="176.46144"
       sodipodi:r1="42.323208"
       sodipodi:r2="21.161604"
       sodipodi:arg1="0.48624263"
       sodipodi:arg2="0.93504158"
       inkscape:flatsided="false"
       inkscape:rounded="0"
       inkscape:randomized="0"
       d="m 97.286108,196.23939 -24.852292,-2.75082 -4.698887,24.55858 -13.344476,-21.14541 -22.130379,11.63829 8.212002,-23.61708 -22.897244,-10.04588 23.584675,-8.3046 -6.422018,-24.16529 21.197607,13.26141 14.889119,-20.08775 2.848309,24.84131 24.988445,-0.88372 -17.645824,17.71519 z"
       inkscape:transform-center-x="-0.17222182"
       inkscape:transform-center-y="-0.03311488"
       transform="matrix(-0.09838337,0,0,-0.09392611,66.731133,261.06325)" />
    <path
       sodipodi:type="star"
       style="display:inline;opacity:1;fill:#ffffff;fill-opacity:1;stroke:none;stroke-width:9.86499977;stroke-miterlimit:4;stroke-dasharray:none;stroke-opacity:1"
       id="path4570-0-06"
       sodipodi:sides="7"
       sodipodi:cx="59.868374"
       sodipodi:cy="176.46144"
       sodipodi:r1="42.323208"
       sodipodi:r2="21.161604"
       sodipodi:arg1="0.48624263"
       sodipodi:arg2="0.93504158"
       inkscape:flatsided="false"
       inkscape:rounded="0"
       inkscape:randomized="0"
       d="m 97.286108,196.23939 -24.852292,-2.75082 -4.698887,24.55858 -13.344476,-21.14541 -22.130379,11.63829 8.212002,-23.61708 -22.897244,-10.04588 23.584675,-8.3046 -6.422018,-24.16529 21.197607,13.26141 14.889119,-20.08775 2.848309,24.84131 24.988445,-0.88372 -17.645824,17.71519 z"
       inkscape:transform-center-x="-0.17222182"
       inkscape:transform-center-y="-0.03311488"
       transform="matrix(-0.09838337,0,0,-0.09392611,93.40005,131.06577)" />
    <path
       sodipodi:type="star"
       style="display:inline;opacity:1;fill:#ffffff;fill-opacity:1;stroke:none;stroke-width:9.86499977;stroke-miterlimit:4;stroke-dasharray:none;stroke-opacity:1"
       id="path4570-0-86"
       sodipodi:sides="7"
       sodipodi:cx="59.868374"
       sodipodi:cy="176.46144"
       sodipodi:r1="42.323208"
       sodipodi:r2="21.161604"
       sodipodi:arg1="0.48624263"
       sodipodi:arg2="0.93504158"
       inkscape:flatsided="false"
       inkscape:rounded="0"
       inkscape:randomized="0"
       d="m 97.286108,196.23939 -24.852292,-2.75082 -4.698887,24.55858 -13.344476,-21.14541 -22.130379,11.63829 8.212002,-23.61708 -22.897244,-10.04588 23.584675,-8.3046 -6.422018,-24.16529 21.197607,13.26141 14.889119,-20.08775 2.848309,24.84131 24.988445,-0.88372 -17.645824,17.71519 z"
       inkscape:transform-center-x="-0.17222182"
       inkscape:transform-center-y="-0.03311488"
       transform="matrix(-0.09838337,0,0,-0.09392611,91.076884,258.83355)" />
    <path
       sodipodi:type="star"
       style="display:inline;opacity:1;fill:#ffffff;fill-opacity:1;stroke:none;stroke-width:9.86499977;stroke-miterlimit:4;stroke-dasharray:none;stroke-opacity:1"
       id="path4570-0-1"
       sodipodi:sides="7"
       sodipodi:cx="59.868374"
       sodipodi:cy="176.46144"
       sodipodi:r1="42.323208"
       sodipodi:r2="21.161604"
       sodipodi:arg1="0.48624263"
       sodipodi:arg2="0.93504158"
       inkscape:flatsided="false"
       inkscape:rounded="0"
       inkscape:randomized="0"
       d="m 97.286108,196.23939 -24.852292,-2.75082 -4.698887,24.55858 -13.344476,-21.14541 -22.130379,11.63829 8.212002,-23.61708 -22.897244,-10.04588 23.584675,-8.3046 -6.422018,-24.16529 21.197607,13.26141 14.889119,-20.08775 2.848309,24.84131 24.988445,-0.88372 -17.645824,17.71519 z"
       inkscape:transform-center-x="-0.17222182"
       inkscape:transform-center-y="-0.03311488"
       transform="matrix(-0.09838337,0,0,-0.09392611,46.1563,238.88164)" />
    <path
       sodipodi:type="star"
       style="display:inline;opacity:1;fill:#ffffff;fill-opacity:1;stroke:none;stroke-width:9.86499977;stroke-miterlimit:4;stroke-dasharray:none;stroke-opacity:1"
       id="path4570-0-6"
       sodipodi:sides="7"
       sodipodi:cx="59.868374"
       sodipodi:cy="176.46144"
       sodipodi:r1="42.323208"
       sodipodi:r2="21.161604"
       sodipodi:arg1="0.48624263"
       sodipodi:arg2="0.93504158"
       inkscape:flatsided="false"
       inkscape:rounded="0"
       inkscape:randomized="0"
       d="m 97.286108,196.23939 -24.852292,-2.75082 -4.698887,24.55858 -13.344476,-21.14541 -22.130379,11.63829 8.212002,-23.61708 -22.897244,-10.04588 23.584675,-8.3046 -6.422018,-24.16529 21.197607,13.26141 14.889119,-20.08775 2.848309,24.84131 24.988445,-0.88372 -17.645824,17.71519 z"
       inkscape:transform-center-x="-0.17222182"
       inkscape:transform-center-y="-0.03311488"
       transform="matrix(-0.09838337,0,0,-0.09392611,126.50887,176.53686)" />
    <path
       sodipodi:type="star"
       style="display:inline;opacity:1;fill:#ffffff;fill-opacity:1;stroke:none;stroke-width:9.86499977;stroke-miterlimit:4;stroke-dasharray:none;stroke-opacity:1"
       id="path4570-0-5"
       sodipodi:sides="7"
       sodipodi:cx="59.868374"
       sodipodi:cy="176.46144"
       sodipodi:r1="42.323208"
       sodipodi:r2="21.161604"
       sodipodi:arg1="0.48624263"
       sodipodi:arg2="0.93504158"
       inkscape:flatsided="false"
       inkscape:rounded="0"
       inkscape:randomized="0"
       d="m 97.286108,196.23939 -24.852292,-2.75082 -4.698887,24.55858 -13.344476,-21.14541 -22.130379,11.63829 8.212002,-23.61708 -22.897244,-10.04588 23.584675,-8.3046 -6.422018,-24.16529 21.197607,13.26141 14.889119,-20.08775 2.848309,24.84131 24.988445,-0.88372 -17.645824,17.71519 z"
       inkscape:transform-center-x="-0.17222182"
       inkscape:transform-center-y="-0.03311488"
       transform="matrix(-0.09838337,0,0,-0.09392611,165.47718,179.38278)" />
    <path
       sodipodi:type="star"
       style="display:inline;opacity:1;fill:#ffffff;fill-opacity:1;stroke:none;stroke-width:9.86499977;stroke-miterlimit:4;stroke-dasharray:none;stroke-opacity:1"
       id="path4570-0-7"
       sodipodi:sides="7"
       sodipodi:cx="59.868374"
       sodipodi:cy="176.46144"
       sodipodi:r1="42.323208"
       sodipodi:r2="21.161604"
       sodipodi:arg1="0.48624263"
       sodipodi:arg2="0.93504158"
       inkscape:flatsided="false"
       inkscape:rounded="0"
       inkscape:randomized="0"
       d="m 97.286108,196.23939 -24.852292,-2.75082 -4.698887,24.55858 -13.344476,-21.14541 -22.130379,11.63829 8.212002,-23.61708 -22.897244,-10.04588 23.584675,-8.3046 -6.422018,-24.16529 21.197607,13.26141 14.889119,-20.08775 2.848309,24.84131 24.988445,-0.88372 -17.645824,17.71519 z"
       inkscape:transform-center-x="-0.17222182"
       inkscape:transform-center-y="-0.03311488"
       transform="matrix(-0.09838337,0,0,-0.09392611,120.88735,115.72992)" />
    <path
       sodipodi:type="star"
       style="display:inline;opacity:1;fill:#ffffff;fill-opacity:1;stroke:none;stroke-width:9.86499977;stroke-miterlimit:4;stroke-dasharray:none;stroke-opacity:1"
       id="path4570-0-14"
       sodipodi:sides="7"
       sodipodi:cx="59.868374"
       sodipodi:cy="176.46144"
       sodipodi:r1="42.323208"
       sodipodi:r2="21.161604"
       sodipodi:arg1="0.48624263"
       sodipodi:arg2="0.93504158"
       inkscape:flatsided="false"
       inkscape:rounded="0"
       inkscape:randomized="0"
       d="m 97.286108,196.23939 -24.852292,-2.75082 -4.698887,24.55858 -13.344476,-21.14541 -22.130379,11.63829 8.212002,-23.61708 -22.897244,-10.04588 23.584675,-8.3046 -6.422018,-24.16529 21.197607,13.26141 14.889119,-20.08775 2.848309,24.84131 24.988445,-0.88372 -17.645824,17.71519 z"
       inkscape:transform-center-x="-0.17222182"
       inkscape:transform-center-y="-0.03311488"
       transform="matrix(-0.09838337,0,0,-0.09392611,49.889583,137.61928)" />
    <path
       sodipodi:type="star"
       style="display:inline;opacity:1;fill:#ffffff;fill-opacity:1;stroke:none;stroke-width:9.86499977;stroke-miterlimit:4;stroke-dasharray:none;stroke-opacity:1"
       id="path4570-0-48"
       sodipodi:sides="7"
       sodipodi:cx="59.868374"
       sodipodi:cy="176.46144"
       sodipodi:r1="42.323208"
       sodipodi:r2="21.161604"
       sodipodi:arg1="0.48624263"
       sodipodi:arg2="0.93504158"
       inkscape:flatsided="false"
       inkscape:rounded="0"
       inkscape:randomized="0"
       d="m 97.286108,196.23939 -24.852292,-2.75082 -4.698887,24.55858 -13.344476,-21.14541 -22.130379,11.63829 8.212002,-23.61708 -22.897244,-10.04588 23.584675,-8.3046 -6.422018,-24.16529 21.197607,13.26141 14.889119,-20.08775 2.848309,24.84131 24.988445,-0.88372 -17.645824,17.71519 z"
       inkscape:transform-center-x="-0.17222182"
       inkscape:transform-center-y="-0.03311488"
       transform="matrix(-0.09838337,0,0,-0.09392611,37.05976,253.3928)" />
    <path
       sodipodi:type="star"
       style="display:inline;opacity:1;fill:#ffffff;fill-opacity:1;stroke:none;stroke-width:9.86499977;stroke-miterlimit:4;stroke-dasharray:none;stroke-opacity:1"
       id="path4570-0-79"
       sodipodi:sides="7"
       sodipodi:cx="59.868374"
       sodipodi:cy="176.46144"
       sodipodi:r1="42.323208"
       sodipodi:r2="21.161604"
       sodipodi:arg1="0.48624263"
       sodipodi:arg2="0.93504158"
       inkscape:flatsided="false"
       inkscape:rounded="0"
       inkscape:randomized="0"
       d="m 97.286108,196.23939 -24.852292,-2.75082 -4.698887,24.55858 -13.344476,-21.14541 -22.130379,11.63829 8.212002,-23.61708 -22.897244,-10.04588 23.584675,-8.3046 -6.422018,-24.16529 21.197607,13.26141 14.889119,-20.08775 2.848309,24.84131 24.988445,-0.88372 -17.645824,17.71519 z"
       inkscape:transform-center-x="-0.17222182"
       inkscape:transform-center-y="-0.03311488"
       transform="matrix(-0.09838337,0,0,-0.09392611,184.91397,225.611)" />
    <path
       sodipodi:type="star"
       style="display:inline;opacity:1;fill:#ffffff;fill-opacity:1;stroke:none;stroke-width:9.86499977;stroke-miterlimit:4;stroke-dasharray:none;stroke-opacity:1"
       id="path4570-0-92"
       sodipodi:sides="7"
       sodipodi:cx="59.868374"
       sodipodi:cy="176.46144"
       sodipodi:r1="42.323208"
       sodipodi:r2="21.161604"
       sodipodi:arg1="0.48624263"
       sodipodi:arg2="0.93504158"
       inkscape:flatsided="false"
       inkscape:rounded="0"
       inkscape:randomized="0"
       d="m 97.286108,196.23939 -24.852292,-2.75082 -4.698887,24.55858 -13.344476,-21.14541 -22.130379,11.63829 8.212002,-23.61708 -22.897244,-10.04588 23.584675,-8.3046 -6.422018,-24.16529 21.197607,13.26141 14.889119,-20.08775 2.848309,24.84131 24.988445,-0.88372 -17.645824,17.71519 z"
       inkscape:transform-center-x="-0.17222182"
       inkscape:transform-center-y="-0.03311488"
       transform="matrix(-0.09838337,0,0,-0.09392611,118.49154,135.94382)" />
    <path
       sodipodi:type="star"
       style="display:inline;opacity:1;fill:#ffffff;fill-opacity:1;stroke:none;stroke-width:9.86499977;stroke-miterlimit:4;stroke-dasharray:none;stroke-opacity:1"
       id="path4570-0-99"
       sodipodi:sides="7"
       sodipodi:cx="59.868374"
       sodipodi:cy="176.46144"
       sodipodi:r1="42.323208"
       sodipodi:r2="21.161604"
       sodipodi:arg1="0.48624263"
       sodipodi:arg2="0.93504158"
       inkscape:flatsided="false"
       inkscape:rounded="0"
       inkscape:randomized="0"
       d="m 97.286108,196.23939 -24.852292,-2.75082 -4.698887,24.55858 -13.344476,-21.14541 -22.130379,11.63829 8.212002,-23.61708 -22.897244,-10.04588 23.584675,-8.3046 -6.422018,-24.16529 21.197607,13.26141 14.889119,-20.08775 2.848309,24.84131 24.988445,-0.88372 -17.645824,17.71519 z"
       inkscape:transform-center-x="-0.17222182"
       inkscape:transform-center-y="-0.03311488"
       transform="matrix(-0.09838337,0,0,-0.09392611,49.27905,215.90731)" />
    <path
       sodipodi:type="star"
       style="display:inline;opacity:1;fill:#ffffff;fill-opacity:1;stroke:none;stroke-width:9.86499977;stroke-miterlimit:4;stroke-dasharray:none;stroke-opacity:1"
       id="path4570-0-57"
       sodipodi:sides="7"
       sodipodi:cx="59.868374"
       sodipodi:cy="176.46144"
       sodipodi:r1="42.323208"
       sodipodi:r2="21.161604"
       sodipodi:arg1="0.48624263"
       sodipodi:arg2="0.93504158"
       inkscape:flatsided="false"
       inkscape:rounded="0"
       inkscape:randomized="0"
       d="m 97.286108,196.23939 -24.852292,-2.75082 -4.698887,24.55858 -13.344476,-21.14541 -22.130379,11.63829 8.212002,-23.61708 -22.897244,-10.04588 23.584675,-8.3046 -6.422018,-24.16529 21.197607,13.26141 14.889119,-20.08775 2.848309,24.84131 24.988445,-0.88372 -17.645824,17.71519 z"
       inkscape:transform-center-x="-0.17222182"
       inkscape:transform-center-y="-0.03311488"
       transform="matrix(-0.09838337,0,0,-0.09392611,177.61359,192.89302)" />
    <path
       sodipodi:type="star"
       style="display:inline;opacity:1;fill:#ffffff;fill-opacity:1;stroke:none;stroke-width:9.86499977;stroke-miterlimit:4;stroke-dasharray:none;stroke-opacity:1"
       id="path4570-0-08"
       sodipodi:sides="7"
       sodipodi:cx="59.868374"
       sodipodi:cy="176.46144"
       sodipodi:r1="42.323208"
       sodipodi:r2="21.161604"
       sodipodi:arg1="0.48624263"
       sodipodi:arg2="0.93504158"
       inkscape:flatsided="false"
       inkscape:rounded="0"
       inkscape:randomized="0"
       d="m 97.286108,196.23939 -24.852292,-2.75082 -4.698887,24.55858 -13.344476,-21.14541 -22.130379,11.63829 8.212002,-23.61708 -22.897244,-10.04588 23.584675,-8.3046 -6.422018,-24.16529 21.197607,13.26141 14.889119,-20.08775 2.848309,24.84131 24.988445,-0.88372 -17.645824,17.71519 z"
       inkscape:transform-center-x="-0.17222182"
       inkscape:transform-center-y="-0.03311488"
       transform="matrix(-0.09838337,0,0,-0.09392611,24.437137,207.89097)" />
    <path
       sodipodi:type="star"
       style="display:inline;opacity:1;fill:#ffffff;fill-opacity:1;stroke:none;stroke-width:9.86499977;stroke-miterlimit:4;stroke-dasharray:none;stroke-opacity:1"
       id="path4570-0-67"
       sodipodi:sides="7"
       sodipodi:cx="59.868374"
       sodipodi:cy="176.46144"
       sodipodi:r1="42.323208"
       sodipodi:r2="21.161604"
       sodipodi:arg1="0.48624263"
       sodipodi:arg2="0.93504158"
       inkscape:flatsided="false"
       inkscape:rounded="0"
       inkscape:randomized="0"
       d="m 97.286108,196.23939 -24.852292,-2.75082 -4.698887,24.55858 -13.344476,-21.14541 -22.130379,11.63829 8.212002,-23.61708 -22.897244,-10.04588 23.584675,-8.3046 -6.422018,-24.16529 21.197607,13.26141 14.889119,-20.08775 2.848309,24.84131 24.988445,-0.88372 -17.645824,17.71519 z"
       inkscape:transform-center-x="-0.17222182"
       inkscape:transform-center-y="-0.03311488"
       transform="matrix(-0.09838337,0,0,-0.09392611,34.174884,167.27684)" />
    <path
       sodipodi:type="star"
       style="display:inline;opacity:1;fill:#ffffff;fill-opacity:1;stroke:none;stroke-width:9.86499977;stroke-miterlimit:4;stroke-dasharray:none;stroke-opacity:1"
       id="path4570-0-23"
       sodipodi:sides="7"
       sodipodi:cx="59.868374"
       sodipodi:cy="176.46144"
       sodipodi:r1="42.323208"
       sodipodi:r2="21.161604"
       sodipodi:arg1="0.48624263"
       sodipodi:arg2="0.93504158"
       inkscape:flatsided="false"
       inkscape:rounded="0"
       inkscape:randomized="0"
       d="m 97.286108,196.23939 -24.852292,-2.75082 -4.698887,24.55858 -13.344476,-21.14541 -22.130379,11.63829 8.212002,-23.61708 -22.897244,-10.04588 23.584675,-8.3046 -6.422018,-24.16529 21.197607,13.26141 14.889119,-20.08775 2.848309,24.84131 24.988445,-0.88372 -17.645824,17.71519 z"
       inkscape:transform-center-x="-0.17222182"
       inkscape:transform-center-y="-0.03311488"
       transform="matrix(-0.09838337,0,0,-0.09392611,115.50115,227.76702)" />
    <flowRoot
       xml:space="preserve"
       id="flowRoot1084"
       style="font-style:normal;font-weight:normal;font-size:400px;line-height:1.25;font-family:sans-serif;letter-spacing:0px;word-spacing:0px;fill:#181818;fill-opacity:1;stroke:none;"
       transform="matrix(0.36341222,0,0,0.36341222,-140.64552,43.294391)"><flowRegion
         id="flowRegion1086"
         style="fill:#181818;fill-opacity:1;"><rect
           id="rect1088"
           width="1597.027"
           height="549.7901"
           x="972"
           y="127.90552"
           style="fill:#181818;fill-opacity:1;" /></flowRegion><flowPara
         id="flowPara1090"
         style="font-style:normal;font-variant:normal;font-weight:normal;font-stretch:normal;font-size:333.33334351px;line-height:0;font-family:'Indie Flower';-inkscape-font-specification:'Indie Flower';text-align:center;text-anchor:middle;fill:#181818;fill-opacity:1;"><flowSpan
   style="fill:#181818;fill-opacity:1;"
   id="flowSpan1092">dream</flowSpan>alyze</flowPara></flowRoot>  </g>
  <g
     inkscape:groupmode="layer"
     id="layer3"
     inkscape:label="Middle"
     style="display:inline"
     transform="translate(0,20)">
    <g
       id="g1029"
       transform="matrix(4.5443852,0,0,4.5443852,68.343792,33.031238)">
      <path
         id="path1015"
         d="M 0,0 H 24 V 24 H 0 Z"
         inkscape:connector-curvature="0"
         style="fill:none" />
      <path
         id="path1017"
         d="M 12.372406,1.9999999 H 0.37240648 c -1.1,0 -1.99999998,0.9 -1.99999998,2 V 20 c 0,1.1 0.89999998,2 1.99999998,2 H 12.372406 c 1.1,0 2,-0.9 2,-2 V 3.9999999 c 0,-1.1 -0.9,-2 -2,-2 z m -11.99999952,2 H 5.3724065 V 12 l -2.5,-1.5 -2.50000002,1.5 z"
         inkscape:connector-curvature="0"
         style="fill:#f6b600;fill-opacity:0.87323946" />
    </g>
    <flowRoot
       xml:space="preserve"
       id="flowRoot1067"
       style="font-style:normal;font-weight:normal;font-size:40px;line-height:1.25;font-family:sans-serif;letter-spacing:0px;word-spacing:0px;fill:#000000;fill-opacity:1;stroke:none"
       transform="matrix(0.47570002,0,0,0.47570002,-69.409377,-113.23702)"><flowRegion
         id="flowRegion1069"><rect
           id="rect1071"
           width="102.92379"
           height="62.329597"
           x="304.05591"
           y="446.19275" /></flowRegion><flowPara
         id="flowPara1073"
         style="font-style:normal;font-variant:normal;font-weight:normal;font-stretch:normal;font-family:'Indie Flower';-inkscape-font-specification:'Indie Flower';letter-spacing:2.75874138px">diary</flowPara></flowRoot>    <path
       style="fill:#000000;fill-opacity:1;stroke:none;stroke-width:0.26458332px;stroke-linecap:butt;stroke-linejoin:miter;stroke-opacity:1"
       d="m 100.37635,69.462702 11.97367,-0.748353 13.47038,0.935443 z"
       id="path1075"
       inkscape:connector-curvature="0" />
    <path
       style="fill:#000000;fill-opacity:1;stroke:none;stroke-width:0.21603136px;stroke-linecap:butt;stroke-linejoin:miter;stroke-opacity:1"
       d="m 100.75098,77.9299 11.03823,0.748354 9.9157,-0.87308 h 3.74177 l -0.74835,-0.623628 z"
       id="path1077"
       inkscape:connector-curvature="0" />
    <path
       style="fill:#000000;fill-opacity:1;stroke:none;stroke-width:0.3429603px;stroke-linecap:butt;stroke-linejoin:miter;stroke-opacity:1"
       d="m 99.471676,61.08983 17.995024,0.01503 9.25928,-1.341246 -25.90041,1.326226 z"
       id="path1079"
       inkscape:connector-curvature="0" />
  </g>
</svg>
