<?xml version="1.0" encoding="UTF-8" standalone="no"?>
<!-- Created with Inkscape (http://www.inkscape.org/) -->

<svg
   xmlns:dc="http://purl.org/dc/elements/1.1/"
   xmlns:cc="http://creativecommons.org/ns#"
   xmlns:rdf="http://www.w3.org/1999/02/22-rdf-syntax-ns#"
   xmlns:svg="http://www.w3.org/2000/svg"
   xmlns="http://www.w3.org/2000/svg"
   xmlns:xlink="http://www.w3.org/1999/xlink"
   xmlns:sodipodi="http://sodipodi.sourceforge.net/DTD/sodipodi-0.dtd"
   xmlns:inkscape="http://www.inkscape.org/namespaces/inkscape"
   width="220mm"
   height="220mm"
   viewBox="0 0 220 220"
   version="1.1"
   id="svg8"
   sodipodi:docname="logo_small.svg"
   inkscape:version="0.92.3 (2405546, 2018-03-11)">
  <defs
     id="defs2">
    <linearGradient
       inkscape:collect="always"
       id="linearGradient4566">
      <stop
         style="stop-color:#003c63;stop-opacity:1"
         offset="0"
         id="stop4562" />
      <stop
         style="stop-color:#005084;stop-opacity:1"
         offset="1"
         id="stop4564" />
    </linearGradient>
    <linearGradient
       inkscape:collect="always"
       xlink:href="#linearGradient4566"
       id="linearGradient4568"
       x1="10.865616"
       y1="197"
       x2="189.13438"
       y2="197"
       gradientUnits="userSpaceOnUse"
       gradientTransform="translate(35.718984,-239.19429)" />
  </defs>
  <sodipodi:namedview
     id="base"
     pagecolor="#ffffff"
     bordercolor="#666666"
     borderopacity="1.0"
     inkscape:pageopacity="0.0"
     inkscape:pageshadow="2"
     inkscape:zoom="0.35355339"
     inkscape:cx="1800.9113"
     inkscape:cy="301.59991"
     inkscape:document-units="mm"
     inkscape:current-layer="layer1"
     showgrid="false"
     inkscape:window-width="2560"
     inkscape:window-height="1377"
     inkscape:window-x="2992"
     inkscape:window-y="725"
     inkscape:window-maximized="1"
     showguides="true"
     inkscape:guide-bbox="true" />
  <metadata
     id="metadata5">
    <rdf:RDF>
      <cc:Work
         rdf:about="">
        <dc:format>image/svg+xml</dc:format>
        <dc:type
           rdf:resource="http://purl.org/dc/dcmitype/StillImage" />
        <dc:title></dc:title>
      </cc:Work>
    </rdf:RDF>
  </metadata>
  <g
     inkscape:groupmode="layer"
     id="layer2"
     inkscape:label="Back"
     style="display:inline"
     transform="translate(0,20)">
    <circle
       style="opacity:1;fill:url(#linearGradient4568);fill-opacity:1;stroke:#181818;stroke-width:5.96500015;stroke-miterlimit:4;stroke-dasharray:none;stroke-opacity:1"
       id="path4518"
       cx="135.71898"
       cy="-42.194283"
       r="89.134384"
       transform="rotate(56.559587)" />
  </g>
  <g
     inkscape:label="Ebene 1"
     inkscape:groupmode="layer"
     id="layer1"
     transform="translate(0,-77)"
     style="display:inline">
    <path
       style="opacity:1;fill:#fffffb;fill-opacity:1;stroke:none;stroke-width:4.73537016;stroke-miterlimit:4;stroke-dasharray:none;stroke-opacity:1"
       d="m 65.970111,186.21338 a 17.194818,20.125702 64.157964 0 1 -24.181668,-7.33049 17.194818,20.125702 64.157964 0 1 9.2559,-23.51493 21.680911,21.401586 64.157964 0 0 -0.02493,19.04414 21.680911,21.401586 64.157964 0 0 14.950693,11.80128 z"
       id="path4655"
       inkscape:connector-curvature="0" />
    <path
       sodipodi:type="star"
       style="display:inline;opacity:1;fill:#ffffff;fill-opacity:1;stroke:none;stroke-width:9.86499977;stroke-miterlimit:4;stroke-dasharray:none;stroke-opacity:1"
       id="path4570"
       sodipodi:sides="7"
       sodipodi:cx="59.868374"
       sodipodi:cy="176.46144"
       sodipodi:r1="42.323208"
       sodipodi:r2="21.161604"
       sodipodi:arg1="0.48624263"
       sodipodi:arg2="0.93504158"
       inkscape:flatsided="false"
       inkscape:rounded="0"
       inkscape:randomized="0"
       d="m 97.286108,196.23939 -24.852292,-2.75082 -4.698887,24.55858 -13.344476,-21.14541 -22.130379,11.63829 8.212002,-23.61708 -22.897244,-10.04588 23.584675,-8.3046 -6.422018,-24.16529 21.197607,13.26141 14.889119,-20.08775 2.848309,24.84131 24.988445,-0.88372 -17.645824,17.71519 z"
       inkscape:transform-center-x="-9.2939689"
       inkscape:transform-center-y="4.7545161"
       transform="matrix(-0.08789948,0.0441924,-0.04219027,-0.0839172,40.53114,169.62035)" />
    <path
       sodipodi:type="star"
       style="display:inline;opacity:1;fill:#ffffff;fill-opacity:1;stroke:none;stroke-width:9.86499977;stroke-miterlimit:4;stroke-dasharray:none;stroke-opacity:1"
       id="path4570-1"
       sodipodi:sides="7"
       sodipodi:cx="59.868374"
       sodipodi:cy="176.46144"
       sodipodi:r1="42.323208"
       sodipodi:r2="21.161604"
       sodipodi:arg1="0.48624263"
       sodipodi:arg2="0.93504158"
       inkscape:flatsided="false"
       inkscape:rounded="0"
       inkscape:randomized="0"
       d="m 97.286108,196.23939 -24.852292,-2.75082 -4.698887,24.55858 -13.344476,-21.14541 -22.130379,11.63829 8.212002,-23.61708 -22.897244,-10.04588 23.584675,-8.3046 -6.422018,-24.16529 21.197607,13.26141 14.889119,-20.08775 2.848309,24.84131 24.988445,-0.88372 -17.645824,17.71519 z"
       inkscape:transform-center-x="-36.278629"
       inkscape:transform-center-y="-5.1428038"
       transform="matrix(-0.08789948,0.0441924,-0.04219027,-0.0839172,171.9019,146.66486)" />
    <path
       sodipodi:type="star"
       style="display:inline;opacity:1;fill:#ffffff;fill-opacity:1;stroke:none;stroke-width:9.86499977;stroke-miterlimit:4;stroke-dasharray:none;stroke-opacity:1"
       id="path4570-0"
       sodipodi:sides="7"
       sodipodi:cx="59.868374"
       sodipodi:cy="176.46144"
       sodipodi:r1="42.323208"
       sodipodi:r2="21.161604"
       sodipodi:arg1="0.48624263"
       sodipodi:arg2="0.93504158"
       inkscape:flatsided="false"
       inkscape:rounded="0"
       inkscape:randomized="0"
       d="m 97.286108,196.23939 -24.852292,-2.75082 -4.698887,24.55858 -13.344476,-21.14541 -22.130379,11.63829 8.212002,-23.61708 -22.897244,-10.04588 23.584675,-8.3046 -6.422018,-24.16529 21.197607,13.26141 14.889119,-20.08775 2.848309,24.84131 24.988445,-0.88372 -17.645824,17.71519 z"
       inkscape:transform-center-x="-0.17222182"
       inkscape:transform-center-y="-0.03311488"
       transform="matrix(-0.09838337,0,0,-0.09392611,114.94955,210.56452)" />
    <path
       sodipodi:type="star"
       style="display:inline;opacity:1;fill:#ffffff;fill-opacity:1;stroke:none;stroke-width:9.86499977;stroke-miterlimit:4;stroke-dasharray:none;stroke-opacity:1"
       id="path4570-4"
       sodipodi:sides="7"
       sodipodi:cx="59.868374"
       sodipodi:cy="176.46144"
       sodipodi:r1="42.323208"
       sodipodi:r2="21.161604"
       sodipodi:arg1="0.48624263"
       sodipodi:arg2="0.93504158"
       inkscape:flatsided="false"
       inkscape:rounded="0"
       inkscape:randomized="0"
       d="m 97.286108,196.23939 -24.852292,-2.75082 -4.698887,24.55858 -13.344476,-21.14541 -22.130379,11.63829 8.212002,-23.61708 -22.897244,-10.04588 23.584675,-8.3046 -6.422018,-24.16529 21.197607,13.26141 14.889119,-20.08775 2.848309,24.84131 24.988445,-0.88372 -17.645824,17.71519 z"
       inkscape:transform-center-x="-0.17222182"
       inkscape:transform-center-y="-0.03311488"
       transform="matrix(-0.09838337,0,0,-0.09392611,120.37981,163.02096)" />
    <path
       sodipodi:type="star"
       style="display:inline;opacity:1;fill:#ffffff;fill-opacity:1;stroke:none;stroke-width:9.86499977;stroke-miterlimit:4;stroke-dasharray:none;stroke-opacity:1"
       id="path4570-16"
       sodipodi:sides="7"
       sodipodi:cx="59.868374"
       sodipodi:cy="176.46144"
       sodipodi:r1="42.323208"
       sodipodi:r2="21.161604"
       sodipodi:arg1="0.48624263"
       sodipodi:arg2="0.93504158"
       inkscape:flatsided="false"
       inkscape:rounded="0"
       inkscape:randomized="0"
       d="m 97.286108,196.23939 -24.852292,-2.75082 -4.698887,24.55858 -13.344476,-21.14541 -22.130379,11.63829 8.212002,-23.61708 -22.897244,-10.04588 23.584675,-8.3046 -6.422018,-24.16529 21.197607,13.26141 14.889119,-20.08775 2.848309,24.84131 24.988445,-0.88372 -17.645824,17.71519 z"
       inkscape:transform-center-x="23.4991"
       inkscape:transform-center-y="37.464275"
       transform="matrix(-0.08789948,0.0441924,-0.04219027,-0.0839172,156.22924,258.35362)" />
    <path
       sodipodi:type="star"
       style="display:inline;opacity:1;fill:#ffffff;fill-opacity:1;stroke:none;stroke-width:9.86499977;stroke-miterlimit:4;stroke-dasharray:none;stroke-opacity:1"
       id="path4570-07"
       sodipodi:sides="7"
       sodipodi:cx="59.868374"
       sodipodi:cy="176.46144"
       sodipodi:r1="42.323208"
       sodipodi:r2="21.161604"
       sodipodi:arg1="0.48624263"
       sodipodi:arg2="0.93504158"
       inkscape:flatsided="false"
       inkscape:rounded="0"
       inkscape:randomized="0"
       d="m 97.286108,196.23939 -24.852292,-2.75082 -4.698887,24.55858 -13.344476,-21.14541 -22.130379,11.63829 8.212002,-23.61708 -22.897244,-10.04588 23.584675,-8.3046 -6.422018,-24.16529 21.197607,13.26141 14.889119,-20.08775 2.848309,24.84131 24.988445,-0.88372 -17.645824,17.71519 z"
       inkscape:transform-center-x="23.711923"
       inkscape:transform-center-y="20.985285"
       transform="matrix(-0.08789948,0.0441924,-0.04219027,-0.0839172,75.830898,151.32244)" />
    <path
       sodipodi:type="star"
       style="display:inline;opacity:1;fill:#ffffff;fill-opacity:1;stroke:none;stroke-width:9.86499977;stroke-miterlimit:4;stroke-dasharray:none;stroke-opacity:1"
       id="path4570-8"
       sodipodi:sides="7"
       sodipodi:cx="59.868374"
       sodipodi:cy="176.46144"
       sodipodi:r1="42.323208"
       sodipodi:r2="21.161604"
       sodipodi:arg1="0.48624263"
       sodipodi:arg2="0.93504158"
       inkscape:flatsided="false"
       inkscape:rounded="0"
       inkscape:randomized="0"
       d="m 97.286108,196.23939 -24.852292,-2.75082 -4.698887,24.55858 -13.344476,-21.14541 -22.130379,11.63829 8.212002,-23.61708 -22.897244,-10.04588 23.584675,-8.3046 -6.422018,-24.16529 21.197607,13.26141 14.889119,-20.08775 2.848309,24.84131 24.988445,-0.88372 -17.645824,17.71519 z"
       inkscape:transform-center-x="-0.17222182"
       inkscape:transform-center-y="-0.03311488"
       transform="matrix(-0.09838337,0,0,-0.09392611,139.90334,278.91536)" />
    <path
       sodipodi:type="star"
       style="display:inline;opacity:1;fill:#ffffff;fill-opacity:1;stroke:none;stroke-width:9.86499977;stroke-miterlimit:4;stroke-dasharray:none;stroke-opacity:1"
       id="path4570-2"
       sodipodi:sides="7"
       sodipodi:cx="59.868374"
       sodipodi:cy="176.46144"
       sodipodi:r1="42.323208"
       sodipodi:r2="21.161604"
       sodipodi:arg1="0.48624263"
       sodipodi:arg2="0.93504158"
       inkscape:flatsided="false"
       inkscape:rounded="0"
       inkscape:randomized="0"
       d="m 97.286108,196.23939 -24.852292,-2.75082 -4.698887,24.55858 -13.344476,-21.14541 -22.130379,11.63829 8.212002,-23.61708 -22.897244,-10.04588 23.584675,-8.3046 -6.422018,-24.16529 21.197607,13.26141 14.889119,-20.08775 2.848309,24.84131 24.988445,-0.88372 -17.645824,17.71519 z"
       inkscape:transform-center-x="24.376128"
       inkscape:transform-center-y="11.313646"
       transform="matrix(-0.08789948,0.0441924,-0.04219027,-0.0839172,175.34692,266.52825)" />
    <path
       sodipodi:type="star"
       style="display:inline;opacity:1;fill:#ffffff;fill-opacity:1;stroke:none;stroke-width:9.86499977;stroke-miterlimit:4;stroke-dasharray:none;stroke-opacity:1"
       id="path4570-01"
       sodipodi:sides="7"
       sodipodi:cx="59.868374"
       sodipodi:cy="176.46144"
       sodipodi:r1="42.323208"
       sodipodi:r2="21.161604"
       sodipodi:arg1="0.48624263"
       sodipodi:arg2="0.93504158"
       inkscape:flatsided="false"
       inkscape:rounded="0"
       inkscape:randomized="0"
       d="m 97.286108,196.23939 -24.852292,-2.75082 -4.698887,24.55858 -13.344476,-21.14541 -22.130379,11.63829 8.212002,-23.61708 -22.897244,-10.04588 23.584675,-8.3046 -6.422018,-24.16529 21.197607,13.26141 14.889119,-20.08775 2.848309,24.84131 24.988445,-0.88372 -17.645824,17.71519 z"
       inkscape:transform-center-x="-9.9382188"
       inkscape:transform-center-y="43.498436"
       transform="matrix(-0.08789948,0.0441924,-0.04219027,-0.0839172,149.90141,135.66566)" />
    <path
       sodipodi:type="star"
       style="display:inline;opacity:1;fill:#ffffff;fill-opacity:1;stroke:none;stroke-width:9.86499977;stroke-miterlimit:4;stroke-dasharray:none;stroke-opacity:1"
       id="path4570-9"
       sodipodi:sides="7"
       sodipodi:cx="59.868374"
       sodipodi:cy="176.46144"
       sodipodi:r1="42.323208"
       sodipodi:r2="21.161604"
       sodipodi:arg1="0.48624263"
       sodipodi:arg2="0.93504158"
       inkscape:flatsided="false"
       inkscape:rounded="0"
       inkscape:randomized="0"
       d="m 97.286108,196.23939 -24.852292,-2.75082 -4.698887,24.55858 -13.344476,-21.14541 -22.130379,11.63829 8.212002,-23.61708 -22.897244,-10.04588 23.584675,-8.3046 -6.422018,-24.16529 21.197607,13.26141 14.889119,-20.08775 2.848309,24.84131 24.988445,-0.88372 -17.645824,17.71519 z"
       inkscape:transform-center-x="-0.17222182"
       inkscape:transform-center-y="-0.03311488"
       transform="matrix(-0.09838337,0,0,-0.09392611,110.87639,274.88553)" />
    <path
       sodipodi:type="star"
       style="display:inline;opacity:1;fill:#ffffff;fill-opacity:1;stroke:none;stroke-width:9.86499977;stroke-miterlimit:4;stroke-dasharray:none;stroke-opacity:1"
       id="path4570-25"
       sodipodi:sides="7"
       sodipodi:cx="59.868374"
       sodipodi:cy="176.46144"
       sodipodi:r1="42.323208"
       sodipodi:r2="21.161604"
       sodipodi:arg1="0.48624263"
       sodipodi:arg2="0.93504158"
       inkscape:flatsided="false"
       inkscape:rounded="0"
       inkscape:randomized="0"
       d="m 97.286108,196.23939 -24.852292,-2.75082 -4.698887,24.55858 -13.344476,-21.14541 -22.130379,11.63829 8.212002,-23.61708 -22.897244,-10.04588 23.584675,-8.3046 -6.422018,-24.16529 21.197607,13.26141 14.889119,-20.08775 2.848309,24.84131 24.988445,-0.88372 -17.645824,17.71519 z"
       inkscape:transform-center-x="-1.3446818"
       inkscape:transform-center-y="35.003025"
       transform="matrix(-0.08789948,0.0441924,-0.04219027,-0.0839172,182.57944,212.51942)" />
    <path
       sodipodi:type="star"
       style="display:inline;opacity:1;fill:#ffffff;fill-opacity:1;stroke:none;stroke-width:9.86499977;stroke-miterlimit:4;stroke-dasharray:none;stroke-opacity:1"
       id="path4570-62"
       sodipodi:sides="7"
       sodipodi:cx="59.868374"
       sodipodi:cy="176.46144"
       sodipodi:r1="42.323208"
       sodipodi:r2="21.161604"
       sodipodi:arg1="0.48624263"
       sodipodi:arg2="0.93504158"
       inkscape:flatsided="false"
       inkscape:rounded="0"
       inkscape:randomized="0"
       d="m 97.286108,196.23939 -24.852292,-2.75082 -4.698887,24.55858 -13.344476,-21.14541 -22.130379,11.63829 8.212002,-23.61708 -22.897244,-10.04588 23.584675,-8.3046 -6.422018,-24.16529 21.197607,13.26141 14.889119,-20.08775 2.848309,24.84131 24.988445,-0.88372 -17.645824,17.71519 z"
       inkscape:transform-center-x="-0.17222182"
       inkscape:transform-center-y="-0.03311488"
       transform="matrix(-0.09838337,0,0,-0.09392611,103.15795,178.14153)" />
    <path
       sodipodi:type="star"
       style="display:inline;opacity:1;fill:#ffffff;fill-opacity:1;stroke:none;stroke-width:9.86499977;stroke-miterlimit:4;stroke-dasharray:none;stroke-opacity:1"
       id="path4570-32"
       sodipodi:sides="7"
       sodipodi:cx="59.868374"
       sodipodi:cy="176.46144"
       sodipodi:r1="42.323208"
       sodipodi:r2="21.161604"
       sodipodi:arg1="0.48624263"
       sodipodi:arg2="0.93504158"
       inkscape:flatsided="false"
       inkscape:rounded="0"
       inkscape:randomized="0"
       d="m 97.286108,196.23939 -24.852292,-2.75082 -4.698887,24.55858 -13.344476,-21.14541 -22.130379,11.63829 8.212002,-23.61708 -22.897244,-10.04588 23.584675,-8.3046 -6.422018,-24.16529 21.197607,13.26141 14.889119,-20.08775 2.848309,24.84131 24.988445,-0.88372 -17.645824,17.71519 z"
       inkscape:transform-center-x="-30.738029"
       inkscape:transform-center-y="18.933456"
       transform="matrix(-0.08789948,0.0441924,-0.04219027,-0.0839172,90.200313,138.07737)" />
    <path
       sodipodi:type="star"
       style="display:inline;opacity:1;fill:#ffffff;fill-opacity:1;stroke:none;stroke-width:9.86499977;stroke-miterlimit:4;stroke-dasharray:none;stroke-opacity:1"
       id="path4570-0-8"
       sodipodi:sides="7"
       sodipodi:cx="59.868374"
       sodipodi:cy="176.46144"
       sodipodi:r1="42.323208"
       sodipodi:r2="21.161604"
       sodipodi:arg1="0.48624263"
       sodipodi:arg2="0.93504158"
       inkscape:flatsided="false"
       inkscape:rounded="0"
       inkscape:randomized="0"
       d="m 97.286108,196.23939 -24.852292,-2.75082 -4.698887,24.55858 -13.344476,-21.14541 -22.130379,11.63829 8.212002,-23.61708 -22.897244,-10.04588 23.584675,-8.3046 -6.422018,-24.16529 21.197607,13.26141 14.889119,-20.08775 2.848309,24.84131 24.988445,-0.88372 -17.645824,17.71519 z"
       inkscape:transform-center-x="-0.17222182"
       inkscape:transform-center-y="-0.03311488"
       transform="matrix(-0.09838337,0,0,-0.09392611,158.55034,191.59941)" />
    <path
       sodipodi:type="star"
       style="display:inline;opacity:1;fill:#ffffff;fill-opacity:1;stroke:none;stroke-width:9.86499977;stroke-miterlimit:4;stroke-dasharray:none;stroke-opacity:1"
       id="path4570-0-3"
       sodipodi:sides="7"
       sodipodi:cx="59.868374"
       sodipodi:cy="176.46144"
       sodipodi:r1="42.323208"
       sodipodi:r2="21.161604"
       sodipodi:arg1="0.48624263"
       sodipodi:arg2="0.93504158"
       inkscape:flatsided="false"
       inkscape:rounded="0"
       inkscape:randomized="0"
       d="m 97.286108,196.23939 -24.852292,-2.75082 -4.698887,24.55858 -13.344476,-21.14541 -22.130379,11.63829 8.212002,-23.61708 -22.897244,-10.04588 23.584675,-8.3046 -6.422018,-24.16529 21.197607,13.26141 14.889119,-20.08775 2.848309,24.84131 24.988445,-0.88372 -17.645824,17.71519 z"
       inkscape:transform-center-x="-0.17222182"
       inkscape:transform-center-y="-0.03311488"
       transform="matrix(-0.09838337,0,0,-0.09392611,165.42088,243.81262)" />
    <path
       sodipodi:type="star"
       style="display:inline;opacity:1;fill:#ffffff;fill-opacity:1;stroke:none;stroke-width:9.86499977;stroke-miterlimit:4;stroke-dasharray:none;stroke-opacity:1"
       id="path4570-0-81"
       sodipodi:sides="7"
       sodipodi:cx="59.868374"
       sodipodi:cy="176.46144"
       sodipodi:r1="42.323208"
       sodipodi:r2="21.161604"
       sodipodi:arg1="0.48624263"
       sodipodi:arg2="0.93504158"
       inkscape:flatsided="false"
       inkscape:rounded="0"
       inkscape:randomized="0"
       d="m 97.286108,196.23939 -24.852292,-2.75082 -4.698887,24.55858 -13.344476,-21.14541 -22.130379,11.63829 8.212002,-23.61708 -22.897244,-10.04588 23.584675,-8.3046 -6.422018,-24.16529 21.197607,13.26141 14.889119,-20.08775 2.848309,24.84131 24.988445,-0.88372 -17.645824,17.71519 z"
       inkscape:transform-center-x="-0.17222182"
       inkscape:transform-center-y="-0.03311488"
       transform="matrix(-0.09838337,0,0,-0.09392611,183.29089,147.38802)" />
    <path
       sodipodi:type="star"
       style="display:inline;opacity:1;fill:#ffffff;fill-opacity:1;stroke:none;stroke-width:9.86499977;stroke-miterlimit:4;stroke-dasharray:none;stroke-opacity:1"
       id="path4570-0-2"
       sodipodi:sides="7"
       sodipodi:cx="59.868374"
       sodipodi:cy="176.46144"
       sodipodi:r1="42.323208"
       sodipodi:r2="21.161604"
       sodipodi:arg1="0.48624263"
       sodipodi:arg2="0.93504158"
       inkscape:flatsided="false"
       inkscape:rounded="0"
       inkscape:randomized="0"
       d="m 97.286108,196.23939 -24.852292,-2.75082 -4.698887,24.55858 -13.344476,-21.14541 -22.130379,11.63829 8.212002,-23.61708 -22.897244,-10.04588 23.584675,-8.3046 -6.422018,-24.16529 21.197607,13.26141 14.889119,-20.08775 2.848309,24.84131 24.988445,-0.88372 -17.645824,17.71519 z"
       inkscape:transform-center-x="-0.17222182"
       inkscape:transform-center-y="-0.03311488"
       transform="matrix(-0.09838337,0,0,-0.09392611,171.4557,163.86545)" />
    <path
       sodipodi:type="star"
       style="display:inline;opacity:1;fill:#ffffff;fill-opacity:1;stroke:none;stroke-width:9.86499977;stroke-miterlimit:4;stroke-dasharray:none;stroke-opacity:1"
       id="path4570-0-4"
       sodipodi:sides="7"
       sodipodi:cx="59.868374"
       sodipodi:cy="176.46144"
       sodipodi:r1="42.323208"
       sodipodi:r2="21.161604"
       sodipodi:arg1="0.48624263"
       sodipodi:arg2="0.93504158"
       inkscape:flatsided="false"
       inkscape:rounded="0"
       inkscape:randomized="0"
       d="m 97.286108,196.23939 -24.852292,-2.75082 -4.698887,24.55858 -13.344476,-21.14541 -22.130379,11.63829 8.212002,-23.61708 -22.897244,-10.04588 23.584675,-8.3046 -6.422018,-24.16529 21.197607,13.26141 14.889119,-20.08775 2.848309,24.84131 24.988445,-0.88372 -17.645824,17.71519 z"
       inkscape:transform-center-x="-0.17222182"
       inkscape:transform-center-y="-0.03311488"
       transform="matrix(-0.09838337,0,0,-0.09392611,79.428697,263.49939)" />
    <path
       sodipodi:type="star"
       style="display:inline;opacity:1;fill:#ffffff;fill-opacity:1;stroke:none;stroke-width:9.86499977;stroke-miterlimit:4;stroke-dasharray:none;stroke-opacity:1"
       id="path4570-0-06"
       sodipodi:sides="7"
       sodipodi:cx="59.868374"
       sodipodi:cy="176.46144"
       sodipodi:r1="42.323208"
       sodipodi:r2="21.161604"
       sodipodi:arg1="0.48624263"
       sodipodi:arg2="0.93504158"
       inkscape:flatsided="false"
       inkscape:rounded="0"
       inkscape:randomized="0"
       d="m 97.286108,196.23939 -24.852292,-2.75082 -4.698887,24.55858 -13.344476,-21.14541 -22.130379,11.63829 8.212002,-23.61708 -22.897244,-10.04588 23.584675,-8.3046 -6.422018,-24.16529 21.197607,13.26141 14.889119,-20.08775 2.848309,24.84131 24.988445,-0.88372 -17.645824,17.71519 z"
       inkscape:transform-center-x="-0.17222182"
       inkscape:transform-center-y="-0.03311488"
       transform="matrix(-0.09838337,0,0,-0.09392611,106.09761,133.50191)" />
    <path
       sodipodi:type="star"
       style="display:inline;opacity:1;fill:#ffffff;fill-opacity:1;stroke:none;stroke-width:9.86499977;stroke-miterlimit:4;stroke-dasharray:none;stroke-opacity:1"
       id="path4570-0-86"
       sodipodi:sides="7"
       sodipodi:cx="59.868374"
       sodipodi:cy="176.46144"
       sodipodi:r1="42.323208"
       sodipodi:r2="21.161604"
       sodipodi:arg1="0.48624263"
       sodipodi:arg2="0.93504158"
       inkscape:flatsided="false"
       inkscape:rounded="0"
       inkscape:randomized="0"
       d="m 97.286108,196.23939 -24.852292,-2.75082 -4.698887,24.55858 -13.344476,-21.14541 -22.130379,11.63829 8.212002,-23.61708 -22.897244,-10.04588 23.584675,-8.3046 -6.422018,-24.16529 21.197607,13.26141 14.889119,-20.08775 2.848309,24.84131 24.988445,-0.88372 -17.645824,17.71519 z"
       inkscape:transform-center-x="-0.17222182"
       inkscape:transform-center-y="-0.03311488"
       transform="matrix(-0.09838337,0,0,-0.09392611,103.77445,261.26969)" />
    <path
       sodipodi:type="star"
       style="display:inline;opacity:1;fill:#ffffff;fill-opacity:1;stroke:none;stroke-width:9.86499977;stroke-miterlimit:4;stroke-dasharray:none;stroke-opacity:1"
       id="path4570-0-1"
       sodipodi:sides="7"
       sodipodi:cx="59.868374"
       sodipodi:cy="176.46144"
       sodipodi:r1="42.323208"
       sodipodi:r2="21.161604"
       sodipodi:arg1="0.48624263"
       sodipodi:arg2="0.93504158"
       inkscape:flatsided="false"
       inkscape:rounded="0"
       inkscape:randomized="0"
       d="m 97.286108,196.23939 -24.852292,-2.75082 -4.698887,24.55858 -13.344476,-21.14541 -22.130379,11.63829 8.212002,-23.61708 -22.897244,-10.04588 23.584675,-8.3046 -6.422018,-24.16529 21.197607,13.26141 14.889119,-20.08775 2.848309,24.84131 24.988445,-0.88372 -17.645824,17.71519 z"
       inkscape:transform-center-x="-0.17222182"
       inkscape:transform-center-y="-0.03311488"
       transform="matrix(-0.09838337,0,0,-0.09392611,58.853864,241.31778)" />
    <path
       sodipodi:type="star"
       style="display:inline;opacity:1;fill:#ffffff;fill-opacity:1;stroke:none;stroke-width:9.86499977;stroke-miterlimit:4;stroke-dasharray:none;stroke-opacity:1"
       id="path4570-0-6"
       sodipodi:sides="7"
       sodipodi:cx="59.868374"
       sodipodi:cy="176.46144"
       sodipodi:r1="42.323208"
       sodipodi:r2="21.161604"
       sodipodi:arg1="0.48624263"
       sodipodi:arg2="0.93504158"
       inkscape:flatsided="false"
       inkscape:rounded="0"
       inkscape:randomized="0"
       d="m 97.286108,196.23939 -24.852292,-2.75082 -4.698887,24.55858 -13.344476,-21.14541 -22.130379,11.63829 8.212002,-23.61708 -22.897244,-10.04588 23.584675,-8.3046 -6.422018,-24.16529 21.197607,13.26141 14.889119,-20.08775 2.848309,24.84131 24.988445,-0.88372 -17.645824,17.71519 z"
       inkscape:transform-center-x="-0.17222182"
       inkscape:transform-center-y="-0.03311488"
       transform="matrix(-0.09838337,0,0,-0.09392611,139.20643,178.973)" />
    <path
       sodipodi:type="star"
       style="display:inline;opacity:1;fill:#ffffff;fill-opacity:1;stroke:none;stroke-width:9.86499977;stroke-miterlimit:4;stroke-dasharray:none;stroke-opacity:1"
       id="path4570-0-5"
       sodipodi:sides="7"
       sodipodi:cx="59.868374"
       sodipodi:cy="176.46144"
       sodipodi:r1="42.323208"
       sodipodi:r2="21.161604"
       sodipodi:arg1="0.48624263"
       sodipodi:arg2="0.93504158"
       inkscape:flatsided="false"
       inkscape:rounded="0"
       inkscape:randomized="0"
       d="m 97.286108,196.23939 -24.852292,-2.75082 -4.698887,24.55858 -13.344476,-21.14541 -22.130379,11.63829 8.212002,-23.61708 -22.897244,-10.04588 23.584675,-8.3046 -6.422018,-24.16529 21.197607,13.26141 14.889119,-20.08775 2.848309,24.84131 24.988445,-0.88372 -17.645824,17.71519 z"
       inkscape:transform-center-x="-0.17222182"
       inkscape:transform-center-y="-0.03311488"
       transform="matrix(-0.09838337,0,0,-0.09392611,178.17474,181.81892)" />
    <path
       sodipodi:type="star"
       style="display:inline;opacity:1;fill:#ffffff;fill-opacity:1;stroke:none;stroke-width:9.86499977;stroke-miterlimit:4;stroke-dasharray:none;stroke-opacity:1"
       id="path4570-0-7"
       sodipodi:sides="7"
       sodipodi:cx="59.868374"
       sodipodi:cy="176.46144"
       sodipodi:r1="42.323208"
       sodipodi:r2="21.161604"
       sodipodi:arg1="0.48624263"
       sodipodi:arg2="0.93504158"
       inkscape:flatsided="false"
       inkscape:rounded="0"
       inkscape:randomized="0"
       d="m 97.286108,196.23939 -24.852292,-2.75082 -4.698887,24.55858 -13.344476,-21.14541 -22.130379,11.63829 8.212002,-23.61708 -22.897244,-10.04588 23.584675,-8.3046 -6.422018,-24.16529 21.197607,13.26141 14.889119,-20.08775 2.848309,24.84131 24.988445,-0.88372 -17.645824,17.71519 z"
       inkscape:transform-center-x="-0.17222182"
       inkscape:transform-center-y="-0.03311488"
       transform="matrix(-0.09838337,0,0,-0.09392611,133.58491,118.16606)" />
    <path
       sodipodi:type="star"
       style="display:inline;opacity:1;fill:#ffffff;fill-opacity:1;stroke:none;stroke-width:9.86499977;stroke-miterlimit:4;stroke-dasharray:none;stroke-opacity:1"
       id="path4570-0-14"
       sodipodi:sides="7"
       sodipodi:cx="59.868374"
       sodipodi:cy="176.46144"
       sodipodi:r1="42.323208"
       sodipodi:r2="21.161604"
       sodipodi:arg1="0.48624263"
       sodipodi:arg2="0.93504158"
       inkscape:flatsided="false"
       inkscape:rounded="0"
       inkscape:randomized="0"
       d="m 97.286108,196.23939 -24.852292,-2.75082 -4.698887,24.55858 -13.344476,-21.14541 -22.130379,11.63829 8.212002,-23.61708 -22.897244,-10.04588 23.584675,-8.3046 -6.422018,-24.16529 21.197607,13.26141 14.889119,-20.08775 2.848309,24.84131 24.988445,-0.88372 -17.645824,17.71519 z"
       inkscape:transform-center-x="-0.17222182"
       inkscape:transform-center-y="-0.03311488"
       transform="matrix(-0.09838337,0,0,-0.09392611,62.587147,140.05542)" />
    <path
       sodipodi:type="star"
       style="display:inline;opacity:1;fill:#ffffff;fill-opacity:1;stroke:none;stroke-width:9.86499977;stroke-miterlimit:4;stroke-dasharray:none;stroke-opacity:1"
       id="path4570-0-48"
       sodipodi:sides="7"
       sodipodi:cx="59.868374"
       sodipodi:cy="176.46144"
       sodipodi:r1="42.323208"
       sodipodi:r2="21.161604"
       sodipodi:arg1="0.48624263"
       sodipodi:arg2="0.93504158"
       inkscape:flatsided="false"
       inkscape:rounded="0"
       inkscape:randomized="0"
       d="m 97.286108,196.23939 -24.852292,-2.75082 -4.698887,24.55858 -13.344476,-21.14541 -22.130379,11.63829 8.212002,-23.61708 -22.897244,-10.04588 23.584675,-8.3046 -6.422018,-24.16529 21.197607,13.26141 14.889119,-20.08775 2.848309,24.84131 24.988445,-0.88372 -17.645824,17.71519 z"
       inkscape:transform-center-x="-0.17222182"
       inkscape:transform-center-y="-0.03311488"
       transform="matrix(-0.09838337,0,0,-0.09392611,49.757324,255.82894)" />
    <path
       sodipodi:type="star"
       style="display:inline;opacity:1;fill:#ffffff;fill-opacity:1;stroke:none;stroke-width:9.86499977;stroke-miterlimit:4;stroke-dasharray:none;stroke-opacity:1"
       id="path4570-0-79"
       sodipodi:sides="7"
       sodipodi:cx="59.868374"
       sodipodi:cy="176.46144"
       sodipodi:r1="42.323208"
       sodipodi:r2="21.161604"
       sodipodi:arg1="0.48624263"
       sodipodi:arg2="0.93504158"
       inkscape:flatsided="false"
       inkscape:rounded="0"
       inkscape:randomized="0"
       d="m 97.286108,196.23939 -24.852292,-2.75082 -4.698887,24.55858 -13.344476,-21.14541 -22.130379,11.63829 8.212002,-23.61708 -22.897244,-10.04588 23.584675,-8.3046 -6.422018,-24.16529 21.197607,13.26141 14.889119,-20.08775 2.848309,24.84131 24.988445,-0.88372 -17.645824,17.71519 z"
       inkscape:transform-center-x="-0.17222182"
       inkscape:transform-center-y="-0.03311488"
       transform="matrix(-0.09838337,0,0,-0.09392611,197.61153,228.04714)" />
    <path
       sodipodi:type="star"
       style="display:inline;opacity:1;fill:#ffffff;fill-opacity:1;stroke:none;stroke-width:9.86499977;stroke-miterlimit:4;stroke-dasharray:none;stroke-opacity:1"
       id="path4570-0-92"
       sodipodi:sides="7"
       sodipodi:cx="59.868374"
       sodipodi:cy="176.46144"
       sodipodi:r1="42.323208"
       sodipodi:r2="21.161604"
       sodipodi:arg1="0.48624263"
       sodipodi:arg2="0.93504158"
       inkscape:flatsided="false"
       inkscape:rounded="0"
       inkscape:randomized="0"
       d="m 97.286108,196.23939 -24.852292,-2.75082 -4.698887,24.55858 -13.344476,-21.14541 -22.130379,11.63829 8.212002,-23.61708 -22.897244,-10.04588 23.584675,-8.3046 -6.422018,-24.16529 21.197607,13.26141 14.889119,-20.08775 2.848309,24.84131 24.988445,-0.88372 -17.645824,17.71519 z"
       inkscape:transform-center-x="-0.17222182"
       inkscape:transform-center-y="-0.03311488"
       transform="matrix(-0.09838337,0,0,-0.09392611,131.1891,138.37996)" />
    <path
       sodipodi:type="star"
       style="display:inline;opacity:1;fill:#ffffff;fill-opacity:1;stroke:none;stroke-width:9.86499977;stroke-miterlimit:4;stroke-dasharray:none;stroke-opacity:1"
       id="path4570-0-99"
       sodipodi:sides="7"
       sodipodi:cx="59.868374"
       sodipodi:cy="176.46144"
       sodipodi:r1="42.323208"
       sodipodi:r2="21.161604"
       sodipodi:arg1="0.48624263"
       sodipodi:arg2="0.93504158"
       inkscape:flatsided="false"
       inkscape:rounded="0"
       inkscape:randomized="0"
       d="m 97.286108,196.23939 -24.852292,-2.75082 -4.698887,24.55858 -13.344476,-21.14541 -22.130379,11.63829 8.212002,-23.61708 -22.897244,-10.04588 23.584675,-8.3046 -6.422018,-24.16529 21.197607,13.26141 14.889119,-20.08775 2.848309,24.84131 24.988445,-0.88372 -17.645824,17.71519 z"
       inkscape:transform-center-x="-0.17222182"
       inkscape:transform-center-y="-0.03311488"
       transform="matrix(-0.09838337,0,0,-0.09392611,61.976614,218.34345)" />
    <path
       sodipodi:type="star"
       style="display:inline;opacity:1;fill:#ffffff;fill-opacity:1;stroke:none;stroke-width:9.86499977;stroke-miterlimit:4;stroke-dasharray:none;stroke-opacity:1"
       id="path4570-0-57"
       sodipodi:sides="7"
       sodipodi:cx="59.868374"
       sodipodi:cy="176.46144"
       sodipodi:r1="42.323208"
       sodipodi:r2="21.161604"
       sodipodi:arg1="0.48624263"
       sodipodi:arg2="0.93504158"
       inkscape:flatsided="false"
       inkscape:rounded="0"
       inkscape:randomized="0"
       d="m 97.286108,196.23939 -24.852292,-2.75082 -4.698887,24.55858 -13.344476,-21.14541 -22.130379,11.63829 8.212002,-23.61708 -22.897244,-10.04588 23.584675,-8.3046 -6.422018,-24.16529 21.197607,13.26141 14.889119,-20.08775 2.848309,24.84131 24.988445,-0.88372 -17.645824,17.71519 z"
       inkscape:transform-center-x="-0.17222182"
       inkscape:transform-center-y="-0.03311488"
       transform="matrix(-0.09838337,0,0,-0.09392611,190.31115,195.32916)" />
    <path
       sodipodi:type="star"
       style="display:inline;opacity:1;fill:#ffffff;fill-opacity:1;stroke:none;stroke-width:9.86499977;stroke-miterlimit:4;stroke-dasharray:none;stroke-opacity:1"
       id="path4570-0-08"
       sodipodi:sides="7"
       sodipodi:cx="59.868374"
       sodipodi:cy="176.46144"
       sodipodi:r1="42.323208"
       sodipodi:r2="21.161604"
       sodipodi:arg1="0.48624263"
       sodipodi:arg2="0.93504158"
       inkscape:flatsided="false"
       inkscape:rounded="0"
       inkscape:randomized="0"
       d="m 97.286108,196.23939 -24.852292,-2.75082 -4.698887,24.55858 -13.344476,-21.14541 -22.130379,11.63829 8.212002,-23.61708 -22.897244,-10.04588 23.584675,-8.3046 -6.422018,-24.16529 21.197607,13.26141 14.889119,-20.08775 2.848309,24.84131 24.988445,-0.88372 -17.645824,17.71519 z"
       inkscape:transform-center-x="-0.17222182"
       inkscape:transform-center-y="-0.03311488"
       transform="matrix(-0.09838337,0,0,-0.09392611,37.134701,210.32711)" />
    <path
       sodipodi:type="star"
       style="display:inline;opacity:1;fill:#ffffff;fill-opacity:1;stroke:none;stroke-width:9.86499977;stroke-miterlimit:4;stroke-dasharray:none;stroke-opacity:1"
       id="path4570-0-67"
       sodipodi:sides="7"
       sodipodi:cx="59.868374"
       sodipodi:cy="176.46144"
       sodipodi:r1="42.323208"
       sodipodi:r2="21.161604"
       sodipodi:arg1="0.48624263"
       sodipodi:arg2="0.93504158"
       inkscape:flatsided="false"
       inkscape:rounded="0"
       inkscape:randomized="0"
       d="m 97.286108,196.23939 -24.852292,-2.75082 -4.698887,24.55858 -13.344476,-21.14541 -22.130379,11.63829 8.212002,-23.61708 -22.897244,-10.04588 23.584675,-8.3046 -6.422018,-24.16529 21.197607,13.26141 14.889119,-20.08775 2.848309,24.84131 24.988445,-0.88372 -17.645824,17.71519 z"
       inkscape:transform-center-x="-0.17222182"
       inkscape:transform-center-y="-0.03311488"
       transform="matrix(-0.09838337,0,0,-0.09392611,46.872448,169.71298)" />
    <path
       sodipodi:type="star"
       style="display:inline;opacity:1;fill:#ffffff;fill-opacity:1;stroke:none;stroke-width:9.86499977;stroke-miterlimit:4;stroke-dasharray:none;stroke-opacity:1"
       id="path4570-0-23"
       sodipodi:sides="7"
       sodipodi:cx="59.868374"
       sodipodi:cy="176.46144"
       sodipodi:r1="42.323208"
       sodipodi:r2="21.161604"
       sodipodi:arg1="0.48624263"
       sodipodi:arg2="0.93504158"
       inkscape:flatsided="false"
       inkscape:rounded="0"
       inkscape:randomized="0"
       d="m 97.286108,196.23939 -24.852292,-2.75082 -4.698887,24.55858 -13.344476,-21.14541 -22.130379,11.63829 8.212002,-23.61708 -22.897244,-10.04588 23.584675,-8.3046 -6.422018,-24.16529 21.197607,13.26141 14.889119,-20.08775 2.848309,24.84131 24.988445,-0.88372 -17.645824,17.71519 z"
       inkscape:transform-center-x="-0.17222182"
       inkscape:transform-center-y="-0.03311488"
       transform="matrix(-0.09838337,0,0,-0.09392611,128.19871,230.20316)" />
  </g>
  <g
     inkscape:groupmode="layer"
     id="layer3"
     inkscape:label="Middle"
     style="display:inline"
     transform="translate(0,20)">
    <g
       id="g1029"
       transform="matrix(4.5443852,0,0,4.5443852,81.041356,35.467375)">
      <path
         id="path1015"
         d="M 0,0 H 24 V 24 H 0 Z"
         inkscape:connector-curvature="0"
         style="fill:none" />
      <path
         id="path1017"
         d="M 12.372406,1.9999999 H 0.37240648 c -1.1,0 -1.99999998,0.9 -1.99999998,2 V 20 c 0,1.1 0.89999998,2 1.99999998,2 H 12.372406 c 1.1,0 2,-0.9 2,-2 V 3.9999999 c 0,-1.1 -0.9,-2 -2,-2 z m -11.99999952,2 H 5.3724065 V 12 l -2.5,-1.5 -2.50000002,1.5 z"
         inkscape:connector-curvature="0"
         style="fill:#f6b600;fill-opacity:0.87323943" />
    </g>
    <flowRoot
       xml:space="preserve"
       id="flowRoot1067"
       style="font-style:normal;font-weight:normal;font-size:40px;line-height:1.25;font-family:sans-serif;letter-spacing:0px;word-spacing:0px;fill:#000000;fill-opacity:1;stroke:none"
       transform="matrix(0.47570002,0,0,0.47570002,-56.711813,-110.80088)"><flowRegion
         id="flowRegion1069"><rect
           id="rect1071"
           width="102.92379"
           height="62.329597"
           x="304.05591"
           y="446.19275" /></flowRegion><flowPara
         id="flowPara1073"
         style="font-style:normal;font-variant:normal;font-weight:normal;font-stretch:normal;font-family:'Indie Flower';-inkscape-font-specification:'Indie Flower';letter-spacing:2.75874138px">diary</flowPara></flowRoot>    <path
       style="fill:#000000;fill-opacity:1;stroke:none;stroke-width:0.26458332px;stroke-linecap:butt;stroke-linejoin:miter;stroke-opacity:1"
       d="m 113.07391,71.898839 11.97367,-0.748353 13.47038,0.935443 z"
       id="path1075"
       inkscape:connector-curvature="0" />
    <path
       style="fill:#000000;fill-opacity:1;stroke:none;stroke-width:0.21603136px;stroke-linecap:butt;stroke-linejoin:miter;stroke-opacity:1"
       d="m 113.44854,80.366037 11.03823,0.748354 9.9157,-0.87308 h 3.74177 l -0.74835,-0.623628 z"
       id="path1077"
       inkscape:connector-curvature="0" />
    <path
       style="fill:#000000;fill-opacity:1;stroke:none;stroke-width:0.3429603px;stroke-linecap:butt;stroke-linejoin:miter;stroke-opacity:1"
       d="m 112.16924,63.525967 17.99502,0.01503 9.25928,-1.341246 -25.90041,1.326226 z"
       id="path1079"
       inkscape:connector-curvature="0" />
  </g>
</svg>
