<?xml version="1.0" encoding="UTF-8" standalone="no"?>
<!-- Created with Inkscape (http://www.inkscape.org/) -->

<svg
   xmlns:dc="http://purl.org/dc/elements/1.1/"
   xmlns:cc="http://creativecommons.org/ns#"
   xmlns:rdf="http://www.w3.org/1999/02/22-rdf-syntax-ns#"
   xmlns:svg="http://www.w3.org/2000/svg"
   xmlns="http://www.w3.org/2000/svg"
   xmlns:xlink="http://www.w3.org/1999/xlink"
   xmlns:sodipodi="http://sodipodi.sourceforge.net/DTD/sodipodi-0.dtd"
   xmlns:inkscape="http://www.inkscape.org/namespaces/inkscape"
   width="220mm"
   height="220mm"
   viewBox="0 0 220 220"
   version="1.1"
   id="svg8"
   sodipodi:docname="logo_small_no_font.svg"
   inkscape:version="0.92.3 (2405546, 2018-03-11)">
  <defs
     id="defs2">
    <linearGradient
       inkscape:collect="always"
       id="linearGradient4566">
      <stop
         style="stop-color:#003c63;stop-opacity:1"
         offset="0"
         id="stop4562" />
      <stop
         style="stop-color:#005084;stop-opacity:1"
         offset="1"
         id="stop4564" />
    </linearGradient>
    <linearGradient
       inkscape:collect="always"
       xlink:href="#linearGradient4566"
       id="linearGradient4568"
       x1="10.865616"
       y1="197"
       x2="189.13438"
       y2="197"
       gradientUnits="userSpaceOnUse"
       gradientTransform="translate(35.718984,-239.19429)" />
  </defs>
  <sodipodi:namedview
     id="base"
     pagecolor="#ffffff"
     bordercolor="#666666"
     borderopacity="1.0"
     inkscape:pageopacity="0.0"
     inkscape:pageshadow="2"
     inkscape:zoom="1"
     inkscape:cx="295.55076"
     inkscape:cy="326.3146"
     inkscape:document-units="mm"
     inkscape:current-layer="flowRoot1067"
     showgrid="false"
     inkscape:window-width="2560"
     inkscape:window-height="1377"
     inkscape:window-x="2992"
     inkscape:window-y="725"
     inkscape:window-maximized="1"
     showguides="true"
     inkscape:guide-bbox="true" />
  <metadata
     id="metadata5">
    <rdf:RDF>
      <cc:Work
         rdf:about="">
        <dc:format>image/svg+xml</dc:format>
        <dc:type
           rdf:resource="http://purl.org/dc/dcmitype/StillImage" />
        <dc:title></dc:title>
      </cc:Work>
    </rdf:RDF>
  </metadata>
  <g
     inkscape:groupmode="layer"
     id="layer2"
     inkscape:label="Back"
     style="display:inline"
     transform="translate(0,20)">
    <circle
       style="opacity:1;fill:url(#linearGradient4568);fill-opacity:1;stroke:#181818;stroke-width:5.96500015;stroke-miterlimit:4;stroke-dasharray:none;stroke-opacity:1"
       id="path4518"
       cx="135.71898"
       cy="-42.194283"
       r="89.134384"
       transform="rotate(56.559587)" />
  </g>
  <g
     inkscape:label="Ebene 1"
     inkscape:groupmode="layer"
     id="layer1"
     transform="translate(0,-77)"
     style="display:inline">
    <path
       style="opacity:1;fill:#fffffb;fill-opacity:1;stroke:none;stroke-width:4.73537016;stroke-miterlimit:4;stroke-dasharray:none;stroke-opacity:1"
       d="m 65.970111,186.21338 a 17.194818,20.125702 64.157964 0 1 -24.181668,-7.33049 17.194818,20.125702 64.157964 0 1 9.2559,-23.51493 21.680911,21.401586 64.157964 0 0 -0.02493,19.04414 21.680911,21.401586 64.157964 0 0 14.950693,11.80128 z"
       id="path4655"
       inkscape:connector-curvature="0" />
    <path
       sodipodi:type="star"
       style="display:inline;opacity:1;fill:#ffffff;fill-opacity:1;stroke:none;stroke-width:9.86499977;stroke-miterlimit:4;stroke-dasharray:none;stroke-opacity:1"
       id="path4570"
       sodipodi:sides="7"
       sodipodi:cx="59.868374"
       sodipodi:cy="176.46144"
       sodipodi:r1="42.323208"
       sodipodi:r2="21.161604"
       sodipodi:arg1="0.48624263"
       sodipodi:arg2="0.93504158"
       inkscape:flatsided="false"
       inkscape:rounded="0"
       inkscape:randomized="0"
       d="m 97.286108,196.23939 -24.852292,-2.75082 -4.698887,24.55858 -13.344476,-21.14541 -22.130379,11.63829 8.212002,-23.61708 -22.897244,-10.04588 23.584675,-8.3046 -6.422018,-24.16529 21.197607,13.26141 14.889119,-20.08775 2.848309,24.84131 24.988445,-0.88372 -17.645824,17.71519 z"
       inkscape:transform-center-x="-9.2939689"
       inkscape:transform-center-y="4.7545161"
       transform="matrix(-0.08789948,0.0441924,-0.04219027,-0.0839172,40.53114,169.62035)" />
    <path
       sodipodi:type="star"
       style="display:inline;opacity:1;fill:#ffffff;fill-opacity:1;stroke:none;stroke-width:9.86499977;stroke-miterlimit:4;stroke-dasharray:none;stroke-opacity:1"
       id="path4570-1"
       sodipodi:sides="7"
       sodipodi:cx="59.868374"
       sodipodi:cy="176.46144"
       sodipodi:r1="42.323208"
       sodipodi:r2="21.161604"
       sodipodi:arg1="0.48624263"
       sodipodi:arg2="0.93504158"
       inkscape:flatsided="false"
       inkscape:rounded="0"
       inkscape:randomized="0"
       d="m 97.286108,196.23939 -24.852292,-2.75082 -4.698887,24.55858 -13.344476,-21.14541 -22.130379,11.63829 8.212002,-23.61708 -22.897244,-10.04588 23.584675,-8.3046 -6.422018,-24.16529 21.197607,13.26141 14.889119,-20.08775 2.848309,24.84131 24.988445,-0.88372 -17.645824,17.71519 z"
       inkscape:transform-center-x="-36.278629"
       inkscape:transform-center-y="-5.1428038"
       transform="matrix(-0.08789948,0.0441924,-0.04219027,-0.0839172,171.9019,146.66486)" />
    <path
       sodipodi:type="star"
       style="display:inline;opacity:1;fill:#ffffff;fill-opacity:1;stroke:none;stroke-width:9.86499977;stroke-miterlimit:4;stroke-dasharray:none;stroke-opacity:1"
       id="path4570-0"
       sodipodi:sides="7"
       sodipodi:cx="59.868374"
       sodipodi:cy="176.46144"
       sodipodi:r1="42.323208"
       sodipodi:r2="21.161604"
       sodipodi:arg1="0.48624263"
       sodipodi:arg2="0.93504158"
       inkscape:flatsided="false"
       inkscape:rounded="0"
       inkscape:randomized="0"
       d="m 97.286108,196.23939 -24.852292,-2.75082 -4.698887,24.55858 -13.344476,-21.14541 -22.130379,11.63829 8.212002,-23.61708 -22.897244,-10.04588 23.584675,-8.3046 -6.422018,-24.16529 21.197607,13.26141 14.889119,-20.08775 2.848309,24.84131 24.988445,-0.88372 -17.645824,17.71519 z"
       inkscape:transform-center-x="-0.17222182"
       inkscape:transform-center-y="-0.03311488"
       transform="matrix(-0.09838337,0,0,-0.09392611,114.94955,210.56452)" />
    <path
       sodipodi:type="star"
       style="display:inline;opacity:1;fill:#ffffff;fill-opacity:1;stroke:none;stroke-width:9.86499977;stroke-miterlimit:4;stroke-dasharray:none;stroke-opacity:1"
       id="path4570-4"
       sodipodi:sides="7"
       sodipodi:cx="59.868374"
       sodipodi:cy="176.46144"
       sodipodi:r1="42.323208"
       sodipodi:r2="21.161604"
       sodipodi:arg1="0.48624263"
       sodipodi:arg2="0.93504158"
       inkscape:flatsided="false"
       inkscape:rounded="0"
       inkscape:randomized="0"
       d="m 97.286108,196.23939 -24.852292,-2.75082 -4.698887,24.55858 -13.344476,-21.14541 -22.130379,11.63829 8.212002,-23.61708 -22.897244,-10.04588 23.584675,-8.3046 -6.422018,-24.16529 21.197607,13.26141 14.889119,-20.08775 2.848309,24.84131 24.988445,-0.88372 -17.645824,17.71519 z"
       inkscape:transform-center-x="-0.17222182"
       inkscape:transform-center-y="-0.03311488"
       transform="matrix(-0.09838337,0,0,-0.09392611,120.37981,163.02096)" />
    <path
       sodipodi:type="star"
       style="display:inline;opacity:1;fill:#ffffff;fill-opacity:1;stroke:none;stroke-width:9.86499977;stroke-miterlimit:4;stroke-dasharray:none;stroke-opacity:1"
       id="path4570-16"
       sodipodi:sides="7"
       sodipodi:cx="59.868374"
       sodipodi:cy="176.46144"
       sodipodi:r1="42.323208"
       sodipodi:r2="21.161604"
       sodipodi:arg1="0.48624263"
       sodipodi:arg2="0.93504158"
       inkscape:flatsided="false"
       inkscape:rounded="0"
       inkscape:randomized="0"
       d="m 97.286108,196.23939 -24.852292,-2.75082 -4.698887,24.55858 -13.344476,-21.14541 -22.130379,11.63829 8.212002,-23.61708 -22.897244,-10.04588 23.584675,-8.3046 -6.422018,-24.16529 21.197607,13.26141 14.889119,-20.08775 2.848309,24.84131 24.988445,-0.88372 -17.645824,17.71519 z"
       inkscape:transform-center-x="23.4991"
       inkscape:transform-center-y="37.464275"
       transform="matrix(-0.08789948,0.0441924,-0.04219027,-0.0839172,156.22924,258.35362)" />
    <path
       sodipodi:type="star"
       style="display:inline;opacity:1;fill:#ffffff;fill-opacity:1;stroke:none;stroke-width:9.86499977;stroke-miterlimit:4;stroke-dasharray:none;stroke-opacity:1"
       id="path4570-07"
       sodipodi:sides="7"
       sodipodi:cx="59.868374"
       sodipodi:cy="176.46144"
       sodipodi:r1="42.323208"
       sodipodi:r2="21.161604"
       sodipodi:arg1="0.48624263"
       sodipodi:arg2="0.93504158"
       inkscape:flatsided="false"
       inkscape:rounded="0"
       inkscape:randomized="0"
       d="m 97.286108,196.23939 -24.852292,-2.75082 -4.698887,24.55858 -13.344476,-21.14541 -22.130379,11.63829 8.212002,-23.61708 -22.897244,-10.04588 23.584675,-8.3046 -6.422018,-24.16529 21.197607,13.26141 14.889119,-20.08775 2.848309,24.84131 24.988445,-0.88372 -17.645824,17.71519 z"
       inkscape:transform-center-x="23.711923"
       inkscape:transform-center-y="20.985285"
       transform="matrix(-0.08789948,0.0441924,-0.04219027,-0.0839172,75.830898,151.32244)" />
    <path
       sodipodi:type="star"
       style="display:inline;opacity:1;fill:#ffffff;fill-opacity:1;stroke:none;stroke-width:9.86499977;stroke-miterlimit:4;stroke-dasharray:none;stroke-opacity:1"
       id="path4570-8"
       sodipodi:sides="7"
       sodipodi:cx="59.868374"
       sodipodi:cy="176.46144"
       sodipodi:r1="42.323208"
       sodipodi:r2="21.161604"
       sodipodi:arg1="0.48624263"
       sodipodi:arg2="0.93504158"
       inkscape:flatsided="false"
       inkscape:rounded="0"
       inkscape:randomized="0"
       d="m 97.286108,196.23939 -24.852292,-2.75082 -4.698887,24.55858 -13.344476,-21.14541 -22.130379,11.63829 8.212002,-23.61708 -22.897244,-10.04588 23.584675,-8.3046 -6.422018,-24.16529 21.197607,13.26141 14.889119,-20.08775 2.848309,24.84131 24.988445,-0.88372 -17.645824,17.71519 z"
       inkscape:transform-center-x="-0.17222182"
       inkscape:transform-center-y="-0.03311488"
       transform="matrix(-0.09838337,0,0,-0.09392611,139.90334,278.91536)" />
    <path
       sodipodi:type="star"
       style="display:inline;opacity:1;fill:#ffffff;fill-opacity:1;stroke:none;stroke-width:9.86499977;stroke-miterlimit:4;stroke-dasharray:none;stroke-opacity:1"
       id="path4570-2"
       sodipodi:sides="7"
       sodipodi:cx="59.868374"
       sodipodi:cy="176.46144"
       sodipodi:r1="42.323208"
       sodipodi:r2="21.161604"
       sodipodi:arg1="0.48624263"
       sodipodi:arg2="0.93504158"
       inkscape:flatsided="false"
       inkscape:rounded="0"
       inkscape:randomized="0"
       d="m 97.286108,196.23939 -24.852292,-2.75082 -4.698887,24.55858 -13.344476,-21.14541 -22.130379,11.63829 8.212002,-23.61708 -22.897244,-10.04588 23.584675,-8.3046 -6.422018,-24.16529 21.197607,13.26141 14.889119,-20.08775 2.848309,24.84131 24.988445,-0.88372 -17.645824,17.71519 z"
       inkscape:transform-center-x="24.376128"
       inkscape:transform-center-y="11.313646"
       transform="matrix(-0.08789948,0.0441924,-0.04219027,-0.0839172,175.34692,266.52825)" />
    <path
       sodipodi:type="star"
       style="display:inline;opacity:1;fill:#ffffff;fill-opacity:1;stroke:none;stroke-width:9.86499977;stroke-miterlimit:4;stroke-dasharray:none;stroke-opacity:1"
       id="path4570-01"
       sodipodi:sides="7"
       sodipodi:cx="59.868374"
       sodipodi:cy="176.46144"
       sodipodi:r1="42.323208"
       sodipodi:r2="21.161604"
       sodipodi:arg1="0.48624263"
       sodipodi:arg2="0.93504158"
       inkscape:flatsided="false"
       inkscape:rounded="0"
       inkscape:randomized="0"
       d="m 97.286108,196.23939 -24.852292,-2.75082 -4.698887,24.55858 -13.344476,-21.14541 -22.130379,11.63829 8.212002,-23.61708 -22.897244,-10.04588 23.584675,-8.3046 -6.422018,-24.16529 21.197607,13.26141 14.889119,-20.08775 2.848309,24.84131 24.988445,-0.88372 -17.645824,17.71519 z"
       inkscape:transform-center-x="-9.9382188"
       inkscape:transform-center-y="43.498436"
       transform="matrix(-0.08789948,0.0441924,-0.04219027,-0.0839172,149.90141,135.66566)" />
    <path
       sodipodi:type="star"
       style="display:inline;opacity:1;fill:#ffffff;fill-opacity:1;stroke:none;stroke-width:9.86499977;stroke-miterlimit:4;stroke-dasharray:none;stroke-opacity:1"
       id="path4570-9"
       sodipodi:sides="7"
       sodipodi:cx="59.868374"
       sodipodi:cy="176.46144"
       sodipodi:r1="42.323208"
       sodipodi:r2="21.161604"
       sodipodi:arg1="0.48624263"
       sodipodi:arg2="0.93504158"
       inkscape:flatsided="false"
       inkscape:rounded="0"
       inkscape:randomized="0"
       d="m 97.286108,196.23939 -24.852292,-2.75082 -4.698887,24.55858 -13.344476,-21.14541 -22.130379,11.63829 8.212002,-23.61708 -22.897244,-10.04588 23.584675,-8.3046 -6.422018,-24.16529 21.197607,13.26141 14.889119,-20.08775 2.848309,24.84131 24.988445,-0.88372 -17.645824,17.71519 z"
       inkscape:transform-center-x="-0.17222182"
       inkscape:transform-center-y="-0.03311488"
       transform="matrix(-0.09838337,0,0,-0.09392611,110.87639,274.88553)" />
    <path
       sodipodi:type="star"
       style="display:inline;opacity:1;fill:#ffffff;fill-opacity:1;stroke:none;stroke-width:9.86499977;stroke-miterlimit:4;stroke-dasharray:none;stroke-opacity:1"
       id="path4570-25"
       sodipodi:sides="7"
       sodipodi:cx="59.868374"
       sodipodi:cy="176.46144"
       sodipodi:r1="42.323208"
       sodipodi:r2="21.161604"
       sodipodi:arg1="0.48624263"
       sodipodi:arg2="0.93504158"
       inkscape:flatsided="false"
       inkscape:rounded="0"
       inkscape:randomized="0"
       d="m 97.286108,196.23939 -24.852292,-2.75082 -4.698887,24.55858 -13.344476,-21.14541 -22.130379,11.63829 8.212002,-23.61708 -22.897244,-10.04588 23.584675,-8.3046 -6.422018,-24.16529 21.197607,13.26141 14.889119,-20.08775 2.848309,24.84131 24.988445,-0.88372 -17.645824,17.71519 z"
       inkscape:transform-center-x="-1.3446818"
       inkscape:transform-center-y="35.003025"
       transform="matrix(-0.08789948,0.0441924,-0.04219027,-0.0839172,182.57944,212.51942)" />
    <path
       sodipodi:type="star"
       style="display:inline;opacity:1;fill:#ffffff;fill-opacity:1;stroke:none;stroke-width:9.86499977;stroke-miterlimit:4;stroke-dasharray:none;stroke-opacity:1"
       id="path4570-62"
       sodipodi:sides="7"
       sodipodi:cx="59.868374"
       sodipodi:cy="176.46144"
       sodipodi:r1="42.323208"
       sodipodi:r2="21.161604"
       sodipodi:arg1="0.48624263"
       sodipodi:arg2="0.93504158"
       inkscape:flatsided="false"
       inkscape:rounded="0"
       inkscape:randomized="0"
       d="m 97.286108,196.23939 -24.852292,-2.75082 -4.698887,24.55858 -13.344476,-21.14541 -22.130379,11.63829 8.212002,-23.61708 -22.897244,-10.04588 23.584675,-8.3046 -6.422018,-24.16529 21.197607,13.26141 14.889119,-20.08775 2.848309,24.84131 24.988445,-0.88372 -17.645824,17.71519 z"
       inkscape:transform-center-x="-0.17222182"
       inkscape:transform-center-y="-0.03311488"
       transform="matrix(-0.09838337,0,0,-0.09392611,103.15795,178.14153)" />
    <path
       sodipodi:type="star"
       style="display:inline;opacity:1;fill:#ffffff;fill-opacity:1;stroke:none;stroke-width:9.86499977;stroke-miterlimit:4;stroke-dasharray:none;stroke-opacity:1"
       id="path4570-32"
       sodipodi:sides="7"
       sodipodi:cx="59.868374"
       sodipodi:cy="176.46144"
       sodipodi:r1="42.323208"
       sodipodi:r2="21.161604"
       sodipodi:arg1="0.48624263"
       sodipodi:arg2="0.93504158"
       inkscape:flatsided="false"
       inkscape:rounded="0"
       inkscape:randomized="0"
       d="m 97.286108,196.23939 -24.852292,-2.75082 -4.698887,24.55858 -13.344476,-21.14541 -22.130379,11.63829 8.212002,-23.61708 -22.897244,-10.04588 23.584675,-8.3046 -6.422018,-24.16529 21.197607,13.26141 14.889119,-20.08775 2.848309,24.84131 24.988445,-0.88372 -17.645824,17.71519 z"
       inkscape:transform-center-x="-30.738029"
       inkscape:transform-center-y="18.933456"
       transform="matrix(-0.08789948,0.0441924,-0.04219027,-0.0839172,90.200313,138.07737)" />
    <path
       sodipodi:type="star"
       style="display:inline;opacity:1;fill:#ffffff;fill-opacity:1;stroke:none;stroke-width:9.86499977;stroke-miterlimit:4;stroke-dasharray:none;stroke-opacity:1"
       id="path4570-0-8"
       sodipodi:sides="7"
       sodipodi:cx="59.868374"
       sodipodi:cy="176.46144"
       sodipodi:r1="42.323208"
       sodipodi:r2="21.161604"
       sodipodi:arg1="0.48624263"
       sodipodi:arg2="0.93504158"
       inkscape:flatsided="false"
       inkscape:rounded="0"
       inkscape:randomized="0"
       d="m 97.286108,196.23939 -24.852292,-2.75082 -4.698887,24.55858 -13.344476,-21.14541 -22.130379,11.63829 8.212002,-23.61708 -22.897244,-10.04588 23.584675,-8.3046 -6.422018,-24.16529 21.197607,13.26141 14.889119,-20.08775 2.848309,24.84131 24.988445,-0.88372 -17.645824,17.71519 z"
       inkscape:transform-center-x="-0.17222182"
       inkscape:transform-center-y="-0.03311488"
       transform="matrix(-0.09838337,0,0,-0.09392611,158.55034,191.59941)" />
    <path
       sodipodi:type="star"
       style="display:inline;opacity:1;fill:#ffffff;fill-opacity:1;stroke:none;stroke-width:9.86499977;stroke-miterlimit:4;stroke-dasharray:none;stroke-opacity:1"
       id="path4570-0-3"
       sodipodi:sides="7"
       sodipodi:cx="59.868374"
       sodipodi:cy="176.46144"
       sodipodi:r1="42.323208"
       sodipodi:r2="21.161604"
       sodipodi:arg1="0.48624263"
       sodipodi:arg2="0.93504158"
       inkscape:flatsided="false"
       inkscape:rounded="0"
       inkscape:randomized="0"
       d="m 97.286108,196.23939 -24.852292,-2.75082 -4.698887,24.55858 -13.344476,-21.14541 -22.130379,11.63829 8.212002,-23.61708 -22.897244,-10.04588 23.584675,-8.3046 -6.422018,-24.16529 21.197607,13.26141 14.889119,-20.08775 2.848309,24.84131 24.988445,-0.88372 -17.645824,17.71519 z"
       inkscape:transform-center-x="-0.17222182"
       inkscape:transform-center-y="-0.03311488"
       transform="matrix(-0.09838337,0,0,-0.09392611,165.42088,243.81262)" />
    <path
       sodipodi:type="star"
       style="display:inline;opacity:1;fill:#ffffff;fill-opacity:1;stroke:none;stroke-width:9.86499977;stroke-miterlimit:4;stroke-dasharray:none;stroke-opacity:1"
       id="path4570-0-81"
       sodipodi:sides="7"
       sodipodi:cx="59.868374"
       sodipodi:cy="176.46144"
       sodipodi:r1="42.323208"
       sodipodi:r2="21.161604"
       sodipodi:arg1="0.48624263"
       sodipodi:arg2="0.93504158"
       inkscape:flatsided="false"
       inkscape:rounded="0"
       inkscape:randomized="0"
       d="m 97.286108,196.23939 -24.852292,-2.75082 -4.698887,24.55858 -13.344476,-21.14541 -22.130379,11.63829 8.212002,-23.61708 -22.897244,-10.04588 23.584675,-8.3046 -6.422018,-24.16529 21.197607,13.26141 14.889119,-20.08775 2.848309,24.84131 24.988445,-0.88372 -17.645824,17.71519 z"
       inkscape:transform-center-x="-0.17222182"
       inkscape:transform-center-y="-0.03311488"
       transform="matrix(-0.09838337,0,0,-0.09392611,183.29089,147.38802)" />
    <path
       sodipodi:type="star"
       style="display:inline;opacity:1;fill:#ffffff;fill-opacity:1;stroke:none;stroke-width:9.86499977;stroke-miterlimit:4;stroke-dasharray:none;stroke-opacity:1"
       id="path4570-0-2"
       sodipodi:sides="7"
       sodipodi:cx="59.868374"
       sodipodi:cy="176.46144"
       sodipodi:r1="42.323208"
       sodipodi:r2="21.161604"
       sodipodi:arg1="0.48624263"
       sodipodi:arg2="0.93504158"
       inkscape:flatsided="false"
       inkscape:rounded="0"
       inkscape:randomized="0"
       d="m 97.286108,196.23939 -24.852292,-2.75082 -4.698887,24.55858 -13.344476,-21.14541 -22.130379,11.63829 8.212002,-23.61708 -22.897244,-10.04588 23.584675,-8.3046 -6.422018,-24.16529 21.197607,13.26141 14.889119,-20.08775 2.848309,24.84131 24.988445,-0.88372 -17.645824,17.71519 z"
       inkscape:transform-center-x="-0.17222182"
       inkscape:transform-center-y="-0.03311488"
       transform="matrix(-0.09838337,0,0,-0.09392611,171.4557,163.86545)" />
    <path
       sodipodi:type="star"
       style="display:inline;opacity:1;fill:#ffffff;fill-opacity:1;stroke:none;stroke-width:9.86499977;stroke-miterlimit:4;stroke-dasharray:none;stroke-opacity:1"
       id="path4570-0-4"
       sodipodi:sides="7"
       sodipodi:cx="59.868374"
       sodipodi:cy="176.46144"
       sodipodi:r1="42.323208"
       sodipodi:r2="21.161604"
       sodipodi:arg1="0.48624263"
       sodipodi:arg2="0.93504158"
       inkscape:flatsided="false"
       inkscape:rounded="0"
       inkscape:randomized="0"
       d="m 97.286108,196.23939 -24.852292,-2.75082 -4.698887,24.55858 -13.344476,-21.14541 -22.130379,11.63829 8.212002,-23.61708 -22.897244,-10.04588 23.584675,-8.3046 -6.422018,-24.16529 21.197607,13.26141 14.889119,-20.08775 2.848309,24.84131 24.988445,-0.88372 -17.645824,17.71519 z"
       inkscape:transform-center-x="-0.17222182"
       inkscape:transform-center-y="-0.03311488"
       transform="matrix(-0.09838337,0,0,-0.09392611,79.428697,263.49939)" />
    <path
       sodipodi:type="star"
       style="display:inline;opacity:1;fill:#ffffff;fill-opacity:1;stroke:none;stroke-width:9.86499977;stroke-miterlimit:4;stroke-dasharray:none;stroke-opacity:1"
       id="path4570-0-06"
       sodipodi:sides="7"
       sodipodi:cx="59.868374"
       sodipodi:cy="176.46144"
       sodipodi:r1="42.323208"
       sodipodi:r2="21.161604"
       sodipodi:arg1="0.48624263"
       sodipodi:arg2="0.93504158"
       inkscape:flatsided="false"
       inkscape:rounded="0"
       inkscape:randomized="0"
       d="m 97.286108,196.23939 -24.852292,-2.75082 -4.698887,24.55858 -13.344476,-21.14541 -22.130379,11.63829 8.212002,-23.61708 -22.897244,-10.04588 23.584675,-8.3046 -6.422018,-24.16529 21.197607,13.26141 14.889119,-20.08775 2.848309,24.84131 24.988445,-0.88372 -17.645824,17.71519 z"
       inkscape:transform-center-x="-0.17222182"
       inkscape:transform-center-y="-0.03311488"
       transform="matrix(-0.09838337,0,0,-0.09392611,106.09761,133.50191)" />
    <path
       sodipodi:type="star"
       style="display:inline;opacity:1;fill:#ffffff;fill-opacity:1;stroke:none;stroke-width:9.86499977;stroke-miterlimit:4;stroke-dasharray:none;stroke-opacity:1"
       id="path4570-0-86"
       sodipodi:sides="7"
       sodipodi:cx="59.868374"
       sodipodi:cy="176.46144"
       sodipodi:r1="42.323208"
       sodipodi:r2="21.161604"
       sodipodi:arg1="0.48624263"
       sodipodi:arg2="0.93504158"
       inkscape:flatsided="false"
       inkscape:rounded="0"
       inkscape:randomized="0"
       d="m 97.286108,196.23939 -24.852292,-2.75082 -4.698887,24.55858 -13.344476,-21.14541 -22.130379,11.63829 8.212002,-23.61708 -22.897244,-10.04588 23.584675,-8.3046 -6.422018,-24.16529 21.197607,13.26141 14.889119,-20.08775 2.848309,24.84131 24.988445,-0.88372 -17.645824,17.71519 z"
       inkscape:transform-center-x="-0.17222182"
       inkscape:transform-center-y="-0.03311488"
       transform="matrix(-0.09838337,0,0,-0.09392611,103.77445,261.26969)" />
    <path
       sodipodi:type="star"
       style="display:inline;opacity:1;fill:#ffffff;fill-opacity:1;stroke:none;stroke-width:9.86499977;stroke-miterlimit:4;stroke-dasharray:none;stroke-opacity:1"
       id="path4570-0-1"
       sodipodi:sides="7"
       sodipodi:cx="59.868374"
       sodipodi:cy="176.46144"
       sodipodi:r1="42.323208"
       sodipodi:r2="21.161604"
       sodipodi:arg1="0.48624263"
       sodipodi:arg2="0.93504158"
       inkscape:flatsided="false"
       inkscape:rounded="0"
       inkscape:randomized="0"
       d="m 97.286108,196.23939 -24.852292,-2.75082 -4.698887,24.55858 -13.344476,-21.14541 -22.130379,11.63829 8.212002,-23.61708 -22.897244,-10.04588 23.584675,-8.3046 -6.422018,-24.16529 21.197607,13.26141 14.889119,-20.08775 2.848309,24.84131 24.988445,-0.88372 -17.645824,17.71519 z"
       inkscape:transform-center-x="-0.17222182"
       inkscape:transform-center-y="-0.03311488"
       transform="matrix(-0.09838337,0,0,-0.09392611,58.853864,241.31778)" />
    <path
       sodipodi:type="star"
       style="display:inline;opacity:1;fill:#ffffff;fill-opacity:1;stroke:none;stroke-width:9.86499977;stroke-miterlimit:4;stroke-dasharray:none;stroke-opacity:1"
       id="path4570-0-6"
       sodipodi:sides="7"
       sodipodi:cx="59.868374"
       sodipodi:cy="176.46144"
       sodipodi:r1="42.323208"
       sodipodi:r2="21.161604"
       sodipodi:arg1="0.48624263"
       sodipodi:arg2="0.93504158"
       inkscape:flatsided="false"
       inkscape:rounded="0"
       inkscape:randomized="0"
       d="m 97.286108,196.23939 -24.852292,-2.75082 -4.698887,24.55858 -13.344476,-21.14541 -22.130379,11.63829 8.212002,-23.61708 -22.897244,-10.04588 23.584675,-8.3046 -6.422018,-24.16529 21.197607,13.26141 14.889119,-20.08775 2.848309,24.84131 24.988445,-0.88372 -17.645824,17.71519 z"
       inkscape:transform-center-x="-0.17222182"
       inkscape:transform-center-y="-0.03311488"
       transform="matrix(-0.09838337,0,0,-0.09392611,139.20643,178.973)" />
    <path
       sodipodi:type="star"
       style="display:inline;opacity:1;fill:#ffffff;fill-opacity:1;stroke:none;stroke-width:9.86499977;stroke-miterlimit:4;stroke-dasharray:none;stroke-opacity:1"
       id="path4570-0-5"
       sodipodi:sides="7"
       sodipodi:cx="59.868374"
       sodipodi:cy="176.46144"
       sodipodi:r1="42.323208"
       sodipodi:r2="21.161604"
       sodipodi:arg1="0.48624263"
       sodipodi:arg2="0.93504158"
       inkscape:flatsided="false"
       inkscape:rounded="0"
       inkscape:randomized="0"
       d="m 97.286108,196.23939 -24.852292,-2.75082 -4.698887,24.55858 -13.344476,-21.14541 -22.130379,11.63829 8.212002,-23.61708 -22.897244,-10.04588 23.584675,-8.3046 -6.422018,-24.16529 21.197607,13.26141 14.889119,-20.08775 2.848309,24.84131 24.988445,-0.88372 -17.645824,17.71519 z"
       inkscape:transform-center-x="-0.17222182"
       inkscape:transform-center-y="-0.03311488"
       transform="matrix(-0.09838337,0,0,-0.09392611,178.17474,181.81892)" />
    <path
       sodipodi:type="star"
       style="display:inline;opacity:1;fill:#ffffff;fill-opacity:1;stroke:none;stroke-width:9.86499977;stroke-miterlimit:4;stroke-dasharray:none;stroke-opacity:1"
       id="path4570-0-7"
       sodipodi:sides="7"
       sodipodi:cx="59.868374"
       sodipodi:cy="176.46144"
       sodipodi:r1="42.323208"
       sodipodi:r2="21.161604"
       sodipodi:arg1="0.48624263"
       sodipodi:arg2="0.93504158"
       inkscape:flatsided="false"
       inkscape:rounded="0"
       inkscape:randomized="0"
       d="m 97.286108,196.23939 -24.852292,-2.75082 -4.698887,24.55858 -13.344476,-21.14541 -22.130379,11.63829 8.212002,-23.61708 -22.897244,-10.04588 23.584675,-8.3046 -6.422018,-24.16529 21.197607,13.26141 14.889119,-20.08775 2.848309,24.84131 24.988445,-0.88372 -17.645824,17.71519 z"
       inkscape:transform-center-x="-0.17222182"
       inkscape:transform-center-y="-0.03311488"
       transform="matrix(-0.09838337,0,0,-0.09392611,133.58491,118.16606)" />
    <path
       sodipodi:type="star"
       style="display:inline;opacity:1;fill:#ffffff;fill-opacity:1;stroke:none;stroke-width:9.86499977;stroke-miterlimit:4;stroke-dasharray:none;stroke-opacity:1"
       id="path4570-0-14"
       sodipodi:sides="7"
       sodipodi:cx="59.868374"
       sodipodi:cy="176.46144"
       sodipodi:r1="42.323208"
       sodipodi:r2="21.161604"
       sodipodi:arg1="0.48624263"
       sodipodi:arg2="0.93504158"
       inkscape:flatsided="false"
       inkscape:rounded="0"
       inkscape:randomized="0"
       d="m 97.286108,196.23939 -24.852292,-2.75082 -4.698887,24.55858 -13.344476,-21.14541 -22.130379,11.63829 8.212002,-23.61708 -22.897244,-10.04588 23.584675,-8.3046 -6.422018,-24.16529 21.197607,13.26141 14.889119,-20.08775 2.848309,24.84131 24.988445,-0.88372 -17.645824,17.71519 z"
       inkscape:transform-center-x="-0.17222182"
       inkscape:transform-center-y="-0.03311488"
       transform="matrix(-0.09838337,0,0,-0.09392611,62.587147,140.05542)" />
    <path
       sodipodi:type="star"
       style="display:inline;opacity:1;fill:#ffffff;fill-opacity:1;stroke:none;stroke-width:9.86499977;stroke-miterlimit:4;stroke-dasharray:none;stroke-opacity:1"
       id="path4570-0-48"
       sodipodi:sides="7"
       sodipodi:cx="59.868374"
       sodipodi:cy="176.46144"
       sodipodi:r1="42.323208"
       sodipodi:r2="21.161604"
       sodipodi:arg1="0.48624263"
       sodipodi:arg2="0.93504158"
       inkscape:flatsided="false"
       inkscape:rounded="0"
       inkscape:randomized="0"
       d="m 97.286108,196.23939 -24.852292,-2.75082 -4.698887,24.55858 -13.344476,-21.14541 -22.130379,11.63829 8.212002,-23.61708 -22.897244,-10.04588 23.584675,-8.3046 -6.422018,-24.16529 21.197607,13.26141 14.889119,-20.08775 2.848309,24.84131 24.988445,-0.88372 -17.645824,17.71519 z"
       inkscape:transform-center-x="-0.17222182"
       inkscape:transform-center-y="-0.03311488"
       transform="matrix(-0.09838337,0,0,-0.09392611,49.757324,255.82894)" />
    <path
       sodipodi:type="star"
       style="display:inline;opacity:1;fill:#ffffff;fill-opacity:1;stroke:none;stroke-width:9.86499977;stroke-miterlimit:4;stroke-dasharray:none;stroke-opacity:1"
       id="path4570-0-79"
       sodipodi:sides="7"
       sodipodi:cx="59.868374"
       sodipodi:cy="176.46144"
       sodipodi:r1="42.323208"
       sodipodi:r2="21.161604"
       sodipodi:arg1="0.48624263"
       sodipodi:arg2="0.93504158"
       inkscape:flatsided="false"
       inkscape:rounded="0"
       inkscape:randomized="0"
       d="m 97.286108,196.23939 -24.852292,-2.75082 -4.698887,24.55858 -13.344476,-21.14541 -22.130379,11.63829 8.212002,-23.61708 -22.897244,-10.04588 23.584675,-8.3046 -6.422018,-24.16529 21.197607,13.26141 14.889119,-20.08775 2.848309,24.84131 24.988445,-0.88372 -17.645824,17.71519 z"
       inkscape:transform-center-x="-0.17222182"
       inkscape:transform-center-y="-0.03311488"
       transform="matrix(-0.09838337,0,0,-0.09392611,197.61153,228.04714)" />
    <path
       sodipodi:type="star"
       style="display:inline;opacity:1;fill:#ffffff;fill-opacity:1;stroke:none;stroke-width:9.86499977;stroke-miterlimit:4;stroke-dasharray:none;stroke-opacity:1"
       id="path4570-0-92"
       sodipodi:sides="7"
       sodipodi:cx="59.868374"
       sodipodi:cy="176.46144"
       sodipodi:r1="42.323208"
       sodipodi:r2="21.161604"
       sodipodi:arg1="0.48624263"
       sodipodi:arg2="0.93504158"
       inkscape:flatsided="false"
       inkscape:rounded="0"
       inkscape:randomized="0"
       d="m 97.286108,196.23939 -24.852292,-2.75082 -4.698887,24.55858 -13.344476,-21.14541 -22.130379,11.63829 8.212002,-23.61708 -22.897244,-10.04588 23.584675,-8.3046 -6.422018,-24.16529 21.197607,13.26141 14.889119,-20.08775 2.848309,24.84131 24.988445,-0.88372 -17.645824,17.71519 z"
       inkscape:transform-center-x="-0.17222182"
       inkscape:transform-center-y="-0.03311488"
       transform="matrix(-0.09838337,0,0,-0.09392611,131.1891,138.37996)" />
    <path
       sodipodi:type="star"
       style="display:inline;opacity:1;fill:#ffffff;fill-opacity:1;stroke:none;stroke-width:9.86499977;stroke-miterlimit:4;stroke-dasharray:none;stroke-opacity:1"
       id="path4570-0-99"
       sodipodi:sides="7"
       sodipodi:cx="59.868374"
       sodipodi:cy="176.46144"
       sodipodi:r1="42.323208"
       sodipodi:r2="21.161604"
       sodipodi:arg1="0.48624263"
       sodipodi:arg2="0.93504158"
       inkscape:flatsided="false"
       inkscape:rounded="0"
       inkscape:randomized="0"
       d="m 97.286108,196.23939 -24.852292,-2.75082 -4.698887,24.55858 -13.344476,-21.14541 -22.130379,11.63829 8.212002,-23.61708 -22.897244,-10.04588 23.584675,-8.3046 -6.422018,-24.16529 21.197607,13.26141 14.889119,-20.08775 2.848309,24.84131 24.988445,-0.88372 -17.645824,17.71519 z"
       inkscape:transform-center-x="-0.17222182"
       inkscape:transform-center-y="-0.03311488"
       transform="matrix(-0.09838337,0,0,-0.09392611,61.976614,218.34345)" />
    <path
       sodipodi:type="star"
       style="display:inline;opacity:1;fill:#ffffff;fill-opacity:1;stroke:none;stroke-width:9.86499977;stroke-miterlimit:4;stroke-dasharray:none;stroke-opacity:1"
       id="path4570-0-57"
       sodipodi:sides="7"
       sodipodi:cx="59.868374"
       sodipodi:cy="176.46144"
       sodipodi:r1="42.323208"
       sodipodi:r2="21.161604"
       sodipodi:arg1="0.48624263"
       sodipodi:arg2="0.93504158"
       inkscape:flatsided="false"
       inkscape:rounded="0"
       inkscape:randomized="0"
       d="m 97.286108,196.23939 -24.852292,-2.75082 -4.698887,24.55858 -13.344476,-21.14541 -22.130379,11.63829 8.212002,-23.61708 -22.897244,-10.04588 23.584675,-8.3046 -6.422018,-24.16529 21.197607,13.26141 14.889119,-20.08775 2.848309,24.84131 24.988445,-0.88372 -17.645824,17.71519 z"
       inkscape:transform-center-x="-0.17222182"
       inkscape:transform-center-y="-0.03311488"
       transform="matrix(-0.09838337,0,0,-0.09392611,190.31115,195.32916)" />
    <path
       sodipodi:type="star"
       style="display:inline;opacity:1;fill:#ffffff;fill-opacity:1;stroke:none;stroke-width:9.86499977;stroke-miterlimit:4;stroke-dasharray:none;stroke-opacity:1"
       id="path4570-0-08"
       sodipodi:sides="7"
       sodipodi:cx="59.868374"
       sodipodi:cy="176.46144"
       sodipodi:r1="42.323208"
       sodipodi:r2="21.161604"
       sodipodi:arg1="0.48624263"
       sodipodi:arg2="0.93504158"
       inkscape:flatsided="false"
       inkscape:rounded="0"
       inkscape:randomized="0"
       d="m 97.286108,196.23939 -24.852292,-2.75082 -4.698887,24.55858 -13.344476,-21.14541 -22.130379,11.63829 8.212002,-23.61708 -22.897244,-10.04588 23.584675,-8.3046 -6.422018,-24.16529 21.197607,13.26141 14.889119,-20.08775 2.848309,24.84131 24.988445,-0.88372 -17.645824,17.71519 z"
       inkscape:transform-center-x="-0.17222182"
       inkscape:transform-center-y="-0.03311488"
       transform="matrix(-0.09838337,0,0,-0.09392611,37.134701,210.32711)" />
    <path
       sodipodi:type="star"
       style="display:inline;opacity:1;fill:#ffffff;fill-opacity:1;stroke:none;stroke-width:9.86499977;stroke-miterlimit:4;stroke-dasharray:none;stroke-opacity:1"
       id="path4570-0-67"
       sodipodi:sides="7"
       sodipodi:cx="59.868374"
       sodipodi:cy="176.46144"
       sodipodi:r1="42.323208"
       sodipodi:r2="21.161604"
       sodipodi:arg1="0.48624263"
       sodipodi:arg2="0.93504158"
       inkscape:flatsided="false"
       inkscape:rounded="0"
       inkscape:randomized="0"
       d="m 97.286108,196.23939 -24.852292,-2.75082 -4.698887,24.55858 -13.344476,-21.14541 -22.130379,11.63829 8.212002,-23.61708 -22.897244,-10.04588 23.584675,-8.3046 -6.422018,-24.16529 21.197607,13.26141 14.889119,-20.08775 2.848309,24.84131 24.988445,-0.88372 -17.645824,17.71519 z"
       inkscape:transform-center-x="-0.17222182"
       inkscape:transform-center-y="-0.03311488"
       transform="matrix(-0.09838337,0,0,-0.09392611,46.872448,169.71298)" />
    <path
       sodipodi:type="star"
       style="display:inline;opacity:1;fill:#ffffff;fill-opacity:1;stroke:none;stroke-width:9.86499977;stroke-miterlimit:4;stroke-dasharray:none;stroke-opacity:1"
       id="path4570-0-23"
       sodipodi:sides="7"
       sodipodi:cx="59.868374"
       sodipodi:cy="176.46144"
       sodipodi:r1="42.323208"
       sodipodi:r2="21.161604"
       sodipodi:arg1="0.48624263"
       sodipodi:arg2="0.93504158"
       inkscape:flatsided="false"
       inkscape:rounded="0"
       inkscape:randomized="0"
       d="m 97.286108,196.23939 -24.852292,-2.75082 -4.698887,24.55858 -13.344476,-21.14541 -22.130379,11.63829 8.212002,-23.61708 -22.897244,-10.04588 23.584675,-8.3046 -6.422018,-24.16529 21.197607,13.26141 14.889119,-20.08775 2.848309,24.84131 24.988445,-0.88372 -17.645824,17.71519 z"
       inkscape:transform-center-x="-0.17222182"
       inkscape:transform-center-y="-0.03311488"
       transform="matrix(-0.09838337,0,0,-0.09392611,128.19871,230.20316)" />
  </g>
  <g
     inkscape:groupmode="layer"
     id="layer3"
     inkscape:label="Middle"
     style="display:inline"
     transform="translate(0,20)">
    <g
       id="g1029"
       transform="matrix(4.5443852,0,0,4.5443852,81.041356,35.467375)">
      <path
         id="path1015"
         d="M 0,0 H 24 V 24 H 0 Z"
         inkscape:connector-curvature="0"
         style="fill:none" />
      <path
         id="path1017"
         d="M 12.372406,1.9999999 H 0.37240648 c -1.1,0 -1.99999998,0.9 -1.99999998,2 V 20 c 0,1.1 0.89999998,2 1.99999998,2 H 12.372406 c 1.1,0 2,-0.9 2,-2 V 3.9999999 c 0,-1.1 -0.9,-2 -2,-2 z m -11.99999952,2 H 5.3724065 V 12 l -2.5,-1.5 -2.50000002,1.5 z"
         inkscape:connector-curvature="0"
         style="fill:#f6b600;fill-opacity:0.87323943" />
    </g>
    <g
       aria-label="diary"
       transform="matrix(0.47570002,0,0,0.47570002,-56.711813,-110.80088)"
       style="font-style:normal;font-weight:normal;font-size:40px;line-height:1.25;font-family:sans-serif;letter-spacing:0px;word-spacing:0px;fill:#000000;fill-opacity:1;stroke:none"
       id="flowRoot1067">
      <path
         d="m 304.79883,473.81938 q 0,-1.44531 0.35156,-3.04687 0.39063,-1.60156 1.17188,-2.96875 0.82031,-1.36719 2.03125,-2.22656 1.25,-0.89844 3.04687,-0.89844 0.9375,0 1.875,0.27344 0.9375,0.27343 1.91406,0.78125 1.01563,0.50781 2.07032,1.21093 1.09375,0.66407 2.30468,1.48438 0.15625,-1.5625 -0.11718,-3.20313 -0.27344,-1.67968 -0.70313,-3.28125 -0.42969,-1.60156 -0.89844,-3.00781 -0.42968,-1.44531 -0.625,-2.57812 -0.19531,-1.13282 -0.0391,-1.875 0.15625,-0.74219 0.9375,-0.9375 1.05469,0.78125 1.79688,2.22656 0.78125,1.40625 1.32812,3.28125 0.54688,1.875 0.89844,4.02344 0.35156,2.10937 0.58594,4.29687 0.23437,2.1875 0.35156,4.25781 0.15625,2.07032 0.3125,3.82813 0.15625,1.71875 0.27344,2.96875 0.15625,1.21094 0.42968,1.71875 0,0.625 -0.46875,0.78125 -0.42968,0.15625 -0.89843,0.15625 -0.39063,0 -0.66407,-0.27344 -0.27343,-0.3125 -0.42968,-0.70312 -0.15625,-0.39063 -0.3125,-0.85938 -0.11719,-0.50781 -0.27344,-0.89844 -0.15625,-0.42968 -0.35156,-0.70312 -0.19532,-0.27344 -0.50782,-0.27344 -0.0781,0 -0.23437,0.0391 -0.11719,0 -0.11719,0.0391 -0.74219,1.01562 -1.75781,1.99218 -0.97656,0.9375 -2.1875,1.67969 -1.17188,0.70313 -2.5,1.13281 -1.28906,0.42969 -2.61719,0.42969 -1.48437,0 -2.61719,-0.97656 -1.09375,-0.97656 -1.875,-2.34375 -0.74218,-1.36719 -1.13281,-2.89063 -0.35156,-1.52343 -0.35156,-2.65625 z m 2.42187,0.70313 q 0.39063,1.40625 0.70313,2.46094 0.3125,1.05468 0.74219,1.71875 0.46875,0.66406 1.09375,1.01562 0.625,0.3125 1.64062,0.3125 1.25,0 2.65625,-0.70312 1.40625,-0.74219 2.61719,-1.875 1.21094,-1.13282 1.99219,-2.46094 0.78125,-1.36719 0.78125,-2.61719 0,-0.11719 0,-0.46875 0,-0.35156 0,-0.46875 -2.07032,-2.03125 -3.82813,-2.89062 -1.71875,-0.89844 -3.08594,-0.89844 -1.36718,-0.0391 -2.38281,0.58594 -1.01562,0.625 -1.67969,1.64062 -0.66406,1.01563 -0.97656,2.26563 -0.3125,1.25 -0.27344,2.38281 z"
         style="font-style:normal;font-variant:normal;font-weight:normal;font-stretch:normal;font-family:'Indie Flower';-inkscape-font-specification:'Indie Flower';letter-spacing:2.75874138px"
         id="path871" />
      <path
         d="m 330.29194,469.17095 q 0,-0.15625 0,-0.58594 0,-0.42969 0,-0.89844 0.0391,-0.46875 0.0391,-0.89844 0,-0.42968 0,-0.58593 -0.15625,-1.21094 0.70312,-1.21094 0.39063,0 0.66406,0.19531 0.27344,0.19531 0.50782,0.58594 -0.11719,2.03125 0.15625,3.94531 0.3125,1.875 0.66406,3.75 0.39062,1.83594 0.70312,3.71094 0.35157,1.875 0.35157,3.90625 0,0.54687 -0.35157,1.09375 -0.3125,0.54687 -0.97656,0.54687 -0.50781,0 -0.89844,-0.85937 -0.35156,-0.89844 -0.625,-2.22656 -0.27343,-1.36719 -0.46875,-3.00782 -0.19531,-1.64062 -0.3125,-3.125 -0.0781,-1.52343 -0.11718,-2.69531 -0.0391,-1.21094 -0.0391,-1.64062 z m -1.99218,-9.80469 q 0,-0.46875 0.27343,-0.58594 0.27344,-0.15625 0.70313,-0.15625 0.27344,-0.0391 0.70312,0.35156 0.46875,0.35157 0.74219,0.82032 0.3125,0.46875 0.35156,0.85937 0.0391,0.46875 -0.58593,0.54688 h -0.19532 q -0.58593,0 -0.97656,-0.0781 -0.39062,-0.0781 -0.625,-0.23437 -0.19531,-0.19532 -0.3125,-0.54688 -0.0781,-0.35156 -0.0781,-0.97656 z"
         style="font-style:normal;font-variant:normal;font-weight:normal;font-stretch:normal;font-family:'Indie Flower';-inkscape-font-specification:'Indie Flower';letter-spacing:2.75874138px"
         id="path873" />
      <path
         d="m 338.36319,476.08501 q 0.0391,-0.66406 0.39062,-1.52344 0.35156,-0.85937 1.09375,-1.67969 0.74219,-0.82031 1.875,-1.44531 1.13281,-0.66406 2.65625,-0.9375 1.5625,-0.27344 3.51563,-0.0391 1.99218,0.23437 4.41406,1.17187 0,-0.0391 0,-0.39062 l -0.0391,-0.35156 q 0,-1.01563 -0.58594,-2.07032 -0.58594,-1.05468 -1.52344,-1.875 -0.89844,-0.85937 -1.95312,-1.36718 -1.05469,-0.54688 -2.03125,-0.54688 -0.39063,0 -0.70313,0.11719 -0.27344,0.11719 -0.54687,0.3125 -0.27344,0.15625 -0.54688,0.3125 -0.23437,0.11719 -0.58594,0.11719 -0.0781,0 -0.0781,-0.0391 -0.0391,-0.0391 -0.0781,-0.0781 -0.0781,-0.0781 -0.23437,-0.19531 -0.11719,-0.11719 -0.11719,-0.15625 0,-0.70313 0.23438,-1.21094 0.27343,-0.50781 0.70312,-0.82031 0.46875,-0.3125 1.01563,-0.46875 0.58593,-0.19532 1.21093,-0.19532 1.5625,0.15625 2.96875,0.97657 1.44532,0.78125 2.61719,1.99218 1.21094,1.21094 2.10938,2.8125 0.89843,1.5625 1.48437,3.28125 0.625,1.67969 0.82031,3.39844 0.23438,1.79688 0.0391,3.35938 -0.0391,0 -0.23438,0 -0.19531,-0.0391 -0.42969,-0.0391 -0.23437,-0.0391 -0.39062,-0.0781 l -0.19531,-0.0391 q -0.82032,-1.83594 -1.83594,-2.96875 -1.01563,-1.13282 -2.03125,-1.75782 -0.97656,-0.66406 -1.83594,-0.89843 -0.85937,-0.27344 -1.40625,-0.39063 -0.58594,0 -1.40625,0.0781 -0.78125,0.0781 -1.64062,0.27343 -0.85938,0.19532 -1.75782,0.54688 -0.85937,0.3125 -1.5625,0.78125 -0.66406,0.46875 -1.09375,1.13281 -0.39062,0.625 -0.39062,1.48438 0,0.9375 0.74219,1.60156 0.74218,0.625 1.79687,1.05469 1.05469,0.39062 2.14844,0.54687 1.09375,0.15625 1.75781,0.15625 1.09375,0 2.14844,-0.11719 1.05469,-0.11718 2.07031,-0.27343 1.05469,-0.15625 2.07031,-0.27344 1.01563,-0.11719 2.03125,-0.11719 0.0781,0 0.27344,0 0.19531,0 0.39063,0.0391 0.23437,0 0.39062,0 0.19531,0 0.27344,0 0.3125,0.11719 0.35156,0.35157 0.0391,0.23437 0.0391,0.46875 0,0.23437 -0.50781,0.50781 -0.46875,0.27344 -1.25,0.54687 -0.78125,0.27344 -1.75781,0.58594 -0.9375,0.27344 -1.83594,0.46875 -0.85937,0.19531 -1.64062,0.35156 -0.74219,0.11719 -1.05469,0.11719 -1.64063,0 -3.47656,-0.27344 -1.83594,-0.27343 -3.35938,-0.97656 -1.52344,-0.74219 -2.53906,-2.03125 -0.97656,-1.28906 -0.97656,-3.32031 z"
         style="font-style:normal;font-variant:normal;font-weight:normal;font-stretch:normal;font-family:'Indie Flower';-inkscape-font-specification:'Indie Flower';letter-spacing:2.75874138px"
         id="path875" />
      <path
         d="m 364.91099,482.68657 q -0.85938,-1.5625 -1.48438,-3.39844 -0.625,-1.83593 -1.05468,-3.71093 -0.42969,-1.875 -0.70313,-3.63282 -0.23437,-1.79687 -0.3125,-3.24218 0,-0.27344 -0.0391,-0.58594 -0.0391,-0.35156 -0.0391,-0.70313 0.0391,-0.35156 0.11718,-0.66406 0.11719,-0.3125 0.35157,-0.54687 h 0.0781 q 0.0391,0 0.0391,0 0,-0.0391 0.0391,-0.0391 0.0391,0 0.0391,0.0391 0,0 0.0781,0 h 0.0781 q 0.0781,0.0391 0.39062,0.15625 0.3125,0.11718 0.39063,0.19531 0.70312,-0.23438 1.44531,-0.54688 0.74219,-0.35156 1.48438,-0.625 0.78125,-0.3125 1.5625,-0.50781 0.78125,-0.19531 1.52343,-0.19531 0.54688,0 0.9375,0.0391 0.42969,0.0391 0.82032,0.15625 0.42968,0.0781 0.89843,0.23438 0.46875,0.11718 1.09375,0.3125 0.3125,0.23437 0.54688,0.46875 0.27344,0.19531 0.46875,0.46875 0.23437,0.27343 0.35156,0.66406 0.11719,0.39062 0.11719,1.01562 -0.625,0.0781 -1.48438,-0.0781 -0.82031,-0.19531 -1.75781,-0.46875 -0.89844,-0.27344 -1.875,-0.46875 -0.97656,-0.19531 -1.875,-0.15625 -0.89844,0.0391 -1.67969,0.50781 -0.82031,0.39063 -1.44531,1.40625 -0.27344,1.13281 -0.23437,2.22656 0.0391,1.09375 0.27343,2.14844 0.23438,1.01563 0.58594,2.07031 0.39063,1.01563 0.70313,2.07032 0.35156,1.01562 0.625,2.03125 0.27343,1.01562 0.35156,2.07031 0,0.39062 -0.42969,0.85937 -0.42969,0.42969 -0.97656,0.42969 z"
         style="font-style:normal;font-variant:normal;font-weight:normal;font-stretch:normal;font-family:'Indie Flower';-inkscape-font-specification:'Indie Flower';letter-spacing:2.75874138px"
         id="path877" />
      <path
         d="m 379.07598,494.87407 q 0,-0.27344 0,-0.54687 0,-0.23438 0.0781,-0.42969 0.0781,-0.15625 0.23437,-0.27344 0.23438,-0.0781 0.54688,-0.0781 0.58593,0.66406 1.48437,1.67968 0.9375,1.05469 2.10938,2.03125 1.17187,0.97657 2.46093,1.71875 1.28907,0.74219 2.61719,0.74219 1.09375,-0.0391 1.875,-0.58594 0.78125,-0.50781 1.32813,-1.36718 0.54687,-0.85938 0.89843,-1.95313 0.35157,-1.09375 0.54688,-2.22656 0.23437,-1.13281 0.3125,-2.1875 0.11719,-1.05469 0.23437,-1.83594 0.0781,-0.39062 0.15625,-1.32812 0.11719,-0.89844 0.19532,-2.03125 0.11718,-1.09375 0.15625,-2.30469 0.0781,-1.21094 0,-2.1875 -0.0781,-1.01563 -0.3125,-1.64063 -0.23438,-0.66406 -0.70313,-0.66406 -0.66406,0 -1.40625,0.39063 -0.74219,0.39062 -1.5625,0.89843 -0.78125,0.46875 -1.60156,0.85938 -0.82031,0.39062 -1.60156,0.39062 -1.48438,0 -2.73438,-0.58593 -1.21094,-0.625 -2.22656,-1.60157 -1.01563,-0.97656 -1.79688,-2.26562 -0.78125,-1.32813 -1.32812,-2.73438 -0.50781,-1.40625 -0.78125,-2.8125 -0.23438,-1.40625 -0.23438,-2.65625 0,-0.27343 -0.0781,-0.89843 -0.0391,-0.625 0.0391,-1.28907 0.0781,-0.66406 0.35156,-1.17187 0.27344,-0.50781 0.85938,-0.50781 0.15625,0 0.23437,0.625 0.11719,0.625 0.23438,1.64062 0.15625,0.97656 0.35156,2.26563 0.23438,1.28906 0.58594,2.61718 0.35156,1.32813 0.85937,2.61719 0.50782,1.28906 1.25,2.30469 0.74219,0.97656 1.75782,1.60156 1.05468,0.625 2.38281,0.625 0.85937,0 1.79687,-0.35156 0.9375,-0.39063 1.75782,-0.97656 0.85937,-0.58594 1.5625,-1.32813 0.70312,-0.78125 1.09375,-1.52344 0,-0.15625 -0.0391,-0.74218 -0.0391,-0.58594 -0.0781,-1.32813 -0.0391,-0.78125 -0.0781,-1.67969 -0.0391,-0.89843 -0.0781,-1.67968 -0.0391,-0.82032 -0.0781,-1.40625 0,-0.58594 0,-0.74219 0.0781,-2.38281 0.35157,-2.89063 0.27343,-0.54687 0.66406,0.3125 0.39062,0.85938 0.82031,2.89063 0.42969,2.03125 0.78125,4.76562 0.39063,2.69532 0.58594,5.89844 0.23437,3.20313 0.19531,6.40625 -0.0391,3.24219 -0.42969,6.25 -0.35156,3.00781 -1.17187,5.3125 -0.82031,2.34375 -2.14844,3.78906 -1.32812,1.44532 -3.28125,1.52344 -0.78125,0 -1.875,-0.3125 -1.05469,-0.27344 -2.14844,-0.78125 -1.09375,-0.50781 -2.1875,-1.21094 -1.05468,-0.70312 -1.91406,-1.52343 -0.82031,-0.82032 -1.36719,-1.71875 -0.50781,-0.89844 -0.50781,-1.79688 z"
         style="font-style:normal;font-variant:normal;font-weight:normal;font-stretch:normal;font-family:'Indie Flower';-inkscape-font-specification:'Indie Flower';letter-spacing:2.75874138px"
         id="path879" />
    </g>
    <path
       style="fill:#000000;fill-opacity:1;stroke:none;stroke-width:0.26458332px;stroke-linecap:butt;stroke-linejoin:miter;stroke-opacity:1"
       d="m 113.07391,71.898839 11.97367,-0.748353 13.47038,0.935443 z"
       id="path1075"
       inkscape:connector-curvature="0" />
    <path
       style="fill:#000000;fill-opacity:1;stroke:none;stroke-width:0.21603136px;stroke-linecap:butt;stroke-linejoin:miter;stroke-opacity:1"
       d="m 113.44854,80.366037 11.03823,0.748354 9.9157,-0.87308 h 3.74177 l -0.74835,-0.623628 z"
       id="path1077"
       inkscape:connector-curvature="0" />
    <path
       style="fill:#000000;fill-opacity:1;stroke:none;stroke-width:0.3429603px;stroke-linecap:butt;stroke-linejoin:miter;stroke-opacity:1"
       d="m 112.16924,63.525967 17.99502,0.01503 9.25928,-1.341246 -25.90041,1.326226 z"
       id="path1079"
       inkscape:connector-curvature="0" />
  </g>
</svg>
