<?xml version="1.0" encoding="UTF-8" standalone="no"?>
<!-- Created with Inkscape (http://www.inkscape.org/) -->

<svg
   xmlns:dc="http://purl.org/dc/elements/1.1/"
   xmlns:cc="http://creativecommons.org/ns#"
   xmlns:rdf="http://www.w3.org/1999/02/22-rdf-syntax-ns#"
   xmlns:svg="http://www.w3.org/2000/svg"
   xmlns="http://www.w3.org/2000/svg"
   xmlns:xlink="http://www.w3.org/1999/xlink"
   xmlns:sodipodi="http://sodipodi.sourceforge.net/DTD/sodipodi-0.dtd"
   xmlns:inkscape="http://www.inkscape.org/namespaces/inkscape"
   width="800mm"
   height="220mm"
   viewBox="0 0 800 220"
   version="1.1"
   id="svg8"
   sodipodi:docname="logo_no_font.svg"
   inkscape:version="0.92.3 (2405546, 2018-03-11)">
  <defs
     id="defs2">
    <linearGradient
       inkscape:collect="always"
       id="linearGradient4566">
      <stop
         style="stop-color:#003c63;stop-opacity:1"
         offset="0"
         id="stop4562" />
      <stop
         style="stop-color:#005084;stop-opacity:1"
         offset="1"
         id="stop4564" />
    </linearGradient>
    <linearGradient
       inkscape:collect="always"
       xlink:href="#linearGradient4566"
       id="linearGradient4568"
       x1="10.865616"
       y1="197"
       x2="189.13438"
       y2="197"
       gradientUnits="userSpaceOnUse"
       gradientTransform="translate(26.688888,-229.94117)" />
  </defs>
  <sodipodi:namedview
     id="base"
     pagecolor="#ffffff"
     bordercolor="#666666"
     borderopacity="1.0"
     inkscape:pageopacity="0.0"
     inkscape:pageshadow="2"
     inkscape:zoom="0.35355339"
     inkscape:cx="1800.9113"
     inkscape:cy="301.59991"
     inkscape:document-units="mm"
     inkscape:current-layer="layer3"
     showgrid="false"
     inkscape:window-width="2560"
     inkscape:window-height="1377"
     inkscape:window-x="2992"
     inkscape:window-y="725"
     inkscape:window-maximized="1"
     showguides="true"
     inkscape:guide-bbox="true" />
  <metadata
     id="metadata5">
    <rdf:RDF>
      <cc:Work
         rdf:about="">
        <dc:format>image/svg+xml</dc:format>
        <dc:type
           rdf:resource="http://purl.org/dc/dcmitype/StillImage" />
        <dc:title></dc:title>
      </cc:Work>
    </rdf:RDF>
  </metadata>
  <g
     inkscape:groupmode="layer"
     id="layer2"
     inkscape:label="Back"
     style="display:inline"
     transform="translate(0,20)">
    <circle
       style="opacity:1;fill:url(#linearGradient4568);fill-opacity:1;stroke:#181818;stroke-width:5.96500015;stroke-miterlimit:4;stroke-dasharray:none;stroke-opacity:1"
       id="path4518"
       cx="126.68889"
       cy="-32.941162"
       r="89.134384"
       transform="rotate(56.559587)" />
  </g>
  <g
     inkscape:label="Ebene 1"
     inkscape:groupmode="layer"
     id="layer1"
     transform="translate(0,-77)"
     style="display:inline">
    <path
       style="opacity:1;fill:#fffffb;fill-opacity:1;stroke:none;stroke-width:4.73537016;stroke-miterlimit:4;stroke-dasharray:none;stroke-opacity:1"
       d="m 53.272547,183.77724 a 17.194818,20.125702 64.157964 0 1 -24.181668,-7.33049 17.194818,20.125702 64.157964 0 1 9.2559,-23.51493 21.680911,21.401586 64.157964 0 0 -0.02493,19.04414 21.680911,21.401586 64.157964 0 0 14.950693,11.80128 z"
       id="path4655"
       inkscape:connector-curvature="0" />
    <path
       sodipodi:type="star"
       style="display:inline;opacity:1;fill:#ffffff;fill-opacity:1;stroke:none;stroke-width:9.86499977;stroke-miterlimit:4;stroke-dasharray:none;stroke-opacity:1"
       id="path4570"
       sodipodi:sides="7"
       sodipodi:cx="59.868374"
       sodipodi:cy="176.46144"
       sodipodi:r1="42.323208"
       sodipodi:r2="21.161604"
       sodipodi:arg1="0.48624263"
       sodipodi:arg2="0.93504158"
       inkscape:flatsided="false"
       inkscape:rounded="0"
       inkscape:randomized="0"
       d="m 97.286108,196.23939 -24.852292,-2.75082 -4.698887,24.55858 -13.344476,-21.14541 -22.130379,11.63829 8.212002,-23.61708 -22.897244,-10.04588 23.584675,-8.3046 -6.422018,-24.16529 21.197607,13.26141 14.889119,-20.08775 2.848309,24.84131 24.988445,-0.88372 -17.645824,17.71519 z"
       inkscape:transform-center-x="-9.2939689"
       inkscape:transform-center-y="4.7545161"
       transform="matrix(-0.08789948,0.0441924,-0.04219027,-0.0839172,27.833576,167.18421)" />
    <path
       sodipodi:type="star"
       style="display:inline;opacity:1;fill:#ffffff;fill-opacity:1;stroke:none;stroke-width:9.86499977;stroke-miterlimit:4;stroke-dasharray:none;stroke-opacity:1"
       id="path4570-1"
       sodipodi:sides="7"
       sodipodi:cx="59.868374"
       sodipodi:cy="176.46144"
       sodipodi:r1="42.323208"
       sodipodi:r2="21.161604"
       sodipodi:arg1="0.48624263"
       sodipodi:arg2="0.93504158"
       inkscape:flatsided="false"
       inkscape:rounded="0"
       inkscape:randomized="0"
       d="m 97.286108,196.23939 -24.852292,-2.75082 -4.698887,24.55858 -13.344476,-21.14541 -22.130379,11.63829 8.212002,-23.61708 -22.897244,-10.04588 23.584675,-8.3046 -6.422018,-24.16529 21.197607,13.26141 14.889119,-20.08775 2.848309,24.84131 24.988445,-0.88372 -17.645824,17.71519 z"
       inkscape:transform-center-x="-36.278629"
       inkscape:transform-center-y="-5.1428038"
       transform="matrix(-0.08789948,0.0441924,-0.04219027,-0.0839172,159.20434,144.22872)" />
    <path
       sodipodi:type="star"
       style="display:inline;opacity:1;fill:#ffffff;fill-opacity:1;stroke:none;stroke-width:9.86499977;stroke-miterlimit:4;stroke-dasharray:none;stroke-opacity:1"
       id="path4570-0"
       sodipodi:sides="7"
       sodipodi:cx="59.868374"
       sodipodi:cy="176.46144"
       sodipodi:r1="42.323208"
       sodipodi:r2="21.161604"
       sodipodi:arg1="0.48624263"
       sodipodi:arg2="0.93504158"
       inkscape:flatsided="false"
       inkscape:rounded="0"
       inkscape:randomized="0"
       d="m 97.286108,196.23939 -24.852292,-2.75082 -4.698887,24.55858 -13.344476,-21.14541 -22.130379,11.63829 8.212002,-23.61708 -22.897244,-10.04588 23.584675,-8.3046 -6.422018,-24.16529 21.197607,13.26141 14.889119,-20.08775 2.848309,24.84131 24.988445,-0.88372 -17.645824,17.71519 z"
       inkscape:transform-center-x="-0.17222182"
       inkscape:transform-center-y="-0.03311488"
       transform="matrix(-0.09838337,0,0,-0.09392611,102.25199,208.12838)" />
    <path
       sodipodi:type="star"
       style="display:inline;opacity:1;fill:#ffffff;fill-opacity:1;stroke:none;stroke-width:9.86499977;stroke-miterlimit:4;stroke-dasharray:none;stroke-opacity:1"
       id="path4570-4"
       sodipodi:sides="7"
       sodipodi:cx="59.868374"
       sodipodi:cy="176.46144"
       sodipodi:r1="42.323208"
       sodipodi:r2="21.161604"
       sodipodi:arg1="0.48624263"
       sodipodi:arg2="0.93504158"
       inkscape:flatsided="false"
       inkscape:rounded="0"
       inkscape:randomized="0"
       d="m 97.286108,196.23939 -24.852292,-2.75082 -4.698887,24.55858 -13.344476,-21.14541 -22.130379,11.63829 8.212002,-23.61708 -22.897244,-10.04588 23.584675,-8.3046 -6.422018,-24.16529 21.197607,13.26141 14.889119,-20.08775 2.848309,24.84131 24.988445,-0.88372 -17.645824,17.71519 z"
       inkscape:transform-center-x="-0.17222182"
       inkscape:transform-center-y="-0.03311488"
       transform="matrix(-0.09838337,0,0,-0.09392611,107.68225,160.58482)" />
    <path
       sodipodi:type="star"
       style="display:inline;opacity:1;fill:#ffffff;fill-opacity:1;stroke:none;stroke-width:9.86499977;stroke-miterlimit:4;stroke-dasharray:none;stroke-opacity:1"
       id="path4570-16"
       sodipodi:sides="7"
       sodipodi:cx="59.868374"
       sodipodi:cy="176.46144"
       sodipodi:r1="42.323208"
       sodipodi:r2="21.161604"
       sodipodi:arg1="0.48624263"
       sodipodi:arg2="0.93504158"
       inkscape:flatsided="false"
       inkscape:rounded="0"
       inkscape:randomized="0"
       d="m 97.286108,196.23939 -24.852292,-2.75082 -4.698887,24.55858 -13.344476,-21.14541 -22.130379,11.63829 8.212002,-23.61708 -22.897244,-10.04588 23.584675,-8.3046 -6.422018,-24.16529 21.197607,13.26141 14.889119,-20.08775 2.848309,24.84131 24.988445,-0.88372 -17.645824,17.71519 z"
       inkscape:transform-center-x="23.4991"
       inkscape:transform-center-y="37.464275"
       transform="matrix(-0.08789948,0.0441924,-0.04219027,-0.0839172,143.53168,255.91748)" />
    <path
       sodipodi:type="star"
       style="display:inline;opacity:1;fill:#ffffff;fill-opacity:1;stroke:none;stroke-width:9.86499977;stroke-miterlimit:4;stroke-dasharray:none;stroke-opacity:1"
       id="path4570-07"
       sodipodi:sides="7"
       sodipodi:cx="59.868374"
       sodipodi:cy="176.46144"
       sodipodi:r1="42.323208"
       sodipodi:r2="21.161604"
       sodipodi:arg1="0.48624263"
       sodipodi:arg2="0.93504158"
       inkscape:flatsided="false"
       inkscape:rounded="0"
       inkscape:randomized="0"
       d="m 97.286108,196.23939 -24.852292,-2.75082 -4.698887,24.55858 -13.344476,-21.14541 -22.130379,11.63829 8.212002,-23.61708 -22.897244,-10.04588 23.584675,-8.3046 -6.422018,-24.16529 21.197607,13.26141 14.889119,-20.08775 2.848309,24.84131 24.988445,-0.88372 -17.645824,17.71519 z"
       inkscape:transform-center-x="23.711923"
       inkscape:transform-center-y="20.985285"
       transform="matrix(-0.08789948,0.0441924,-0.04219027,-0.0839172,63.133334,148.8863)" />
    <path
       sodipodi:type="star"
       style="display:inline;opacity:1;fill:#ffffff;fill-opacity:1;stroke:none;stroke-width:9.86499977;stroke-miterlimit:4;stroke-dasharray:none;stroke-opacity:1"
       id="path4570-8"
       sodipodi:sides="7"
       sodipodi:cx="59.868374"
       sodipodi:cy="176.46144"
       sodipodi:r1="42.323208"
       sodipodi:r2="21.161604"
       sodipodi:arg1="0.48624263"
       sodipodi:arg2="0.93504158"
       inkscape:flatsided="false"
       inkscape:rounded="0"
       inkscape:randomized="0"
       d="m 97.286108,196.23939 -24.852292,-2.75082 -4.698887,24.55858 -13.344476,-21.14541 -22.130379,11.63829 8.212002,-23.61708 -22.897244,-10.04588 23.584675,-8.3046 -6.422018,-24.16529 21.197607,13.26141 14.889119,-20.08775 2.848309,24.84131 24.988445,-0.88372 -17.645824,17.71519 z"
       inkscape:transform-center-x="-0.17222182"
       inkscape:transform-center-y="-0.03311488"
       transform="matrix(-0.09838337,0,0,-0.09392611,127.20578,276.47922)" />
    <path
       sodipodi:type="star"
       style="display:inline;opacity:1;fill:#ffffff;fill-opacity:1;stroke:none;stroke-width:9.86499977;stroke-miterlimit:4;stroke-dasharray:none;stroke-opacity:1"
       id="path4570-2"
       sodipodi:sides="7"
       sodipodi:cx="59.868374"
       sodipodi:cy="176.46144"
       sodipodi:r1="42.323208"
       sodipodi:r2="21.161604"
       sodipodi:arg1="0.48624263"
       sodipodi:arg2="0.93504158"
       inkscape:flatsided="false"
       inkscape:rounded="0"
       inkscape:randomized="0"
       d="m 97.286108,196.23939 -24.852292,-2.75082 -4.698887,24.55858 -13.344476,-21.14541 -22.130379,11.63829 8.212002,-23.61708 -22.897244,-10.04588 23.584675,-8.3046 -6.422018,-24.16529 21.197607,13.26141 14.889119,-20.08775 2.848309,24.84131 24.988445,-0.88372 -17.645824,17.71519 z"
       inkscape:transform-center-x="24.376128"
       inkscape:transform-center-y="11.313646"
       transform="matrix(-0.08789948,0.0441924,-0.04219027,-0.0839172,162.64936,264.09211)" />
    <path
       sodipodi:type="star"
       style="display:inline;opacity:1;fill:#ffffff;fill-opacity:1;stroke:none;stroke-width:9.86499977;stroke-miterlimit:4;stroke-dasharray:none;stroke-opacity:1"
       id="path4570-01"
       sodipodi:sides="7"
       sodipodi:cx="59.868374"
       sodipodi:cy="176.46144"
       sodipodi:r1="42.323208"
       sodipodi:r2="21.161604"
       sodipodi:arg1="0.48624263"
       sodipodi:arg2="0.93504158"
       inkscape:flatsided="false"
       inkscape:rounded="0"
       inkscape:randomized="0"
       d="m 97.286108,196.23939 -24.852292,-2.75082 -4.698887,24.55858 -13.344476,-21.14541 -22.130379,11.63829 8.212002,-23.61708 -22.897244,-10.04588 23.584675,-8.3046 -6.422018,-24.16529 21.197607,13.26141 14.889119,-20.08775 2.848309,24.84131 24.988445,-0.88372 -17.645824,17.71519 z"
       inkscape:transform-center-x="-9.9382188"
       inkscape:transform-center-y="43.498436"
       transform="matrix(-0.08789948,0.0441924,-0.04219027,-0.0839172,137.20385,133.22952)" />
    <path
       sodipodi:type="star"
       style="display:inline;opacity:1;fill:#ffffff;fill-opacity:1;stroke:none;stroke-width:9.86499977;stroke-miterlimit:4;stroke-dasharray:none;stroke-opacity:1"
       id="path4570-9"
       sodipodi:sides="7"
       sodipodi:cx="59.868374"
       sodipodi:cy="176.46144"
       sodipodi:r1="42.323208"
       sodipodi:r2="21.161604"
       sodipodi:arg1="0.48624263"
       sodipodi:arg2="0.93504158"
       inkscape:flatsided="false"
       inkscape:rounded="0"
       inkscape:randomized="0"
       d="m 97.286108,196.23939 -24.852292,-2.75082 -4.698887,24.55858 -13.344476,-21.14541 -22.130379,11.63829 8.212002,-23.61708 -22.897244,-10.04588 23.584675,-8.3046 -6.422018,-24.16529 21.197607,13.26141 14.889119,-20.08775 2.848309,24.84131 24.988445,-0.88372 -17.645824,17.71519 z"
       inkscape:transform-center-x="-0.17222182"
       inkscape:transform-center-y="-0.03311488"
       transform="matrix(-0.09838337,0,0,-0.09392611,98.178823,272.44939)" />
    <path
       sodipodi:type="star"
       style="display:inline;opacity:1;fill:#ffffff;fill-opacity:1;stroke:none;stroke-width:9.86499977;stroke-miterlimit:4;stroke-dasharray:none;stroke-opacity:1"
       id="path4570-25"
       sodipodi:sides="7"
       sodipodi:cx="59.868374"
       sodipodi:cy="176.46144"
       sodipodi:r1="42.323208"
       sodipodi:r2="21.161604"
       sodipodi:arg1="0.48624263"
       sodipodi:arg2="0.93504158"
       inkscape:flatsided="false"
       inkscape:rounded="0"
       inkscape:randomized="0"
       d="m 97.286108,196.23939 -24.852292,-2.75082 -4.698887,24.55858 -13.344476,-21.14541 -22.130379,11.63829 8.212002,-23.61708 -22.897244,-10.04588 23.584675,-8.3046 -6.422018,-24.16529 21.197607,13.26141 14.889119,-20.08775 2.848309,24.84131 24.988445,-0.88372 -17.645824,17.71519 z"
       inkscape:transform-center-x="-1.3446818"
       inkscape:transform-center-y="35.003025"
       transform="matrix(-0.08789948,0.0441924,-0.04219027,-0.0839172,169.88188,210.08328)" />
    <path
       sodipodi:type="star"
       style="display:inline;opacity:1;fill:#ffffff;fill-opacity:1;stroke:none;stroke-width:9.86499977;stroke-miterlimit:4;stroke-dasharray:none;stroke-opacity:1"
       id="path4570-62"
       sodipodi:sides="7"
       sodipodi:cx="59.868374"
       sodipodi:cy="176.46144"
       sodipodi:r1="42.323208"
       sodipodi:r2="21.161604"
       sodipodi:arg1="0.48624263"
       sodipodi:arg2="0.93504158"
       inkscape:flatsided="false"
       inkscape:rounded="0"
       inkscape:randomized="0"
       d="m 97.286108,196.23939 -24.852292,-2.75082 -4.698887,24.55858 -13.344476,-21.14541 -22.130379,11.63829 8.212002,-23.61708 -22.897244,-10.04588 23.584675,-8.3046 -6.422018,-24.16529 21.197607,13.26141 14.889119,-20.08775 2.848309,24.84131 24.988445,-0.88372 -17.645824,17.71519 z"
       inkscape:transform-center-x="-0.17222182"
       inkscape:transform-center-y="-0.03311488"
       transform="matrix(-0.09838337,0,0,-0.09392611,90.460387,175.70539)" />
    <path
       sodipodi:type="star"
       style="display:inline;opacity:1;fill:#ffffff;fill-opacity:1;stroke:none;stroke-width:9.86499977;stroke-miterlimit:4;stroke-dasharray:none;stroke-opacity:1"
       id="path4570-32"
       sodipodi:sides="7"
       sodipodi:cx="59.868374"
       sodipodi:cy="176.46144"
       sodipodi:r1="42.323208"
       sodipodi:r2="21.161604"
       sodipodi:arg1="0.48624263"
       sodipodi:arg2="0.93504158"
       inkscape:flatsided="false"
       inkscape:rounded="0"
       inkscape:randomized="0"
       d="m 97.286108,196.23939 -24.852292,-2.75082 -4.698887,24.55858 -13.344476,-21.14541 -22.130379,11.63829 8.212002,-23.61708 -22.897244,-10.04588 23.584675,-8.3046 -6.422018,-24.16529 21.197607,13.26141 14.889119,-20.08775 2.848309,24.84131 24.988445,-0.88372 -17.645824,17.71519 z"
       inkscape:transform-center-x="-30.738029"
       inkscape:transform-center-y="18.933456"
       transform="matrix(-0.08789948,0.0441924,-0.04219027,-0.0839172,77.502749,135.64123)" />
    <path
       sodipodi:type="star"
       style="display:inline;opacity:1;fill:#ffffff;fill-opacity:1;stroke:none;stroke-width:9.86499977;stroke-miterlimit:4;stroke-dasharray:none;stroke-opacity:1"
       id="path4570-0-8"
       sodipodi:sides="7"
       sodipodi:cx="59.868374"
       sodipodi:cy="176.46144"
       sodipodi:r1="42.323208"
       sodipodi:r2="21.161604"
       sodipodi:arg1="0.48624263"
       sodipodi:arg2="0.93504158"
       inkscape:flatsided="false"
       inkscape:rounded="0"
       inkscape:randomized="0"
       d="m 97.286108,196.23939 -24.852292,-2.75082 -4.698887,24.55858 -13.344476,-21.14541 -22.130379,11.63829 8.212002,-23.61708 -22.897244,-10.04588 23.584675,-8.3046 -6.422018,-24.16529 21.197607,13.26141 14.889119,-20.08775 2.848309,24.84131 24.988445,-0.88372 -17.645824,17.71519 z"
       inkscape:transform-center-x="-0.17222182"
       inkscape:transform-center-y="-0.03311488"
       transform="matrix(-0.09838337,0,0,-0.09392611,145.85278,189.16327)" />
    <path
       sodipodi:type="star"
       style="display:inline;opacity:1;fill:#ffffff;fill-opacity:1;stroke:none;stroke-width:9.86499977;stroke-miterlimit:4;stroke-dasharray:none;stroke-opacity:1"
       id="path4570-0-3"
       sodipodi:sides="7"
       sodipodi:cx="59.868374"
       sodipodi:cy="176.46144"
       sodipodi:r1="42.323208"
       sodipodi:r2="21.161604"
       sodipodi:arg1="0.48624263"
       sodipodi:arg2="0.93504158"
       inkscape:flatsided="false"
       inkscape:rounded="0"
       inkscape:randomized="0"
       d="m 97.286108,196.23939 -24.852292,-2.75082 -4.698887,24.55858 -13.344476,-21.14541 -22.130379,11.63829 8.212002,-23.61708 -22.897244,-10.04588 23.584675,-8.3046 -6.422018,-24.16529 21.197607,13.26141 14.889119,-20.08775 2.848309,24.84131 24.988445,-0.88372 -17.645824,17.71519 z"
       inkscape:transform-center-x="-0.17222182"
       inkscape:transform-center-y="-0.03311488"
       transform="matrix(-0.09838337,0,0,-0.09392611,152.72332,241.37648)" />
    <path
       sodipodi:type="star"
       style="display:inline;opacity:1;fill:#ffffff;fill-opacity:1;stroke:none;stroke-width:9.86499977;stroke-miterlimit:4;stroke-dasharray:none;stroke-opacity:1"
       id="path4570-0-81"
       sodipodi:sides="7"
       sodipodi:cx="59.868374"
       sodipodi:cy="176.46144"
       sodipodi:r1="42.323208"
       sodipodi:r2="21.161604"
       sodipodi:arg1="0.48624263"
       sodipodi:arg2="0.93504158"
       inkscape:flatsided="false"
       inkscape:rounded="0"
       inkscape:randomized="0"
       d="m 97.286108,196.23939 -24.852292,-2.75082 -4.698887,24.55858 -13.344476,-21.14541 -22.130379,11.63829 8.212002,-23.61708 -22.897244,-10.04588 23.584675,-8.3046 -6.422018,-24.16529 21.197607,13.26141 14.889119,-20.08775 2.848309,24.84131 24.988445,-0.88372 -17.645824,17.71519 z"
       inkscape:transform-center-x="-0.17222182"
       inkscape:transform-center-y="-0.03311488"
       transform="matrix(-0.09838337,0,0,-0.09392611,170.59333,144.95188)" />
    <path
       sodipodi:type="star"
       style="display:inline;opacity:1;fill:#ffffff;fill-opacity:1;stroke:none;stroke-width:9.86499977;stroke-miterlimit:4;stroke-dasharray:none;stroke-opacity:1"
       id="path4570-0-2"
       sodipodi:sides="7"
       sodipodi:cx="59.868374"
       sodipodi:cy="176.46144"
       sodipodi:r1="42.323208"
       sodipodi:r2="21.161604"
       sodipodi:arg1="0.48624263"
       sodipodi:arg2="0.93504158"
       inkscape:flatsided="false"
       inkscape:rounded="0"
       inkscape:randomized="0"
       d="m 97.286108,196.23939 -24.852292,-2.75082 -4.698887,24.55858 -13.344476,-21.14541 -22.130379,11.63829 8.212002,-23.61708 -22.897244,-10.04588 23.584675,-8.3046 -6.422018,-24.16529 21.197607,13.26141 14.889119,-20.08775 2.848309,24.84131 24.988445,-0.88372 -17.645824,17.71519 z"
       inkscape:transform-center-x="-0.17222182"
       inkscape:transform-center-y="-0.03311488"
       transform="matrix(-0.09838337,0,0,-0.09392611,158.75814,161.42931)" />
    <path
       sodipodi:type="star"
       style="display:inline;opacity:1;fill:#ffffff;fill-opacity:1;stroke:none;stroke-width:9.86499977;stroke-miterlimit:4;stroke-dasharray:none;stroke-opacity:1"
       id="path4570-0-4"
       sodipodi:sides="7"
       sodipodi:cx="59.868374"
       sodipodi:cy="176.46144"
       sodipodi:r1="42.323208"
       sodipodi:r2="21.161604"
       sodipodi:arg1="0.48624263"
       sodipodi:arg2="0.93504158"
       inkscape:flatsided="false"
       inkscape:rounded="0"
       inkscape:randomized="0"
       d="m 97.286108,196.23939 -24.852292,-2.75082 -4.698887,24.55858 -13.344476,-21.14541 -22.130379,11.63829 8.212002,-23.61708 -22.897244,-10.04588 23.584675,-8.3046 -6.422018,-24.16529 21.197607,13.26141 14.889119,-20.08775 2.848309,24.84131 24.988445,-0.88372 -17.645824,17.71519 z"
       inkscape:transform-center-x="-0.17222182"
       inkscape:transform-center-y="-0.03311488"
       transform="matrix(-0.09838337,0,0,-0.09392611,66.731133,261.06325)" />
    <path
       sodipodi:type="star"
       style="display:inline;opacity:1;fill:#ffffff;fill-opacity:1;stroke:none;stroke-width:9.86499977;stroke-miterlimit:4;stroke-dasharray:none;stroke-opacity:1"
       id="path4570-0-06"
       sodipodi:sides="7"
       sodipodi:cx="59.868374"
       sodipodi:cy="176.46144"
       sodipodi:r1="42.323208"
       sodipodi:r2="21.161604"
       sodipodi:arg1="0.48624263"
       sodipodi:arg2="0.93504158"
       inkscape:flatsided="false"
       inkscape:rounded="0"
       inkscape:randomized="0"
       d="m 97.286108,196.23939 -24.852292,-2.75082 -4.698887,24.55858 -13.344476,-21.14541 -22.130379,11.63829 8.212002,-23.61708 -22.897244,-10.04588 23.584675,-8.3046 -6.422018,-24.16529 21.197607,13.26141 14.889119,-20.08775 2.848309,24.84131 24.988445,-0.88372 -17.645824,17.71519 z"
       inkscape:transform-center-x="-0.17222182"
       inkscape:transform-center-y="-0.03311488"
       transform="matrix(-0.09838337,0,0,-0.09392611,93.40005,131.06577)" />
    <path
       sodipodi:type="star"
       style="display:inline;opacity:1;fill:#ffffff;fill-opacity:1;stroke:none;stroke-width:9.86499977;stroke-miterlimit:4;stroke-dasharray:none;stroke-opacity:1"
       id="path4570-0-86"
       sodipodi:sides="7"
       sodipodi:cx="59.868374"
       sodipodi:cy="176.46144"
       sodipodi:r1="42.323208"
       sodipodi:r2="21.161604"
       sodipodi:arg1="0.48624263"
       sodipodi:arg2="0.93504158"
       inkscape:flatsided="false"
       inkscape:rounded="0"
       inkscape:randomized="0"
       d="m 97.286108,196.23939 -24.852292,-2.75082 -4.698887,24.55858 -13.344476,-21.14541 -22.130379,11.63829 8.212002,-23.61708 -22.897244,-10.04588 23.584675,-8.3046 -6.422018,-24.16529 21.197607,13.26141 14.889119,-20.08775 2.848309,24.84131 24.988445,-0.88372 -17.645824,17.71519 z"
       inkscape:transform-center-x="-0.17222182"
       inkscape:transform-center-y="-0.03311488"
       transform="matrix(-0.09838337,0,0,-0.09392611,91.076884,258.83355)" />
    <path
       sodipodi:type="star"
       style="display:inline;opacity:1;fill:#ffffff;fill-opacity:1;stroke:none;stroke-width:9.86499977;stroke-miterlimit:4;stroke-dasharray:none;stroke-opacity:1"
       id="path4570-0-1"
       sodipodi:sides="7"
       sodipodi:cx="59.868374"
       sodipodi:cy="176.46144"
       sodipodi:r1="42.323208"
       sodipodi:r2="21.161604"
       sodipodi:arg1="0.48624263"
       sodipodi:arg2="0.93504158"
       inkscape:flatsided="false"
       inkscape:rounded="0"
       inkscape:randomized="0"
       d="m 97.286108,196.23939 -24.852292,-2.75082 -4.698887,24.55858 -13.344476,-21.14541 -22.130379,11.63829 8.212002,-23.61708 -22.897244,-10.04588 23.584675,-8.3046 -6.422018,-24.16529 21.197607,13.26141 14.889119,-20.08775 2.848309,24.84131 24.988445,-0.88372 -17.645824,17.71519 z"
       inkscape:transform-center-x="-0.17222182"
       inkscape:transform-center-y="-0.03311488"
       transform="matrix(-0.09838337,0,0,-0.09392611,46.1563,238.88164)" />
    <path
       sodipodi:type="star"
       style="display:inline;opacity:1;fill:#ffffff;fill-opacity:1;stroke:none;stroke-width:9.86499977;stroke-miterlimit:4;stroke-dasharray:none;stroke-opacity:1"
       id="path4570-0-6"
       sodipodi:sides="7"
       sodipodi:cx="59.868374"
       sodipodi:cy="176.46144"
       sodipodi:r1="42.323208"
       sodipodi:r2="21.161604"
       sodipodi:arg1="0.48624263"
       sodipodi:arg2="0.93504158"
       inkscape:flatsided="false"
       inkscape:rounded="0"
       inkscape:randomized="0"
       d="m 97.286108,196.23939 -24.852292,-2.75082 -4.698887,24.55858 -13.344476,-21.14541 -22.130379,11.63829 8.212002,-23.61708 -22.897244,-10.04588 23.584675,-8.3046 -6.422018,-24.16529 21.197607,13.26141 14.889119,-20.08775 2.848309,24.84131 24.988445,-0.88372 -17.645824,17.71519 z"
       inkscape:transform-center-x="-0.17222182"
       inkscape:transform-center-y="-0.03311488"
       transform="matrix(-0.09838337,0,0,-0.09392611,126.50887,176.53686)" />
    <path
       sodipodi:type="star"
       style="display:inline;opacity:1;fill:#ffffff;fill-opacity:1;stroke:none;stroke-width:9.86499977;stroke-miterlimit:4;stroke-dasharray:none;stroke-opacity:1"
       id="path4570-0-5"
       sodipodi:sides="7"
       sodipodi:cx="59.868374"
       sodipodi:cy="176.46144"
       sodipodi:r1="42.323208"
       sodipodi:r2="21.161604"
       sodipodi:arg1="0.48624263"
       sodipodi:arg2="0.93504158"
       inkscape:flatsided="false"
       inkscape:rounded="0"
       inkscape:randomized="0"
       d="m 97.286108,196.23939 -24.852292,-2.75082 -4.698887,24.55858 -13.344476,-21.14541 -22.130379,11.63829 8.212002,-23.61708 -22.897244,-10.04588 23.584675,-8.3046 -6.422018,-24.16529 21.197607,13.26141 14.889119,-20.08775 2.848309,24.84131 24.988445,-0.88372 -17.645824,17.71519 z"
       inkscape:transform-center-x="-0.17222182"
       inkscape:transform-center-y="-0.03311488"
       transform="matrix(-0.09838337,0,0,-0.09392611,165.47718,179.38278)" />
    <path
       sodipodi:type="star"
       style="display:inline;opacity:1;fill:#ffffff;fill-opacity:1;stroke:none;stroke-width:9.86499977;stroke-miterlimit:4;stroke-dasharray:none;stroke-opacity:1"
       id="path4570-0-7"
       sodipodi:sides="7"
       sodipodi:cx="59.868374"
       sodipodi:cy="176.46144"
       sodipodi:r1="42.323208"
       sodipodi:r2="21.161604"
       sodipodi:arg1="0.48624263"
       sodipodi:arg2="0.93504158"
       inkscape:flatsided="false"
       inkscape:rounded="0"
       inkscape:randomized="0"
       d="m 97.286108,196.23939 -24.852292,-2.75082 -4.698887,24.55858 -13.344476,-21.14541 -22.130379,11.63829 8.212002,-23.61708 -22.897244,-10.04588 23.584675,-8.3046 -6.422018,-24.16529 21.197607,13.26141 14.889119,-20.08775 2.848309,24.84131 24.988445,-0.88372 -17.645824,17.71519 z"
       inkscape:transform-center-x="-0.17222182"
       inkscape:transform-center-y="-0.03311488"
       transform="matrix(-0.09838337,0,0,-0.09392611,120.88735,115.72992)" />
    <path
       sodipodi:type="star"
       style="display:inline;opacity:1;fill:#ffffff;fill-opacity:1;stroke:none;stroke-width:9.86499977;stroke-miterlimit:4;stroke-dasharray:none;stroke-opacity:1"
       id="path4570-0-14"
       sodipodi:sides="7"
       sodipodi:cx="59.868374"
       sodipodi:cy="176.46144"
       sodipodi:r1="42.323208"
       sodipodi:r2="21.161604"
       sodipodi:arg1="0.48624263"
       sodipodi:arg2="0.93504158"
       inkscape:flatsided="false"
       inkscape:rounded="0"
       inkscape:randomized="0"
       d="m 97.286108,196.23939 -24.852292,-2.75082 -4.698887,24.55858 -13.344476,-21.14541 -22.130379,11.63829 8.212002,-23.61708 -22.897244,-10.04588 23.584675,-8.3046 -6.422018,-24.16529 21.197607,13.26141 14.889119,-20.08775 2.848309,24.84131 24.988445,-0.88372 -17.645824,17.71519 z"
       inkscape:transform-center-x="-0.17222182"
       inkscape:transform-center-y="-0.03311488"
       transform="matrix(-0.09838337,0,0,-0.09392611,49.889583,137.61928)" />
    <path
       sodipodi:type="star"
       style="display:inline;opacity:1;fill:#ffffff;fill-opacity:1;stroke:none;stroke-width:9.86499977;stroke-miterlimit:4;stroke-dasharray:none;stroke-opacity:1"
       id="path4570-0-48"
       sodipodi:sides="7"
       sodipodi:cx="59.868374"
       sodipodi:cy="176.46144"
       sodipodi:r1="42.323208"
       sodipodi:r2="21.161604"
       sodipodi:arg1="0.48624263"
       sodipodi:arg2="0.93504158"
       inkscape:flatsided="false"
       inkscape:rounded="0"
       inkscape:randomized="0"
       d="m 97.286108,196.23939 -24.852292,-2.75082 -4.698887,24.55858 -13.344476,-21.14541 -22.130379,11.63829 8.212002,-23.61708 -22.897244,-10.04588 23.584675,-8.3046 -6.422018,-24.16529 21.197607,13.26141 14.889119,-20.08775 2.848309,24.84131 24.988445,-0.88372 -17.645824,17.71519 z"
       inkscape:transform-center-x="-0.17222182"
       inkscape:transform-center-y="-0.03311488"
       transform="matrix(-0.09838337,0,0,-0.09392611,37.05976,253.3928)" />
    <path
       sodipodi:type="star"
       style="display:inline;opacity:1;fill:#ffffff;fill-opacity:1;stroke:none;stroke-width:9.86499977;stroke-miterlimit:4;stroke-dasharray:none;stroke-opacity:1"
       id="path4570-0-79"
       sodipodi:sides="7"
       sodipodi:cx="59.868374"
       sodipodi:cy="176.46144"
       sodipodi:r1="42.323208"
       sodipodi:r2="21.161604"
       sodipodi:arg1="0.48624263"
       sodipodi:arg2="0.93504158"
       inkscape:flatsided="false"
       inkscape:rounded="0"
       inkscape:randomized="0"
       d="m 97.286108,196.23939 -24.852292,-2.75082 -4.698887,24.55858 -13.344476,-21.14541 -22.130379,11.63829 8.212002,-23.61708 -22.897244,-10.04588 23.584675,-8.3046 -6.422018,-24.16529 21.197607,13.26141 14.889119,-20.08775 2.848309,24.84131 24.988445,-0.88372 -17.645824,17.71519 z"
       inkscape:transform-center-x="-0.17222182"
       inkscape:transform-center-y="-0.03311488"
       transform="matrix(-0.09838337,0,0,-0.09392611,184.91397,225.611)" />
    <path
       sodipodi:type="star"
       style="display:inline;opacity:1;fill:#ffffff;fill-opacity:1;stroke:none;stroke-width:9.86499977;stroke-miterlimit:4;stroke-dasharray:none;stroke-opacity:1"
       id="path4570-0-92"
       sodipodi:sides="7"
       sodipodi:cx="59.868374"
       sodipodi:cy="176.46144"
       sodipodi:r1="42.323208"
       sodipodi:r2="21.161604"
       sodipodi:arg1="0.48624263"
       sodipodi:arg2="0.93504158"
       inkscape:flatsided="false"
       inkscape:rounded="0"
       inkscape:randomized="0"
       d="m 97.286108,196.23939 -24.852292,-2.75082 -4.698887,24.55858 -13.344476,-21.14541 -22.130379,11.63829 8.212002,-23.61708 -22.897244,-10.04588 23.584675,-8.3046 -6.422018,-24.16529 21.197607,13.26141 14.889119,-20.08775 2.848309,24.84131 24.988445,-0.88372 -17.645824,17.71519 z"
       inkscape:transform-center-x="-0.17222182"
       inkscape:transform-center-y="-0.03311488"
       transform="matrix(-0.09838337,0,0,-0.09392611,118.49154,135.94382)" />
    <path
       sodipodi:type="star"
       style="display:inline;opacity:1;fill:#ffffff;fill-opacity:1;stroke:none;stroke-width:9.86499977;stroke-miterlimit:4;stroke-dasharray:none;stroke-opacity:1"
       id="path4570-0-99"
       sodipodi:sides="7"
       sodipodi:cx="59.868374"
       sodipodi:cy="176.46144"
       sodipodi:r1="42.323208"
       sodipodi:r2="21.161604"
       sodipodi:arg1="0.48624263"
       sodipodi:arg2="0.93504158"
       inkscape:flatsided="false"
       inkscape:rounded="0"
       inkscape:randomized="0"
       d="m 97.286108,196.23939 -24.852292,-2.75082 -4.698887,24.55858 -13.344476,-21.14541 -22.130379,11.63829 8.212002,-23.61708 -22.897244,-10.04588 23.584675,-8.3046 -6.422018,-24.16529 21.197607,13.26141 14.889119,-20.08775 2.848309,24.84131 24.988445,-0.88372 -17.645824,17.71519 z"
       inkscape:transform-center-x="-0.17222182"
       inkscape:transform-center-y="-0.03311488"
       transform="matrix(-0.09838337,0,0,-0.09392611,49.27905,215.90731)" />
    <path
       sodipodi:type="star"
       style="display:inline;opacity:1;fill:#ffffff;fill-opacity:1;stroke:none;stroke-width:9.86499977;stroke-miterlimit:4;stroke-dasharray:none;stroke-opacity:1"
       id="path4570-0-57"
       sodipodi:sides="7"
       sodipodi:cx="59.868374"
       sodipodi:cy="176.46144"
       sodipodi:r1="42.323208"
       sodipodi:r2="21.161604"
       sodipodi:arg1="0.48624263"
       sodipodi:arg2="0.93504158"
       inkscape:flatsided="false"
       inkscape:rounded="0"
       inkscape:randomized="0"
       d="m 97.286108,196.23939 -24.852292,-2.75082 -4.698887,24.55858 -13.344476,-21.14541 -22.130379,11.63829 8.212002,-23.61708 -22.897244,-10.04588 23.584675,-8.3046 -6.422018,-24.16529 21.197607,13.26141 14.889119,-20.08775 2.848309,24.84131 24.988445,-0.88372 -17.645824,17.71519 z"
       inkscape:transform-center-x="-0.17222182"
       inkscape:transform-center-y="-0.03311488"
       transform="matrix(-0.09838337,0,0,-0.09392611,177.61359,192.89302)" />
    <path
       sodipodi:type="star"
       style="display:inline;opacity:1;fill:#ffffff;fill-opacity:1;stroke:none;stroke-width:9.86499977;stroke-miterlimit:4;stroke-dasharray:none;stroke-opacity:1"
       id="path4570-0-08"
       sodipodi:sides="7"
       sodipodi:cx="59.868374"
       sodipodi:cy="176.46144"
       sodipodi:r1="42.323208"
       sodipodi:r2="21.161604"
       sodipodi:arg1="0.48624263"
       sodipodi:arg2="0.93504158"
       inkscape:flatsided="false"
       inkscape:rounded="0"
       inkscape:randomized="0"
       d="m 97.286108,196.23939 -24.852292,-2.75082 -4.698887,24.55858 -13.344476,-21.14541 -22.130379,11.63829 8.212002,-23.61708 -22.897244,-10.04588 23.584675,-8.3046 -6.422018,-24.16529 21.197607,13.26141 14.889119,-20.08775 2.848309,24.84131 24.988445,-0.88372 -17.645824,17.71519 z"
       inkscape:transform-center-x="-0.17222182"
       inkscape:transform-center-y="-0.03311488"
       transform="matrix(-0.09838337,0,0,-0.09392611,24.437137,207.89097)" />
    <path
       sodipodi:type="star"
       style="display:inline;opacity:1;fill:#ffffff;fill-opacity:1;stroke:none;stroke-width:9.86499977;stroke-miterlimit:4;stroke-dasharray:none;stroke-opacity:1"
       id="path4570-0-67"
       sodipodi:sides="7"
       sodipodi:cx="59.868374"
       sodipodi:cy="176.46144"
       sodipodi:r1="42.323208"
       sodipodi:r2="21.161604"
       sodipodi:arg1="0.48624263"
       sodipodi:arg2="0.93504158"
       inkscape:flatsided="false"
       inkscape:rounded="0"
       inkscape:randomized="0"
       d="m 97.286108,196.23939 -24.852292,-2.75082 -4.698887,24.55858 -13.344476,-21.14541 -22.130379,11.63829 8.212002,-23.61708 -22.897244,-10.04588 23.584675,-8.3046 -6.422018,-24.16529 21.197607,13.26141 14.889119,-20.08775 2.848309,24.84131 24.988445,-0.88372 -17.645824,17.71519 z"
       inkscape:transform-center-x="-0.17222182"
       inkscape:transform-center-y="-0.03311488"
       transform="matrix(-0.09838337,0,0,-0.09392611,34.174884,167.27684)" />
    <path
       sodipodi:type="star"
       style="display:inline;opacity:1;fill:#ffffff;fill-opacity:1;stroke:none;stroke-width:9.86499977;stroke-miterlimit:4;stroke-dasharray:none;stroke-opacity:1"
       id="path4570-0-23"
       sodipodi:sides="7"
       sodipodi:cx="59.868374"
       sodipodi:cy="176.46144"
       sodipodi:r1="42.323208"
       sodipodi:r2="21.161604"
       sodipodi:arg1="0.48624263"
       sodipodi:arg2="0.93504158"
       inkscape:flatsided="false"
       inkscape:rounded="0"
       inkscape:randomized="0"
       d="m 97.286108,196.23939 -24.852292,-2.75082 -4.698887,24.55858 -13.344476,-21.14541 -22.130379,11.63829 8.212002,-23.61708 -22.897244,-10.04588 23.584675,-8.3046 -6.422018,-24.16529 21.197607,13.26141 14.889119,-20.08775 2.848309,24.84131 24.988445,-0.88372 -17.645824,17.71519 z"
       inkscape:transform-center-x="-0.17222182"
       inkscape:transform-center-y="-0.03311488"
       transform="matrix(-0.09838337,0,0,-0.09392611,115.50115,227.76702)" />
    <g
       aria-label="dreamalyze"
       transform="matrix(0.36341222,0,0,0.36341222,-140.64552,43.294391)"
       style="font-style:normal;font-weight:normal;font-size:400px;line-height:1.25;font-family:sans-serif;letter-spacing:0px;word-spacing:0px;fill:#181818;fill-opacity:1;stroke:none"
       id="flowRoot1084">
      <path
         d="m 987.31052,418.94515 q 0,-12.04428 2.92969,-25.39063 3.25521,-13.34636 9.76559,-24.73958 6.836,-11.39323 16.9271,-18.55469 10.4167,-7.48698 25.3906,-7.48698 7.8125,0 15.625,2.27864 7.8125,2.27865 15.9506,6.51042 8.4635,4.23177 17.2526,10.09115 9.1146,5.53385 19.2057,12.36979 1.3021,-13.02083 -0.9766,-26.69271 -2.2786,-13.9974 -5.8593,-27.34375 -3.5808,-13.34636 -7.487,-25.06511 -3.5807,-12.04427 -5.2083,-21.48437 -1.6277,-9.44011 -0.3256,-15.625 1.3021,-6.1849 7.8125,-7.8125 8.7891,6.51041 14.974,18.55469 6.5104,11.71875 11.0677,27.34375 4.5573,15.625 7.487,33.52864 2.9297,17.57813 4.8828,35.8073 1.9531,18.22916 2.9297,35.48177 1.3021,17.2526 2.6041,31.90104 1.3021,14.32292 2.2787,24.73958 1.3021,10.09115 3.5807,14.32292 0,5.20834 -3.9062,6.51042 -3.5808,1.30208 -7.487,1.30208 -3.2552,0 -5.5339,-2.27864 -2.2786,-2.60417 -3.5807,-5.85938 -1.3021,-3.25521 -2.6042,-7.16146 -0.9765,-4.23177 -2.2786,-7.48698 -1.3021,-3.58073 -2.9297,-5.85937 -1.6276,-2.27865 -4.2318,-2.27865 -0.651,0 -1.9531,0.32552 -0.9766,0 -0.9766,0.32552 -6.1848,8.46355 -14.6484,16.60157 -8.138,7.8125 -18.2292,13.99739 -9.7656,5.85938 -20.8333,9.44011 -10.7422,3.58073 -21.8099,3.58073 -12.3698,0 -21.8099,-8.13802 -9.1146,-8.13803 -15.62498,-19.53125 -6.1849,-11.39323 -9.44011,-24.08855 -2.92969,-12.69531 -2.92969,-22.13541 z m 20.18228,5.85937 q 3.2552,11.71875 5.8594,20.50781 2.6042,8.78907 6.1849,14.32292 3.9062,5.53386 9.1146,8.46354 5.2083,2.60417 13.6718,2.60417 10.4167,0 22.1355,-5.85938 11.7187,-6.18489 21.8099,-15.625 10.0911,-9.4401 16.6015,-20.50781 6.5104,-11.39323 6.5104,-21.8099 0,-0.97656 0,-3.90625 0,-2.92968 0,-3.90625 -17.2526,-16.92708 -31.901,-24.08854 -14.3229,-7.48698 -25.7162,-7.48698 -11.3932,-0.32552 -19.8567,4.88281 -8.4636,5.20834 -13.9974,13.67188 -5.5339,8.46354 -8.138,18.88021 -2.6042,10.41667 -2.2787,19.85677 z"
         style="fill:#181818;fill-opacity:1"
         id="path4640" />
      <path
         d="m 1192.0631,492.83838 q -7.1614,-13.02084 -12.3698,-28.32032 -5.2083,-15.29948 -8.789,-30.92448 -3.5807,-15.625 -5.8594,-30.27344 -1.9531,-14.97395 -2.6042,-27.01823 0,-2.27864 -0.3255,-4.88281 -0.3255,-2.92969 -0.3255,-5.85937 0.3255,-2.92969 0.9766,-5.53386 0.9765,-2.60416 2.9296,-4.55729 h 0.6511 q 0.3255,0 0.3255,0 0,-0.32552 0.3255,-0.32552 0.3256,0 0.3256,0.32552 0,0 0.651,0 h 0.651 q 0.6511,0.32552 3.2552,1.30208 2.6042,0.97657 3.2553,1.62761 5.8593,-1.95313 12.0442,-4.55729 6.1849,-2.92969 12.3698,-5.20834 6.5104,-2.60416 13.0209,-4.23177 6.5104,-1.6276 12.6953,-1.6276 4.5573,0 7.8125,0.32552 3.5807,0.32552 6.8359,1.30208 3.5807,0.65104 7.487,1.95313 3.9062,0.97656 9.1146,2.60416 2.6041,1.95313 4.5573,3.90625 2.2786,1.62761 3.9062,3.90625 1.9531,2.27865 2.9297,5.53386 0.9766,3.25521 0.9766,8.46354 -5.2084,0.65104 -12.3698,-0.65104 -6.836,-1.62761 -14.6485,-3.90625 -7.487,-2.27865 -15.625,-3.90625 -8.138,-1.62761 -15.625,-1.30208 -7.487,0.32552 -13.9974,4.23177 -6.8359,3.2552 -12.0442,11.71875 -2.2787,9.4401 -1.9532,18.55468 0.3256,9.11459 2.2787,17.90365 1.9531,8.46354 4.8828,17.25261 3.2552,8.46354 5.8594,17.2526 2.9297,8.46354 5.2083,16.92708 2.2786,8.46355 2.9297,17.25261 0,3.25521 -3.5807,7.16146 -3.5808,3.58073 -8.1381,3.58073 z"
         style="fill:#181818;fill-opacity:1"
         id="path4642" />
      <path
         d="m 1278.3261,405.59879 q 0,-16.92708 4.8829,-32.22656 5.2083,-15.625 14.6484,-27.34375 9.7656,-11.71875 23.4375,-18.55469 13.9974,-7.16146 32.2266,-7.16146 10.7422,1.30208 18.5547,5.85937 8.138,4.5573 13.0208,11.39323 5.2083,6.51042 7.487,15.29948 1.9531,8.46355 1.9531,18.22917 0,11.71875 -6.8359,21.15886 -6.836,9.4401 -17.2527,15.95052 -10.4166,6.18489 -22.4609,9.76562 -12.0443,3.25521 -22.4609,3.25521 -3.9063,0 -8.1381,0 -3.9062,0 -7.1614,-1.30208 -3.2552,-1.30209 -5.2083,-3.90625 -1.9532,-2.60417 -1.9532,-7.8125 0,-1.62761 0.3256,-2.60417 0.651,-1.30208 2.9296,-1.6276 2.2787,-0.65105 6.836,-0.32552 4.5573,0.65104 12.3698,1.95312 4.5573,0 13.0208,-2.92969 8.7891,-3.25521 17.5781,-8.13802 9.1146,-4.88281 15.625,-11.06771 6.5104,-6.51041 6.5104,-12.69531 0,-6.51042 -2.2786,-12.69531 -1.9531,-6.51042 -6.1849,-11.39323 -4.2318,-4.88281 -10.0911,-7.8125 -5.5339,-2.92969 -12.6954,-2.27865 -11.3932,0.97656 -20.8333,6.1849 -9.1146,5.20833 -15.625,13.67187 -6.5104,8.13802 -10.0911,18.22917 -3.5808,10.09115 -3.5808,21.15886 0,8.46354 0.3256,16.92708 0.3255,8.46354 2.2786,16.60156 2.2786,8.13802 6.8359,15.625 4.8829,7.48698 13.6719,13.34636 9.1146,5.53385 22.7865,9.4401 13.6719,3.58073 33.8541,4.55729 l 58.2683,-3.90625 q -5.2084,7.16146 -13.3464,11.71875 -7.8125,4.5573 -16.9271,7.48698 -8.789,2.60417 -17.5781,3.90625 -8.7891,1.30209 -16.6016,1.30209 -18.8802,0 -35.4817,-6.1849 -16.6016,-6.1849 -29.2969,-17.2526 -12.6953,-11.39323 -20.1823,-27.34375 -7.1615,-16.27605 -7.1615,-36.45834 z"
         style="fill:#181818;fill-opacity:1"
         id="path4644" />
      <path
         d="m 1450.2011,437.82535 q 0.3256,-5.53385 3.2553,-12.69531 2.9296,-7.16146 9.1145,-13.99739 6.1849,-6.83594 15.625,-12.04428 9.4401,-5.53385 22.1355,-7.8125 13.0208,-2.27864 29.2968,-0.32552 16.6016,1.95313 36.7839,9.76563 0,-0.32552 0,-3.25521 l -0.3255,-2.92969 q 0,-8.46354 -4.8828,-17.2526 -4.8829,-8.78907 -12.6954,-15.625 -7.4869,-7.16146 -16.276,-11.39323 -8.7891,-4.55729 -16.9271,-4.55729 -3.2552,0 -5.8594,0.97656 -2.2786,0.97656 -4.5573,2.60416 -2.2786,1.30209 -4.5572,2.60417 -1.9532,0.97656 -4.8829,0.97656 -0.651,0 -0.651,-0.32552 -0.3255,-0.32552 -0.651,-0.65104 -0.6511,-0.65104 -1.9532,-1.6276 -0.9765,-0.97657 -0.9765,-1.30209 0,-5.85937 1.9531,-10.09114 2.2786,-4.23177 5.8594,-6.83594 3.9062,-2.60417 8.4635,-3.90625 4.8828,-1.6276 10.0912,-1.6276 13.0208,1.30208 24.7395,8.13802 12.0443,6.51041 21.8099,16.60156 10.0912,10.09115 17.5782,23.4375 7.4869,13.02083 12.3698,27.34375 5.2083,13.9974 6.8359,28.32031 1.9531,14.97396 0.3255,27.9948 -0.3255,0 -1.9531,0 -1.6276,-0.32552 -3.5807,-0.32552 -1.9532,-0.32552 -3.2552,-0.65105 l -1.6276,-0.32552 q -6.836,-15.29948 -15.2995,-24.73958 -8.4636,-9.4401 -16.9271,-14.64844 -8.138,-5.53385 -15.2995,-7.48698 -7.1614,-2.27864 -11.7187,-3.25521 -4.8829,0 -11.7188,0.65105 -6.5104,0.65104 -13.6719,2.27864 -7.1614,1.62761 -14.6484,4.55729 -7.1615,2.60417 -13.0208,6.51042 -5.5339,3.90625 -9.1146,9.4401 -3.2552,5.20834 -3.2552,12.3698 0,7.8125 6.1849,13.34635 6.1849,5.20833 14.9739,8.78906 8.7891,3.25521 17.9037,4.5573 9.1146,1.30208 14.6484,1.30208 9.1146,0 17.9037,-0.97656 8.789,-0.97657 17.2526,-2.27865 8.789,-1.30208 17.2526,-2.27864 8.4635,-0.97657 16.927,-0.97657 0.6511,0 2.2787,0 1.6276,0 3.2552,0.32552 1.9531,0 3.2552,0 1.6276,0 2.2787,0 2.6041,0.97657 2.9296,2.92969 0.3256,1.95313 0.3256,3.90625 0,1.95313 -4.2318,4.23177 -3.9063,2.27865 -10.4167,4.55729 -6.5104,2.27865 -14.6484,4.88282 -7.8125,2.27864 -15.2995,3.90625 -7.1614,1.6276 -13.6719,2.92968 -6.1849,0.97657 -8.789,0.97657 -13.6719,0 -28.9714,-2.27865 -15.2995,-2.27865 -27.9948,-8.13802 -12.6953,-6.1849 -21.1588,-16.92708 -8.1381,-10.74219 -8.1381,-27.66928 z"
         style="fill:#181818;fill-opacity:1"
         id="path4646" />
      <path
         d="m 1831.0605,481.44515 q 0,-0.97657 0,-2.60417 0.3256,-1.6276 0.3256,-3.25521 0,-1.6276 0,-2.92969 l 0.3255,-1.95312 q 0,-0.97656 0.3255,-5.53385 0.6511,-4.5573 1.3021,-9.76563 0.651,-5.20833 0.9766,-9.76563 0.3255,-4.88281 0.3255,-6.18489 -0.6511,-6.83594 -2.9297,-17.90365 -2.2787,-11.06771 -7.1615,-21.80989 -4.5573,-10.74219 -11.7187,-18.55469 -7.1615,-7.8125 -16.9271,-7.8125 -8.7891,0 -18.5547,4.55729 -9.4401,4.23177 -17.9036,11.39323 -8.1381,6.83594 -13.3464,15.95052 -5.5338,8.78906 -5.5338,18.55469 0,4.88281 1.6276,9.76562 1.6276,4.5573 3.2552,9.11459 1.9531,4.55729 3.5807,9.4401 1.6276,4.88281 1.6276,10.09115 0,3.90625 -1.6276,7.8125 -1.3021,3.90625 -6.8359,3.90625 -5.8594,0 -9.7657,-6.83594 -3.5807,-6.83594 -6.8359,-17.2526 -2.9297,-10.74219 -6.5104,-22.78646 -3.2552,-12.04427 -8.4636,-22.46094 -4.8828,-10.74219 -12.3698,-17.57813 -7.1614,-6.83594 -18.5546,-6.83594 -8.7891,0 -15.625,3.90626 -6.836,3.58072 -11.3933,9.76562 -4.2317,6.1849 -6.8359,13.9974 -2.2787,7.8125 -2.2787,15.95052 0,13.02083 1.6276,25.71614 1.9532,12.3698 1.9532,25.06511 0,4.55729 -0.9766,8.46354 -0.9766,3.58073 -6.5104,3.58073 -3.5807,0 -6.1849,-1.6276 -2.2786,-1.95313 -3.9063,-4.5573 -1.6276,-2.92968 -2.6041,-6.18489 -0.9766,-3.58073 -1.6276,-6.1849 0.651,-13.34635 0,-24.73958 -0.3255,-11.39323 -1.3021,-21.48438 -0.651,-10.41666 -1.6276,-20.83333 -0.6511,-10.41667 -0.6511,-22.13542 0,-0.65104 0,-2.27864 0,-1.62761 0,-3.25521 0.3256,-1.95313 0.3256,-3.25521 0,-1.62761 0,-2.27865 0.3255,-0.65104 1.6276,-1.6276 1.3021,-0.97656 1.6276,-1.62761 h 1.6276 q 5.5338,0 8.138,3.90625 2.6042,3.25521 2.6042,8.46355 5.2083,-5.53386 9.1146,-8.46355 4.2317,-3.2552 7.8125,-4.88281 3.9062,-1.6276 7.8125,-1.95312 4.2317,-0.32552 10.0911,-0.32552 9.4401,0 16.9271,1.95312 7.8125,1.95313 13.9974,5.85938 6.1849,3.58073 11.3932,9.76562 5.2083,5.85938 10.4167,13.67188 0.3255,0 0.651,0.32552 0.6511,0 0.9766,0 0.3255,0 3.2552,-2.92969 2.9297,-3.25521 7.8125,-7.48698 4.8828,-4.55729 11.3932,-9.76562 6.5104,-5.53386 13.6719,-10.09115 7.1615,-4.55729 14.6484,-7.48698 7.487,-3.25521 14.6485,-3.25521 11.0677,0 19.5312,4.55729 8.7891,4.5573 15.625,12.3698 6.836,7.48697 11.7188,17.2526 4.8828,9.4401 8.138,19.85677 3.2552,10.09115 4.5573,20.18229 1.6276,10.09115 1.6276,18.55469 0,3.25521 -0.3255,11.39323 0,7.8125 -1.6276,16.27604 -1.3021,8.13802 -4.5573,14.64844 -3.2552,6.1849 -9.1146,6.1849 -2.9297,0 -4.2318,-0.97656 -1.3021,-1.30209 -1.9531,-2.92969 -0.6511,-1.62761 -0.6511,-3.58073 0,-1.95313 0,-4.23177 z"
         style="fill:#181818;fill-opacity:1"
         id="path4648" />
      <path
         d="m 1868.821,437.82535 q 0.3255,-5.53385 3.2552,-12.69531 2.9297,-7.16146 9.1146,-13.99739 6.1848,-6.83594 15.625,-12.04428 9.4401,-5.53385 22.1354,-7.8125 13.0208,-2.27864 29.2968,-0.32552 16.6016,1.95313 36.7839,9.76563 0,-0.32552 0,-3.25521 l -0.3255,-2.92969 q 0,-8.46354 -4.8828,-17.2526 -4.8828,-8.78907 -12.6953,-15.625 -7.487,-7.16146 -16.2761,-11.39323 -8.7891,-4.55729 -16.9271,-4.55729 -3.2552,0 -5.8593,0.97656 -2.2787,0.97656 -4.5573,2.60416 -2.2787,1.30209 -4.5573,2.60417 -1.9532,0.97656 -4.8828,0.97656 -0.6511,0 -0.6511,-0.32552 -0.3255,-0.32552 -0.651,-0.65104 -0.6511,-0.65104 -1.9532,-1.6276 -0.9765,-0.97657 -0.9765,-1.30209 0,-5.85937 1.9531,-10.09114 2.2787,-4.23177 5.8594,-6.83594 3.9062,-2.60417 8.4635,-3.90625 4.8828,-1.6276 10.0912,-1.6276 13.0208,1.30208 24.7396,8.13802 12.0442,6.51041 21.8099,16.60156 10.0911,10.09115 17.5781,23.4375 7.487,13.02083 12.3698,27.34375 5.2083,13.9974 6.8359,28.32031 1.9531,14.97396 0.3255,27.9948 -0.3255,0 -1.9531,0 -1.6276,-0.32552 -3.5807,-0.32552 -1.9531,-0.32552 -3.2552,-0.65105 l -1.6276,-0.32552 q -6.836,-15.29948 -15.2995,-24.73958 -8.4636,-9.4401 -16.9271,-14.64844 -8.138,-5.53385 -15.2995,-7.48698 -7.1614,-2.27864 -11.7187,-3.25521 -4.8828,0 -11.7188,0.65105 -6.5104,0.65104 -13.6719,2.27864 -7.1614,1.62761 -14.6484,4.55729 -7.1615,2.60417 -13.0208,6.51042 -5.5339,3.90625 -9.1146,9.4401 -3.2552,5.20834 -3.2552,12.3698 0,7.8125 6.1849,13.34635 6.1849,5.20833 14.9739,8.78906 8.7891,3.25521 17.9037,4.5573 9.1146,1.30208 14.6484,1.30208 9.1146,0 17.9037,-0.97656 8.789,-0.97657 17.2526,-2.27865 8.789,-1.30208 17.2526,-2.27864 8.4635,-0.97657 16.9271,-0.97657 0.651,0 2.2786,0 1.6276,0 3.2552,0.32552 1.9531,0 3.2552,0 1.6276,0 2.2787,0 2.6041,0.97657 2.9297,2.92969 0.3255,1.95313 0.3255,3.90625 0,1.95313 -4.2318,4.23177 -3.9062,2.27865 -10.4167,4.55729 -6.5104,2.27865 -14.6484,4.88282 -7.8125,2.27864 -15.2995,3.90625 -7.1614,1.6276 -13.6719,2.92968 -6.1848,0.97657 -8.789,0.97657 -13.6719,0 -28.9714,-2.27865 -15.2995,-2.27865 -27.9948,-8.13802 -12.6953,-6.1849 -21.1588,-16.92708 -8.138,-10.74219 -8.138,-27.66928 z"
         style="font-style:normal;font-variant:normal;font-weight:normal;font-stretch:normal;font-size:333.33334351px;line-height:0;font-family:'Indie Flower';-inkscape-font-specification:'Indie Flower';text-align:center;text-anchor:middle;fill:#181818;fill-opacity:1"
         id="path4650" />
      <path
         d="m 2044.6022,490.23421 q -3.2552,-23.11198 -4.2317,-45.89844 -0.6511,-23.11198 -0.6511,-46.22396 0,-23.11198 0.6511,-45.89844 0.651,-22.78646 0.3255,-45.57292 0,-2.60416 1.9531,-3.58072 1.9531,-0.97657 4.5573,-0.97657 2.9297,0 5.2083,2.27865 2.2787,1.95312 3.9063,5.20833 1.6276,2.92969 2.2786,6.1849 0.9766,2.92969 0.9766,4.88281 1.9531,46.54948 2.6042,77.79948 0.651,30.92448 0,50.13021 -0.6511,18.88021 -2.2787,27.99479 -1.3021,9.11459 -3.5807,12.3698 -2.2787,3.25521 -5.5339,2.60416 -2.9297,-0.65104 -6.1849,-1.30208 z"
         style="font-style:normal;font-variant:normal;font-weight:normal;font-stretch:normal;font-size:333.33334351px;line-height:0;font-family:'Indie Flower';-inkscape-font-specification:'Indie Flower';text-align:center;text-anchor:middle;fill:#181818;fill-opacity:1"
         id="path4652" />
      <path
         d="m 2086.5945,594.40088 q 0,-2.27865 0,-4.55729 0,-1.95313 0.651,-3.58073 0.651,-1.30208 1.9531,-2.27865 1.9532,-0.65104 4.5573,-0.65104 4.8828,5.53386 12.3698,13.9974 7.8125,8.78906 17.5781,16.92708 9.7657,8.13802 20.5078,14.32292 10.7422,6.18489 21.8099,6.18489 9.1146,-0.32552 15.625,-4.88281 6.5105,-4.23177 11.0678,-11.39323 4.5572,-7.16146 7.4869,-16.27604 2.9297,-9.11458 4.5573,-18.55469 1.9531,-9.4401 2.6042,-18.22917 0.9766,-8.78906 1.9531,-15.29947 0.6511,-3.25521 1.3021,-11.06771 0.9766,-7.48698 1.6276,-16.92709 0.9766,-9.11458 1.3021,-19.20573 0.651,-10.09114 0,-18.22916 -0.6511,-8.46355 -2.6042,-13.67188 -1.9531,-5.53385 -5.8594,-5.53385 -5.5338,0 -11.7187,3.2552 -6.1849,3.25521 -13.0208,7.48698 -6.5105,3.90625 -13.3464,7.16146 -6.8359,3.25521 -13.3463,3.25521 -12.3698,0 -22.7865,-4.88281 -10.0912,-5.20834 -18.5547,-13.34636 -8.4635,-8.13802 -14.974,-18.88021 -6.5104,-11.0677 -11.0677,-22.78645 -4.2317,-11.71875 -6.5104,-23.43751 -1.9531,-11.71875 -1.9531,-22.13541 0,-2.27865 -0.651,-7.48698 -0.3256,-5.20834 0.3255,-10.74219 0.651,-5.53385 2.9297,-9.76563 2.2786,-4.23177 7.1614,-4.23177 1.3021,0 1.9531,5.20834 0.9766,5.20833 1.9532,13.67187 1.3021,8.13802 2.9297,18.88021 1.9531,10.74219 4.8828,21.8099 2.9297,11.06771 7.1614,21.80989 4.2318,10.74219 10.4167,19.20573 6.1849,8.13803 14.6484,13.34636 8.7891,5.20833 19.8568,5.20833 7.1615,0 14.974,-2.92968 7.8125,-3.25521 14.6484,-8.13803 7.1615,-4.88281 13.0208,-11.0677 5.8594,-6.51042 9.1146,-12.69532 0,-1.30208 -0.3255,-6.18489 -0.3255,-4.88282 -0.651,-11.06771 -0.3256,-6.51042 -0.6511,-13.9974 -0.3255,-7.48698 -0.651,-13.99739 -0.3255,-6.83594 -0.6511,-11.71876 0,-4.88281 0,-6.18489 0.6511,-19.85677 2.9297,-24.08854 2.2787,-4.5573 5.5339,2.60416 3.2552,7.16146 6.8359,24.08855 3.5807,16.92708 6.5104,39.71354 3.2552,22.46094 4.8828,49.15365 1.9532,26.6927 1.6276,53.38541 -0.3255,27.01823 -3.5807,52.08334 -2.9297,25.0651 -9.7656,44.27083 -6.8359,19.53125 -17.9037,31.57553 -11.0677,12.04427 -27.3437,12.69531 -6.5104,0 -15.625,-2.60417 -8.7891,-2.27864 -17.9037,-6.51042 -9.1145,-4.23177 -18.2291,-10.09114 -8.7891,-5.85938 -15.9505,-12.69531 -6.836,-6.83594 -11.3933,-14.32292 -4.2317,-7.48698 -4.2317,-14.97396 z"
         style="font-style:normal;font-variant:normal;font-weight:normal;font-stretch:normal;font-size:333.33334351px;line-height:0;font-family:'Indie Flower';-inkscape-font-specification:'Indie Flower';text-align:center;text-anchor:middle;fill:#181818;fill-opacity:1"
         id="path4654" />
      <path
         d="m 2262.3757,470.70296 q 0,-5.53385 3.2552,-12.36979 3.5807,-6.83594 8.4635,-13.34636 5.2084,-6.83593 10.4167,-12.69531 5.2083,-6.1849 8.789,-10.09115 l -42.9687,-1.30208 q -1.3021,0 -2.2786,-0.97656 -0.6511,-0.97656 -0.9766,-2.27865 -0.3255,-1.6276 -0.3255,-2.92969 0,-1.30208 0,-1.6276 0,-2.92969 0.3255,-4.23177 0.3255,-1.62761 1.6276,-2.27865 1.3021,-0.65104 3.2552,-0.97656 1.9531,0 4.5573,0 3.2552,-0.32552 11.0677,-1.30208 7.8125,-0.97657 16.9271,-1.95313 9.1146,-0.97656 16.9271,-1.6276 8.138,-0.97656 11.3932,-1.62761 4.5573,-6.51041 7.487,-11.0677 2.9297,-4.88282 4.5573,-8.78907 1.9531,-4.23177 2.6041,-8.46354 0.9766,-4.23177 0.9766,-10.09115 0,-2.60416 -0.651,-6.18489 -0.3256,-3.58073 -1.9532,-6.83594 -1.3021,-3.58073 -3.9062,-5.85937 -2.2787,-2.27865 -6.1849,-2.27865 h -40.6901 q -3.5807,0 -6.836,2.60417 -2.9296,2.60416 -5.5338,5.53385 -2.2787,2.92969 -4.8828,5.20833 -2.6042,2.60417 -4.5573,2.60417 -5.5339,0 -9.1146,-2.92969 -3.5807,-2.92968 -3.5807,-8.46354 0,-5.20833 3.5807,-8.78906 3.9063,-3.58073 10.0911,-6.1849 6.1849,-2.92969 13.3464,-4.23177 7.1615,-1.6276 14.3229,-2.60417 7.1615,-0.97656 13.0209,-1.30208 6.1848,-0.65104 9.4401,-0.65104 9.1145,0 16.927,2.60417 8.1381,2.60416 13.6719,7.8125 5.5339,4.88281 8.7891,12.04427 3.2552,7.16146 3.2552,16.60156 0,5.85938 -1.3021,10.74219 -1.3021,4.88281 -2.9297,9.76562 -1.6276,4.88282 -2.9297,9.76563 -1.3021,4.88281 -1.3021,10.41667 0.3256,0 3.9063,-0.32552 3.9062,-0.65105 8.4635,-0.65105 4.5573,-0.32552 8.1381,0.65105 3.5807,0.65104 3.5807,3.58072 0,0.65105 0,0.97657 0,0 0,0.32552 v 0.97656 q -0.9766,1.6276 -3.5807,4.55729 -2.2787,2.92969 -2.6042,2.92969 l -34.8307,3.25521 q -2.6042,4.55729 -7.487,10.09114 -4.8828,5.20834 -9.7656,11.06771 -4.8829,5.53386 -8.7891,11.06771 -3.9063,5.53386 -4.5573,10.09115 -0.651,4.55729 3.2552,8.13802 3.9063,3.25521 14.974,4.55729 7.1614,0 15.2994,-1.30208 8.4636,-1.30209 16.9271,-3.58073 8.4636,-2.27865 16.2761,-5.20834 7.8125,-2.92968 13.9974,-6.18489 2.6041,1.95312 4.5573,4.88281 1.9531,2.92969 1.9531,6.1849 0,4.88281 -4.5573,8.78906 -4.5573,3.58073 -11.7188,6.51042 -7.1614,2.92968 -15.9505,5.20833 -8.789,2.27865 -17.5781,3.58073 -8.4635,1.30208 -15.9505,1.95313 -7.1615,0.65104 -11.0677,0.65104 -4.5573,0 -11.3933,-1.30209 -6.5104,-1.30208 -13.0208,-3.58073 -6.1849,-2.60416 -10.4167,-6.83593 -4.2317,-4.23177 -4.2317,-10.41667 z"
         style="font-style:normal;font-variant:normal;font-weight:normal;font-stretch:normal;font-size:333.33334351px;line-height:0;font-family:'Indie Flower';-inkscape-font-specification:'Indie Flower';text-align:center;text-anchor:middle;fill:#181818;fill-opacity:1"
         id="path4656" />
      <path
         d="m 2394.2116,405.59879 q 0,-16.92708 4.8829,-32.22656 5.2083,-15.625 14.6484,-27.34375 9.7656,-11.71875 23.4375,-18.55469 13.9974,-7.16146 32.2266,-7.16146 10.7421,1.30208 18.5546,5.85937 8.1381,4.5573 13.0209,11.39323 5.2083,6.51042 7.487,15.29948 1.9531,8.46355 1.9531,18.22917 0,11.71875 -6.836,21.15886 -6.8359,9.4401 -17.2526,15.95052 -10.4166,6.18489 -22.4609,9.76562 -12.0443,3.25521 -22.4609,3.25521 -3.9063,0 -8.1381,0 -3.9062,0 -7.1614,-1.30208 -3.2552,-1.30209 -5.2083,-3.90625 -1.9532,-2.60417 -1.9532,-7.8125 0,-1.62761 0.3256,-2.60417 0.651,-1.30208 2.9296,-1.6276 2.2787,-0.65105 6.836,-0.32552 4.5573,0.65104 12.3698,1.95312 4.5573,0 13.0208,-2.92969 8.7891,-3.25521 17.5781,-8.13802 9.1146,-4.88281 15.625,-11.06771 6.5104,-6.51041 6.5104,-12.69531 0,-6.51042 -2.2786,-12.69531 -1.9531,-6.51042 -6.1849,-11.39323 -4.2318,-4.88281 -10.0911,-7.8125 -5.5339,-2.92969 -12.6954,-2.27865 -11.3932,0.97656 -20.8333,6.1849 -9.1146,5.20833 -15.625,13.67187 -6.5104,8.13802 -10.0911,18.22917 -3.5808,10.09115 -3.5808,21.15886 0,8.46354 0.3256,16.92708 0.3255,8.46354 2.2786,16.60156 2.2786,8.13802 6.8359,15.625 4.8829,7.48698 13.6719,13.34636 9.1146,5.53385 22.7865,9.4401 13.6718,3.58073 33.8541,4.55729 l 58.2683,-3.90625 q -5.2084,7.16146 -13.3464,11.71875 -7.8125,4.5573 -16.9271,7.48698 -8.789,2.60417 -17.5781,3.90625 -8.7891,1.30209 -16.6016,1.30209 -18.8802,0 -35.4817,-6.1849 -16.6016,-6.1849 -29.2969,-17.2526 -12.6953,-11.39323 -20.1823,-27.34375 -7.1615,-16.27605 -7.1615,-36.45834 z"
         style="font-style:normal;font-variant:normal;font-weight:normal;font-stretch:normal;font-size:333.33334351px;line-height:0;font-family:'Indie Flower';-inkscape-font-specification:'Indie Flower';text-align:center;text-anchor:middle;fill:#181818;fill-opacity:1"
         id="path4658" />
    </g>
  </g>
  <g
     inkscape:groupmode="layer"
     id="layer3"
     inkscape:label="Middle"
     style="display:inline"
     transform="translate(0,20)">
    <g
       id="g1029"
       transform="matrix(4.5443852,0,0,4.5443852,68.343792,33.031238)">
      <path
         id="path1015"
         d="M 0,0 H 24 V 24 H 0 Z"
         inkscape:connector-curvature="0"
         style="fill:none" />
      <path
         id="path1017"
         d="M 12.372406,1.9999999 H 0.37240648 c -1.1,0 -1.99999998,0.9 -1.99999998,2 V 20 c 0,1.1 0.89999998,2 1.99999998,2 H 12.372406 c 1.1,0 2,-0.9 2,-2 V 3.9999999 c 0,-1.1 -0.9,-2 -2,-2 z m -11.99999952,2 H 5.3724065 V 12 l -2.5,-1.5 -2.50000002,1.5 z"
         inkscape:connector-curvature="0"
         style="fill:#f6b600;fill-opacity:0.87323946" />
    </g>
    <g
       aria-label="diary"
       transform="matrix(0.47570002,0,0,0.47570002,-69.409377,-113.23702)"
       style="font-style:normal;font-weight:normal;font-size:40px;line-height:1.25;font-family:sans-serif;letter-spacing:0px;word-spacing:0px;fill:#000000;fill-opacity:1;stroke:none"
       id="flowRoot1067">
      <path
         d="m 304.79883,473.81938 q 0,-1.44531 0.35156,-3.04687 0.39063,-1.60156 1.17188,-2.96875 0.82031,-1.36719 2.03125,-2.22656 1.25,-0.89844 3.04687,-0.89844 0.9375,0 1.875,0.27344 0.9375,0.27343 1.91406,0.78125 1.01563,0.50781 2.07032,1.21093 1.09375,0.66407 2.30468,1.48438 0.15625,-1.5625 -0.11718,-3.20313 -0.27344,-1.67968 -0.70313,-3.28125 -0.42969,-1.60156 -0.89844,-3.00781 -0.42968,-1.44531 -0.625,-2.57812 -0.19531,-1.13282 -0.0391,-1.875 0.15625,-0.74219 0.9375,-0.9375 1.05469,0.78125 1.79688,2.22656 0.78125,1.40625 1.32812,3.28125 0.54688,1.875 0.89844,4.02344 0.35156,2.10937 0.58594,4.29687 0.23437,2.1875 0.35156,4.25781 0.15625,2.07032 0.3125,3.82813 0.15625,1.71875 0.27344,2.96875 0.15625,1.21094 0.42968,1.71875 0,0.625 -0.46875,0.78125 -0.42968,0.15625 -0.89843,0.15625 -0.39063,0 -0.66407,-0.27344 -0.27343,-0.3125 -0.42968,-0.70312 -0.15625,-0.39063 -0.3125,-0.85938 -0.11719,-0.50781 -0.27344,-0.89844 -0.15625,-0.42968 -0.35156,-0.70312 -0.19532,-0.27344 -0.50782,-0.27344 -0.0781,0 -0.23437,0.0391 -0.11719,0 -0.11719,0.0391 -0.74219,1.01562 -1.75781,1.99218 -0.97656,0.9375 -2.1875,1.67969 -1.17188,0.70313 -2.5,1.13281 -1.28906,0.42969 -2.61719,0.42969 -1.48437,0 -2.61719,-0.97656 -1.09375,-0.97656 -1.875,-2.34375 -0.74218,-1.36719 -1.13281,-2.89063 -0.35156,-1.52343 -0.35156,-2.65625 z m 2.42187,0.70313 q 0.39063,1.40625 0.70313,2.46094 0.3125,1.05468 0.74219,1.71875 0.46875,0.66406 1.09375,1.01562 0.625,0.3125 1.64062,0.3125 1.25,0 2.65625,-0.70312 1.40625,-0.74219 2.61719,-1.875 1.21094,-1.13282 1.99219,-2.46094 0.78125,-1.36719 0.78125,-2.61719 0,-0.11719 0,-0.46875 0,-0.35156 0,-0.46875 -2.07032,-2.03125 -3.82813,-2.89062 -1.71875,-0.89844 -3.08594,-0.89844 -1.36718,-0.0391 -2.38281,0.58594 -1.01562,0.625 -1.67969,1.64062 -0.66406,1.01563 -0.97656,2.26563 -0.3125,1.25 -0.27344,2.38281 z"
         style="font-style:normal;font-variant:normal;font-weight:normal;font-stretch:normal;font-family:'Indie Flower';-inkscape-font-specification:'Indie Flower';letter-spacing:2.75874138px"
         id="path4661" />
      <path
         d="m 330.29194,469.17095 q 0,-0.15625 0,-0.58594 0,-0.42969 0,-0.89844 0.0391,-0.46875 0.0391,-0.89844 0,-0.42968 0,-0.58593 -0.15625,-1.21094 0.70312,-1.21094 0.39063,0 0.66406,0.19531 0.27344,0.19531 0.50782,0.58594 -0.11719,2.03125 0.15625,3.94531 0.3125,1.875 0.66406,3.75 0.39062,1.83594 0.70312,3.71094 0.35157,1.875 0.35157,3.90625 0,0.54687 -0.35157,1.09375 -0.3125,0.54687 -0.97656,0.54687 -0.50781,0 -0.89844,-0.85937 -0.35156,-0.89844 -0.625,-2.22656 -0.27343,-1.36719 -0.46875,-3.00782 -0.19531,-1.64062 -0.3125,-3.125 -0.0781,-1.52343 -0.11718,-2.69531 -0.0391,-1.21094 -0.0391,-1.64062 z m -1.99218,-9.80469 q 0,-0.46875 0.27343,-0.58594 0.27344,-0.15625 0.70313,-0.15625 0.27344,-0.0391 0.70312,0.35156 0.46875,0.35157 0.74219,0.82032 0.3125,0.46875 0.35156,0.85937 0.0391,0.46875 -0.58593,0.54688 h -0.19532 q -0.58593,0 -0.97656,-0.0781 -0.39062,-0.0781 -0.625,-0.23437 -0.19531,-0.19532 -0.3125,-0.54688 -0.0781,-0.35156 -0.0781,-0.97656 z"
         style="font-style:normal;font-variant:normal;font-weight:normal;font-stretch:normal;font-family:'Indie Flower';-inkscape-font-specification:'Indie Flower';letter-spacing:2.75874138px"
         id="path4663" />
      <path
         d="m 338.36319,476.08501 q 0.0391,-0.66406 0.39062,-1.52344 0.35156,-0.85937 1.09375,-1.67969 0.74219,-0.82031 1.875,-1.44531 1.13281,-0.66406 2.65625,-0.9375 1.5625,-0.27344 3.51563,-0.0391 1.99218,0.23437 4.41406,1.17187 0,-0.0391 0,-0.39062 l -0.0391,-0.35156 q 0,-1.01563 -0.58594,-2.07032 -0.58594,-1.05468 -1.52344,-1.875 -0.89844,-0.85937 -1.95312,-1.36718 -1.05469,-0.54688 -2.03125,-0.54688 -0.39063,0 -0.70313,0.11719 -0.27344,0.11719 -0.54687,0.3125 -0.27344,0.15625 -0.54688,0.3125 -0.23437,0.11719 -0.58594,0.11719 -0.0781,0 -0.0781,-0.0391 -0.0391,-0.0391 -0.0781,-0.0781 -0.0781,-0.0781 -0.23437,-0.19531 -0.11719,-0.11719 -0.11719,-0.15625 0,-0.70313 0.23438,-1.21094 0.27343,-0.50781 0.70312,-0.82031 0.46875,-0.3125 1.01563,-0.46875 0.58593,-0.19532 1.21093,-0.19532 1.5625,0.15625 2.96875,0.97657 1.44532,0.78125 2.61719,1.99218 1.21094,1.21094 2.10938,2.8125 0.89843,1.5625 1.48437,3.28125 0.625,1.67969 0.82031,3.39844 0.23438,1.79688 0.0391,3.35938 -0.0391,0 -0.23438,0 -0.19531,-0.0391 -0.42969,-0.0391 -0.23437,-0.0391 -0.39062,-0.0781 l -0.19531,-0.0391 q -0.82032,-1.83594 -1.83594,-2.96875 -1.01563,-1.13282 -2.03125,-1.75782 -0.97656,-0.66406 -1.83594,-0.89843 -0.85937,-0.27344 -1.40625,-0.39063 -0.58594,0 -1.40625,0.0781 -0.78125,0.0781 -1.64062,0.27343 -0.85938,0.19532 -1.75782,0.54688 -0.85937,0.3125 -1.5625,0.78125 -0.66406,0.46875 -1.09375,1.13281 -0.39062,0.625 -0.39062,1.48438 0,0.9375 0.74219,1.60156 0.74218,0.625 1.79687,1.05469 1.05469,0.39062 2.14844,0.54687 1.09375,0.15625 1.75781,0.15625 1.09375,0 2.14844,-0.11719 1.05469,-0.11718 2.07031,-0.27343 1.05469,-0.15625 2.07031,-0.27344 1.01563,-0.11719 2.03125,-0.11719 0.0781,0 0.27344,0 0.19531,0 0.39063,0.0391 0.23437,0 0.39062,0 0.19531,0 0.27344,0 0.3125,0.11719 0.35156,0.35157 0.0391,0.23437 0.0391,0.46875 0,0.23437 -0.50781,0.50781 -0.46875,0.27344 -1.25,0.54687 -0.78125,0.27344 -1.75781,0.58594 -0.9375,0.27344 -1.83594,0.46875 -0.85937,0.19531 -1.64062,0.35156 -0.74219,0.11719 -1.05469,0.11719 -1.64063,0 -3.47656,-0.27344 -1.83594,-0.27343 -3.35938,-0.97656 -1.52344,-0.74219 -2.53906,-2.03125 -0.97656,-1.28906 -0.97656,-3.32031 z"
         style="font-style:normal;font-variant:normal;font-weight:normal;font-stretch:normal;font-family:'Indie Flower';-inkscape-font-specification:'Indie Flower';letter-spacing:2.75874138px"
         id="path4665" />
      <path
         d="m 364.91099,482.68657 q -0.85938,-1.5625 -1.48438,-3.39844 -0.625,-1.83593 -1.05468,-3.71093 -0.42969,-1.875 -0.70313,-3.63282 -0.23437,-1.79687 -0.3125,-3.24218 0,-0.27344 -0.0391,-0.58594 -0.0391,-0.35156 -0.0391,-0.70313 0.0391,-0.35156 0.11718,-0.66406 0.11719,-0.3125 0.35157,-0.54687 h 0.0781 q 0.0391,0 0.0391,0 0,-0.0391 0.0391,-0.0391 0.0391,0 0.0391,0.0391 0,0 0.0781,0 h 0.0781 q 0.0781,0.0391 0.39062,0.15625 0.3125,0.11718 0.39063,0.19531 0.70312,-0.23438 1.44531,-0.54688 0.74219,-0.35156 1.48438,-0.625 0.78125,-0.3125 1.5625,-0.50781 0.78125,-0.19531 1.52343,-0.19531 0.54688,0 0.9375,0.0391 0.42969,0.0391 0.82032,0.15625 0.42968,0.0781 0.89843,0.23438 0.46875,0.11718 1.09375,0.3125 0.3125,0.23437 0.54688,0.46875 0.27344,0.19531 0.46875,0.46875 0.23437,0.27343 0.35156,0.66406 0.11719,0.39062 0.11719,1.01562 -0.625,0.0781 -1.48438,-0.0781 -0.82031,-0.19531 -1.75781,-0.46875 -0.89844,-0.27344 -1.875,-0.46875 -0.97656,-0.19531 -1.875,-0.15625 -0.89844,0.0391 -1.67969,0.50781 -0.82031,0.39063 -1.44531,1.40625 -0.27344,1.13281 -0.23437,2.22656 0.0391,1.09375 0.27343,2.14844 0.23438,1.01563 0.58594,2.07031 0.39063,1.01563 0.70313,2.07032 0.35156,1.01562 0.625,2.03125 0.27343,1.01562 0.35156,2.07031 0,0.39062 -0.42969,0.85937 -0.42969,0.42969 -0.97656,0.42969 z"
         style="font-style:normal;font-variant:normal;font-weight:normal;font-stretch:normal;font-family:'Indie Flower';-inkscape-font-specification:'Indie Flower';letter-spacing:2.75874138px"
         id="path4667" />
      <path
         d="m 379.07598,494.87407 q 0,-0.27344 0,-0.54687 0,-0.23438 0.0781,-0.42969 0.0781,-0.15625 0.23437,-0.27344 0.23438,-0.0781 0.54688,-0.0781 0.58593,0.66406 1.48437,1.67968 0.9375,1.05469 2.10938,2.03125 1.17187,0.97657 2.46093,1.71875 1.28907,0.74219 2.61719,0.74219 1.09375,-0.0391 1.875,-0.58594 0.78125,-0.50781 1.32813,-1.36718 0.54687,-0.85938 0.89843,-1.95313 0.35157,-1.09375 0.54688,-2.22656 0.23437,-1.13281 0.3125,-2.1875 0.11719,-1.05469 0.23437,-1.83594 0.0781,-0.39062 0.15625,-1.32812 0.11719,-0.89844 0.19532,-2.03125 0.11718,-1.09375 0.15625,-2.30469 0.0781,-1.21094 0,-2.1875 -0.0781,-1.01563 -0.3125,-1.64063 -0.23438,-0.66406 -0.70313,-0.66406 -0.66406,0 -1.40625,0.39063 -0.74219,0.39062 -1.5625,0.89843 -0.78125,0.46875 -1.60156,0.85938 -0.82031,0.39062 -1.60156,0.39062 -1.48438,0 -2.73438,-0.58593 -1.21094,-0.625 -2.22656,-1.60157 -1.01563,-0.97656 -1.79688,-2.26562 -0.78125,-1.32813 -1.32812,-2.73438 -0.50781,-1.40625 -0.78125,-2.8125 -0.23438,-1.40625 -0.23438,-2.65625 0,-0.27343 -0.0781,-0.89843 -0.0391,-0.625 0.0391,-1.28907 0.0781,-0.66406 0.35156,-1.17187 0.27344,-0.50781 0.85938,-0.50781 0.15625,0 0.23437,0.625 0.11719,0.625 0.23438,1.64062 0.15625,0.97656 0.35156,2.26563 0.23438,1.28906 0.58594,2.61718 0.35156,1.32813 0.85937,2.61719 0.50782,1.28906 1.25,2.30469 0.74219,0.97656 1.75782,1.60156 1.05468,0.625 2.38281,0.625 0.85937,0 1.79687,-0.35156 0.9375,-0.39063 1.75782,-0.97656 0.85937,-0.58594 1.5625,-1.32813 0.70312,-0.78125 1.09375,-1.52344 0,-0.15625 -0.0391,-0.74218 -0.0391,-0.58594 -0.0781,-1.32813 -0.0391,-0.78125 -0.0781,-1.67969 -0.0391,-0.89843 -0.0781,-1.67968 -0.0391,-0.82032 -0.0781,-1.40625 0,-0.58594 0,-0.74219 0.0781,-2.38281 0.35157,-2.89063 0.27343,-0.54687 0.66406,0.3125 0.39062,0.85938 0.82031,2.89063 0.42969,2.03125 0.78125,4.76562 0.39063,2.69532 0.58594,5.89844 0.23437,3.20313 0.19531,6.40625 -0.0391,3.24219 -0.42969,6.25 -0.35156,3.00781 -1.17187,5.3125 -0.82031,2.34375 -2.14844,3.78906 -1.32812,1.44532 -3.28125,1.52344 -0.78125,0 -1.875,-0.3125 -1.05469,-0.27344 -2.14844,-0.78125 -1.09375,-0.50781 -2.1875,-1.21094 -1.05468,-0.70312 -1.91406,-1.52343 -0.82031,-0.82032 -1.36719,-1.71875 -0.50781,-0.89844 -0.50781,-1.79688 z"
         style="font-style:normal;font-variant:normal;font-weight:normal;font-stretch:normal;font-family:'Indie Flower';-inkscape-font-specification:'Indie Flower';letter-spacing:2.75874138px"
         id="path4669" />
    </g>
    <path
       style="fill:#000000;fill-opacity:1;stroke:none;stroke-width:0.26458332px;stroke-linecap:butt;stroke-linejoin:miter;stroke-opacity:1"
       d="m 100.37635,69.462702 11.97367,-0.748353 13.47038,0.935443 z"
       id="path1075"
       inkscape:connector-curvature="0" />
    <path
       style="fill:#000000;fill-opacity:1;stroke:none;stroke-width:0.21603136px;stroke-linecap:butt;stroke-linejoin:miter;stroke-opacity:1"
       d="m 100.75098,77.9299 11.03823,0.748354 9.9157,-0.87308 h 3.74177 l -0.74835,-0.623628 z"
       id="path1077"
       inkscape:connector-curvature="0" />
    <path
       style="fill:#000000;fill-opacity:1;stroke:none;stroke-width:0.3429603px;stroke-linecap:butt;stroke-linejoin:miter;stroke-opacity:1"
       d="m 99.471676,61.08983 17.995024,0.01503 9.25928,-1.341246 -25.90041,1.326226 z"
       id="path1079"
       inkscape:connector-curvature="0" />
  </g>
</svg>
